  0
SECTION
  2
BLOCKS
  0
ENDSEC
  0
SECTION
  2
ENTITIES
  0
LINE
  8
0
 10
1.24345
 20
-32.3429
 11
2.40877
 21
-31.8815
  0
LINE
  8
0
 10
2.40877
 20
-31.8815
 11
3.42273
 21
-31.1448
  0
LINE
  8
0
 10
3.42273
 20
-31.1448
 11
4.22163
 21
-30.1791
  0
LINE
  8
0
 10
4.22163
 20
-30.1791
 11
4.75528
 21
-29.0451
  0
LINE
  8
0
 10
4.75528
 20
-29.0451
 11
5
 21
-27.5
  0
LINE
  8
0
 10
5
 20
-27.5
 11
5
 21
27.5
  0
LINE
  8
0
 10
5
 20
27.5
 11
4.84291
 21
28.7435
  0
LINE
  8
0
 10
4.84291
 20
28.7435
 11
4.38153
 21
29.9088
  0
LINE
  8
0
 10
4.38153
 20
29.9088
 11
3.64484
 21
30.9227
  0
LINE
  8
0
 10
3.64484
 20
30.9227
 11
2.67914
 21
31.7216
  0
LINE
  8
0
 10
2.67914
 20
31.7216
 11
1.54509
 21
32.2553
  0
LINE
  8
0
 10
1.54509
 20
32.2553
 11
0
 21
32.5
  0
LINE
  8
0
 10
0
 20
32.5
 11
-10
 21
32.5
  0
LINE
  8
0
 10
-10
 20
32.5
 11
-11.2435
 21
32.3429
  0
LINE
  8
0
 10
-11.2435
 20
32.3429
 11
-12.4088
 21
31.8815
  0
LINE
  8
0
 10
-12.4088
 20
31.8815
 11
-13.4227
 21
31.1448
  0
LINE
  8
0
 10
-13.4227
 20
31.1448
 11
-14.2216
 21
30.1791
  0
LINE
  8
0
 10
-14.2216
 20
30.1791
 11
-14.7553
 21
29.0451
  0
LINE
  8
0
 10
-14.7553
 20
29.0451
 11
-15
 21
27.5
  0
LINE
  8
0
 10
-15
 20
27.5
 11
-15
 21
17.5
  0
LINE
  8
0
 10
-15
 20
17.5
 11
-99.3418
 21
17.5
  0
LINE
  8
0
 10
-99.3418
 20
17.5
 11
-97.6808
 21
13.3049
  0
LINE
  8
0
 10
-97.6808
 20
13.3049
 11
-97.5159
 21
12
  0
LINE
  8
0
 10
-97.5159
 20
12
 11
-90
 21
12
  0
LINE
  8
0
 10
-90
 20
12
 11
-90
 21
4
  0
LINE
  8
0
 10
-90
 20
4
 11
-96.5053
 21
4
  0
LINE
  8
0
 10
-96.5053
 20
4
 11
-96.379
 21
3
  0
LINE
  8
0
 10
-96.379
 20
3
 11
-100
 21
3
  0
LINE
  8
0
 10
-100
 20
3
 11
-100
 21
-9
  0
LINE
  8
0
 10
-100
 20
-9
 11
-97.137
 21
-9
  0
LINE
  8
0
 10
-97.137
 20
-9
 11
-97.6808
 21
-13.3049
  0
LINE
  8
0
 10
-97.6808
 20
-13.3049
 11
-99.3418
 21
-17.5
  0
LINE
  8
0
 10
-99.3418
 20
-17.5
 11
-15
 21
-17.5
  0
LINE
  8
0
 10
-15
 20
-17.5
 11
-15
 21
-27.5
  0
LINE
  8
0
 10
-15
 20
-27.5
 11
-14.8429
 21
-28.7435
  0
LINE
  8
0
 10
-14.8429
 20
-28.7435
 11
-14.3815
 21
-29.9088
  0
LINE
  8
0
 10
-14.3815
 20
-29.9088
 11
-13.6448
 21
-30.9227
  0
LINE
  8
0
 10
-13.6448
 20
-30.9227
 11
-12.6791
 21
-31.7216
  0
LINE
  8
0
 10
-12.6791
 20
-31.7216
 11
-11.5451
 21
-32.2553
  0
LINE
  8
0
 10
-11.5451
 20
-32.2553
 11
-10
 21
-32.5
  0
LINE
  8
0
 10
-10
 20
-32.5
 11
0
 21
-32.5
  0
LINE
  8
0
 10
0
 20
-32.5
 11
1.24345
 21
-32.3429
  0
LINE
  8
0
 10
-5.56213
 20
22.0531
 11
-6.27733
 21
22.2855
  0
LINE
  8
0
 10
-6.27733
 20
22.2855
 11
-6.91226
 21
22.6884
  0
LINE
  8
0
 10
-6.91226
 20
22.6884
 11
-7.42705
 21
23.2366
  0
LINE
  8
0
 10
-7.42705
 20
23.2366
 11
-7.78932
 21
23.8956
  0
LINE
  8
0
 10
-7.78932
 20
23.8956
 11
-7.97633
 21
24.624
  0
LINE
  8
0
 10
-7.97633
 20
24.624
 11
-7.97633
 21
25.376
  0
LINE
  8
0
 10
-7.97633
 20
25.376
 11
-7.78932
 21
26.1044
  0
LINE
  8
0
 10
-7.78932
 20
26.1044
 11
-7.42705
 21
26.7634
  0
LINE
  8
0
 10
-7.42705
 20
26.7634
 11
-6.91226
 21
27.3115
  0
LINE
  8
0
 10
-6.91226
 20
27.3115
 11
-6.27733
 21
27.7145
  0
LINE
  8
0
 10
-6.27733
 20
27.7145
 11
-5.56213
 21
27.9469
  0
LINE
  8
0
 10
-5.56213
 20
27.9469
 11
-4.81161
 21
27.9941
  0
LINE
  8
0
 10
-4.81161
 20
27.9941
 11
-4.07294
 21
27.8532
  0
LINE
  8
0
 10
-4.07294
 20
27.8532
 11
-3.39252
 21
27.533
  0
LINE
  8
0
 10
-3.39252
 20
27.533
 11
-2.81308
 21
27.0536
  0
LINE
  8
0
 10
-2.81308
 20
27.0536
 11
-2.37108
 21
26.4453
  0
LINE
  8
0
 10
-2.37108
 20
26.4453
 11
-2.09424
 21
25.7461
  0
LINE
  8
0
 10
-2.09424
 20
25.7461
 11
-2
 21
25
  0
LINE
  8
0
 10
-2
 20
25
 11
-2.09424
 21
24.2539
  0
LINE
  8
0
 10
-2.09424
 20
24.2539
 11
-2.37108
 21
23.5547
  0
LINE
  8
0
 10
-2.37108
 20
23.5547
 11
-2.81308
 21
22.9464
  0
LINE
  8
0
 10
-2.81308
 20
22.9464
 11
-3.39252
 21
22.467
  0
LINE
  8
0
 10
-3.39252
 20
22.467
 11
-4.07294
 21
22.1468
  0
LINE
  8
0
 10
-4.07294
 20
22.1468
 11
-4.81161
 21
22.0059
  0
LINE
  8
0
 10
-4.81161
 20
22.0059
 11
-5.56213
 21
22.0531
  0
LINE
  8
0
 10
-32.154
 20
2
 11
-32.154
 21
7
  0
LINE
  8
0
 10
-32.154
 20
7
 11
-28.9428
 21
7
  0
LINE
  8
0
 10
-28.9428
 20
7
 11
-28.9428
 21
5
  0
LINE
  8
0
 10
-28.9428
 20
5
 11
-30
 21
5
  0
LINE
  8
0
 10
-30
 20
5
 11
-30
 21
2
  0
LINE
  8
0
 10
-30
 20
2
 11
-32.154
 21
2
  0
LINE
  8
0
 10
-32.154
 20
-7
 11
-32.154
 21
-2
  0
LINE
  8
0
 10
-32.154
 20
-2
 11
-30
 21
-2
  0
LINE
  8
0
 10
-30
 20
-2
 11
-30
 21
-5
  0
LINE
  8
0
 10
-30
 20
-5
 11
-28.9428
 21
-5
  0
LINE
  8
0
 10
-28.9428
 20
-5
 11
-28.9428
 21
-7
  0
LINE
  8
0
 10
-28.9428
 20
-7
 11
-32.154
 21
-7
  0
LINE
  8
0
 10
-5.56213
 20
-27.9469
 11
-6.27733
 21
-27.7145
  0
LINE
  8
0
 10
-6.27733
 20
-27.7145
 11
-6.91226
 21
-27.3115
  0
LINE
  8
0
 10
-6.91226
 20
-27.3115
 11
-7.42705
 21
-26.7634
  0
LINE
  8
0
 10
-7.42705
 20
-26.7634
 11
-7.78932
 21
-26.1044
  0
LINE
  8
0
 10
-7.78932
 20
-26.1044
 11
-7.97633
 21
-25.376
  0
LINE
  8
0
 10
-7.97633
 20
-25.376
 11
-7.97633
 21
-24.624
  0
LINE
  8
0
 10
-7.97633
 20
-24.624
 11
-7.78932
 21
-23.8956
  0
LINE
  8
0
 10
-7.78932
 20
-23.8956
 11
-7.42705
 21
-23.2366
  0
LINE
  8
0
 10
-7.42705
 20
-23.2366
 11
-6.91226
 21
-22.6884
  0
LINE
  8
0
 10
-6.91226
 20
-22.6884
 11
-6.27733
 21
-22.2855
  0
LINE
  8
0
 10
-6.27733
 20
-22.2855
 11
-5.56213
 21
-22.0531
  0
LINE
  8
0
 10
-5.56213
 20
-22.0531
 11
-4.81161
 21
-22.0059
  0
LINE
  8
0
 10
-4.81161
 20
-22.0059
 11
-4.07294
 21
-22.1468
  0
LINE
  8
0
 10
-4.07294
 20
-22.1468
 11
-3.39252
 21
-22.467
  0
LINE
  8
0
 10
-3.39252
 20
-22.467
 11
-2.81308
 21
-22.9464
  0
LINE
  8
0
 10
-2.81308
 20
-22.9464
 11
-2.37108
 21
-23.5547
  0
LINE
  8
0
 10
-2.37108
 20
-23.5547
 11
-2.09424
 21
-24.2539
  0
LINE
  8
0
 10
-2.09424
 20
-24.2539
 11
-2
 21
-25
  0
LINE
  8
0
 10
-2
 20
-25
 11
-2.09424
 21
-25.7461
  0
LINE
  8
0
 10
-2.09424
 20
-25.7461
 11
-2.37108
 21
-26.4453
  0
LINE
  8
0
 10
-2.37108
 20
-26.4453
 11
-2.81308
 21
-27.0536
  0
LINE
  8
0
 10
-2.81308
 20
-27.0536
 11
-3.39252
 21
-27.533
  0
LINE
  8
0
 10
-3.39252
 20
-27.533
 11
-4.07294
 21
-27.8532
  0
LINE
  8
0
 10
-4.07294
 20
-27.8532
 11
-4.81161
 21
-27.9941
  0
LINE
  8
0
 10
-4.81161
 20
-27.9941
 11
-5.56213
 21
-27.9469
  0
ENDSEC
  0
SECTION
  2
OBJECTS
  0
DICTIONARY
  0
ENDSEC
  0
EOF
