  0
SECTION
  2
BLOCKS
  0
ENDSEC
  0
SECTION
  2
ENTITIES
  0
LINE
  8
0
 10
-30.7565
 20
-19.8429
 11
-29.5912
 21
-19.3815
  0
LINE
  8
0
 10
-29.5912
 20
-19.3815
 11
-28.5773
 21
-18.6448
  0
LINE
  8
0
 10
-28.5773
 20
-18.6448
 11
-27.7784
 21
-17.6791
  0
LINE
  8
0
 10
-27.7784
 20
-17.6791
 11
-27.2447
 21
-16.5451
  0
LINE
  8
0
 10
-27.2447
 20
-16.5451
 11
-27
 21
-15
  0
LINE
  8
0
 10
-27
 20
-15
 11
-27
 21
15
  0
LINE
  8
0
 10
-27
 20
15
 11
-27.1571
 21
16.2435
  0
LINE
  8
0
 10
-27.1571
 20
16.2435
 11
-27.6185
 21
17.4088
  0
LINE
  8
0
 10
-27.6185
 20
17.4088
 11
-28.3552
 21
18.4227
  0
LINE
  8
0
 10
-28.3552
 20
18.4227
 11
-29.3209
 21
19.2216
  0
LINE
  8
0
 10
-29.3209
 20
19.2216
 11
-30.4549
 21
19.7553
  0
LINE
  8
0
 10
-30.4549
 20
19.7553
 11
-32
 21
20
  0
LINE
  8
0
 10
-32
 20
20
 11
-72
 21
20
  0
LINE
  8
0
 10
-72
 20
20
 11
-73.2435
 21
19.8429
  0
LINE
  8
0
 10
-73.2435
 20
19.8429
 11
-74.4088
 21
19.3815
  0
LINE
  8
0
 10
-74.4088
 20
19.3815
 11
-75.4227
 21
18.6448
  0
LINE
  8
0
 10
-75.4227
 20
18.6448
 11
-76.2216
 21
17.6791
  0
LINE
  8
0
 10
-76.2216
 20
17.6791
 11
-76.7553
 21
16.5451
  0
LINE
  8
0
 10
-76.7553
 20
16.5451
 11
-77
 21
15
  0
LINE
  8
0
 10
-77
 20
15
 11
-77
 21
-15
  0
LINE
  8
0
 10
-77
 20
-15
 11
-76.8429
 21
-16.2435
  0
LINE
  8
0
 10
-76.8429
 20
-16.2435
 11
-76.3815
 21
-17.4088
  0
LINE
  8
0
 10
-76.3815
 20
-17.4088
 11
-75.6448
 21
-18.4227
  0
LINE
  8
0
 10
-75.6448
 20
-18.4227
 11
-74.6791
 21
-19.2216
  0
LINE
  8
0
 10
-74.6791
 20
-19.2216
 11
-73.5451
 21
-19.7553
  0
LINE
  8
0
 10
-73.5451
 20
-19.7553
 11
-72
 21
-20
  0
LINE
  8
0
 10
-72
 20
-20
 11
-32
 21
-20
  0
LINE
  8
0
 10
-32
 20
-20
 11
-30.7565
 21
-19.8429
  0
LINE
  8
0
 10
-47.5767
 20
-12.005
 11
-47.5767
 21
-9
  0
LINE
  8
0
 10
-47.5767
 20
-9
 11
-58.0996
 21
-9
  0
LINE
  8
0
 10
-58.0996
 20
-9
 11
-58.0996
 21
-11.8487
  0
LINE
  8
0
 10
-58.0996
 20
-11.8487
 11
-60.9144
 21
-11.4177
  0
LINE
  8
0
 10
-60.9144
 20
-11.4177
 11
-63.7295
 21
-10.1369
  0
LINE
  8
0
 10
-63.7295
 20
-10.1369
 11
-66.1267
 21
-8.21956
  0
LINE
  8
0
 10
-66.1267
 20
-8.21956
 11
-67.231
 21
-6.75
  0
LINE
  8
0
 10
-67.231
 20
-6.75
 11
-61.9172
 21
-6.75
  0
LINE
  8
0
 10
-61.9172
 20
-6.75
 11
-61.9172
 21
-6
  0
LINE
  8
0
 10
-61.9172
 20
-6
 11
-60.25
 21
-6
  0
LINE
  8
0
 10
-60.25
 20
-6
 11
-60.25
 21
-3
  0
LINE
  8
0
 10
-60.25
 20
-3
 11
-61.9172
 21
-3
  0
LINE
  8
0
 10
-61.9172
 20
-3
 11
-61.9172
 21
-2.75
  0
LINE
  8
0
 10
-61.9172
 20
-2.75
 11
-69.132
 21
-2.75
  0
LINE
  8
0
 10
-69.132
 20
-2.75
 11
-69.4907
 21
-0.00498962
  0
LINE
  8
0
 10
-69.4907
 20
-0.00498962
 11
-69.4907
 21
0.00498962
  0
LINE
  8
0
 10
-69.4907
 20
0.00498962
 11
-69.041
 21
2.75
  0
LINE
  8
0
 10
-69.041
 20
2.75
 11
-61.9172
 21
2.75
  0
LINE
  8
0
 10
-61.9172
 20
2.75
 11
-61.9172
 21
3
  0
LINE
  8
0
 10
-61.9172
 20
3
 11
-54.823
 21
3
  0
LINE
  8
0
 10
-54.823
 20
3
 11
-54.823
 21
6
  0
LINE
  8
0
 10
-54.823
 20
6
 11
-61.9172
 21
6
  0
LINE
  8
0
 10
-61.9172
 20
6
 11
-61.9172
 21
6.75
  0
LINE
  8
0
 10
-61.9172
 20
6.75
 11
-67.2889
 21
6.75
  0
LINE
  8
0
 10
-67.2889
 20
6.75
 11
-65.5754
 21
8.75261
  0
LINE
  8
0
 10
-65.5754
 20
8.75261
 11
-63.0583
 21
10.5207
  0
LINE
  8
0
 10
-63.0583
 20
10.5207
 11
-60.1656
 21
11.628
  0
LINE
  8
0
 10
-60.1656
 20
11.628
 11
-58.0996
 21
11.8803
  0
LINE
  8
0
 10
-58.0996
 20
11.8803
 11
-58.0996
 21
9
  0
LINE
  8
0
 10
-58.0996
 20
9
 11
-47.5767
 21
9
  0
LINE
  8
0
 10
-47.5767
 20
9
 11
-47.5767
 21
12.005
  0
LINE
  8
0
 10
-47.5767
 20
12.005
 11
-44.7118
 21
12.005
  0
LINE
  8
0
 10
-44.7118
 20
12.005
 11
-40.8764
 21
11.4177
  0
LINE
  8
0
 10
-40.8764
 20
11.4177
 11
-38.0613
 21
10.1369
  0
LINE
  8
0
 10
-38.0613
 20
10.1369
 11
-35.664
 21
8.21956
  0
LINE
  8
0
 10
-35.664
 20
8.21956
 11
-33.8353
 21
5.78604
  0
LINE
  8
0
 10
-33.8353
 20
5.78604
 11
-32.69
 21
2.98927
  0
LINE
  8
0
 10
-32.69
 20
2.98927
 11
-32.3
 21
0.00498962
  0
LINE
  8
0
 10
-32.3
 20
0.00498962
 11
-32.3
 21
-0.00498962
  0
LINE
  8
0
 10
-32.3
 20
-0.00498962
 11
-32.9075
 21
-3.7132
  0
LINE
  8
0
 10
-32.9075
 20
-3.7132
 11
-34.2322
 21
-6.43491
  0
LINE
  8
0
 10
-34.2322
 20
-6.43491
 11
-36.2154
 21
-8.75261
  0
LINE
  8
0
 10
-36.2154
 20
-8.75261
 11
-38.7324
 21
-10.5207
  0
LINE
  8
0
 10
-38.7324
 20
-10.5207
 11
-41.6251
 21
-11.628
  0
LINE
  8
0
 10
-41.6251
 20
-11.628
 11
-44.7118
 21
-12.005
  0
LINE
  8
0
 10
-44.7118
 20
-12.005
 11
-47.5767
 21
-12.005
  0
ENDSEC
  0
SECTION
  2
OBJECTS
  0
DICTIONARY
  0
ENDSEC
  0
EOF
