<?xml version="1.0" standalone="no"?>
<!DOCTYPE svg PUBLIC "-//W3C//DTD SVG 1.1//EN" "http://www.w3.org/Graphics/SVG/1.1/DTD/svg11.dtd">
<svg width="1904mm" height="76mm" viewBox="-99 -38 1904 76" xmlns="http://www.w3.org/2000/svg" version="1.1">
<title>OpenSCAD Model</title>
<path d="
M 200.005,-37.5 L 76.995,-37.5 L 76.995,-21 L 72,-21 L 72,21 L 76.995,21
 L 76.995,37.5 L 200.005,37.5 z
M 74.5,14.25 L 74.5,-14.25 L 76.995,-14.25 L 76.995,14.25 z
M -3,8.49666 L -2.27446,7.64052 L -0.716476,4.40848 L -0.0019989,0.00498962 L -0.0019989,-0.00498962 L -0.460617,-3.54883
 L -1.80765,-6.86998 L -3,-8.47203 L -3,-34.9309 L -99,-34.9309 L -99,34.9309 L -3,34.9309
 z
M 1371.24,19.8429 L 1372.41,19.3815 L 1373.42,18.6448 L 1374.22,17.6791 L 1374.76,16.5451 L 1375,15
 L 1375,-15 L 1374.84,-16.2435 L 1374.38,-17.4088 L 1373.64,-18.4227 L 1372.68,-19.2216 L 1371.55,-19.7553
 L 1370,-20 L 1320,-20 L 1318.76,-19.8429 L 1317.59,-19.3815 L 1316.58,-18.6448 L 1315.78,-17.6791
 L 1315.24,-16.5451 L 1315,-15 L 1315,15 L 1315.16,16.2435 L 1315.62,17.4088 L 1316.36,18.4227
 L 1317.32,19.2216 L 1318.45,19.7553 L 1320,20 L 1370,20 z
M 1325.75,-1 L 1325.75,-8 L 1338.75,-8 L 1338.75,-1 z
M 1325.75,8 L 1325.75,1 L 1338.75,1 L 1338.75,8 z
M 1569.24,19.8429 L 1570.41,19.3815 L 1571.42,18.6448 L 1572.22,17.6791 L 1572.76,16.5451 L 1573,15
 L 1573,-15 L 1572.84,-16.2435 L 1572.38,-17.4088 L 1571.64,-18.4227 L 1570.68,-19.2216 L 1569.55,-19.7553
 L 1568,-20 L 1528,-20 L 1526.76,-19.8429 L 1525.59,-19.3815 L 1524.58,-18.6448 L 1523.78,-17.6791
 L 1523.24,-16.5451 L 1523,-15 L 1523,15 L 1523.16,16.2435 L 1523.62,17.4088 L 1524.36,18.4227
 L 1525.32,19.2216 L 1526.45,19.7553 L 1528,20 L 1568,20 z
M 1548.99,12.005 L 1548.99,9 L 1539.93,9 L 1539.93,11.6501 L 1538.44,11.4177 L 1535.66,10.1369
 L 1533.29,8.21956 L 1532.2,6.75 L 1536.17,6.75 L 1536.17,6 L 1538.75,6 L 1538.75,3
 L 1536.17,3 L 1536.17,2.75 L 1530.33,2.75 L 1529.97,0.00498962 L 1529.97,-0.00498962 L 1530.42,-2.75
 L 1536.17,-2.75 L 1536.17,-3 L 1543.04,-3 L 1543.04,-6 L 1536.17,-6 L 1536.17,-6.75
 L 1532.15,-6.75 L 1533.84,-8.75261 L 1536.32,-10.5207 L 1539.17,-11.628 L 1539.93,-11.722 L 1539.93,-9
 L 1548.99,-9 L 1548.99,-12.005 L 1552.95,-12.005 L 1556.74,-11.4177 L 1559.51,-10.1369 L 1561.88,-8.21956
 L 1563.68,-5.78604 L 1564.81,-2.98927 L 1565.2,-0.00498962 L 1565.2,0.00498962 L 1564.6,3.7132 L 1563.29,6.43491
 L 1561.34,8.75261 L 1558.85,10.5207 L 1556,11.628 L 1552.95,12.005 z
M 1801.24,17.3429 L 1802.41,16.8815 L 1803.42,16.1448 L 1804.22,15.1791 L 1804.76,14.0451 L 1805,12.5
 L 1805,-12.5 L 1804.84,-13.7435 L 1804.38,-14.9088 L 1803.64,-15.9227 L 1802.68,-16.7216 L 1801.55,-17.2553
 L 1800,-17.5 L 1700,-17.5 L 1698.76,-17.3429 L 1697.59,-16.8815 L 1696.58,-16.1448 L 1695.78,-15.1791
 L 1695.24,-14.0451 L 1695,-12.5 L 1695,12.5 L 1695.16,13.7435 L 1695.62,14.9088 L 1696.36,15.9227
 L 1697.32,16.7216 L 1698.45,17.2553 L 1700,17.5 L 1800,17.5 z
M 1701,14.25 L 1701,-14.25 L 1714.5,-14.25 L 1714.5,14.25 z
" stroke="black" fill="lightgray" stroke-width="0.5"/>
</svg>
