  0
SECTION
  2
BLOCKS
  0
ENDSEC
  0
SECTION
  2
ENTITIES
  0
LINE
  8
0
 10
-132.968
 20
-50.8815
 11
-120.833
 21
-45.1715
  0
LINE
  8
0
 10
-120.833
 20
-45.1715
 11
-110.5
 21
-36.6233
  0
LINE
  8
0
 10
-110.5
 20
-36.6233
 11
-102.618
 21
-25.7738
  0
LINE
  8
0
 10
-102.618
 20
-25.7738
 11
-100.727
 21
-21
  0
LINE
  8
0
 10
-100.727
 20
-21
 11
-98.505
 21
-21
  0
LINE
  8
0
 10
-98.505
 20
-21
 11
-98.505
 21
-37.5
  0
LINE
  8
0
 10
-98.505
 20
-37.5
 11
27.505
 21
-37.5
  0
LINE
  8
0
 10
27.505
 20
-37.5
 11
27.505
 21
37.5
  0
LINE
  8
0
 10
27.505
 20
37.5
 11
-98.505
 21
37.5
  0
LINE
  8
0
 10
-98.505
 20
37.5
 11
-98.505
 21
21
  0
LINE
  8
0
 10
-98.505
 20
21
 11
-100.727
 21
21
  0
LINE
  8
0
 10
-100.727
 20
21
 11
-102.618
 21
25.7738
  0
LINE
  8
0
 10
-102.618
 20
25.7738
 11
-110.5
 21
36.6233
  0
LINE
  8
0
 10
-110.5
 20
36.6233
 11
-120.833
 21
45.1715
  0
LINE
  8
0
 10
-120.833
 20
45.1715
 11
-132.968
 21
50.8815
  0
LINE
  8
0
 10
-132.968
 20
50.8815
 11
-146.141
 21
53.3944
  0
LINE
  8
0
 10
-146.141
 20
53.3944
 11
-159.525
 21
52.5524
  0
LINE
  8
0
 10
-159.525
 20
52.5524
 11
-172.279
 21
48.4082
  0
LINE
  8
0
 10
-172.279
 20
48.4082
 11
-183.602
 21
41.2225
  0
LINE
  8
0
 10
-183.602
 20
41.2225
 11
-192.782
 21
31.4465
  0
LINE
  8
0
 10
-192.782
 20
31.4465
 11
-199.243
 21
19.6947
  0
LINE
  8
0
 10
-199.243
 20
19.6947
 11
-202.578
 21
6.70532
  0
LINE
  8
0
 10
-202.578
 20
6.70532
 11
-202.578
 21
-6.70532
  0
LINE
  8
0
 10
-202.578
 20
-6.70532
 11
-199.243
 21
-19.6947
  0
LINE
  8
0
 10
-199.243
 20
-19.6947
 11
-192.782
 21
-31.4465
  0
LINE
  8
0
 10
-192.782
 20
-31.4465
 11
-183.602
 21
-41.2225
  0
LINE
  8
0
 10
-183.602
 20
-41.2225
 11
-172.279
 21
-48.4082
  0
LINE
  8
0
 10
-172.279
 20
-48.4082
 11
-159.525
 21
-52.5524
  0
LINE
  8
0
 10
-159.525
 20
-52.5524
 11
-146.141
 21
-53.3944
  0
LINE
  8
0
 10
-146.141
 20
-53.3944
 11
-132.968
 21
-50.8815
  0
LINE
  8
0
 10
467.032
 20
-50.8815
 11
479.167
 21
-45.1715
  0
LINE
  8
0
 10
479.167
 20
-45.1715
 11
489.5
 21
-36.6233
  0
LINE
  8
0
 10
489.5
 20
-36.6233
 11
497.382
 21
-25.7738
  0
LINE
  8
0
 10
497.382
 20
-25.7738
 11
502.319
 21
-13.3049
  0
LINE
  8
0
 10
502.319
 20
-13.3049
 11
504
 21
0
  0
LINE
  8
0
 10
504
 20
0
 11
502.319
 21
13.3049
  0
LINE
  8
0
 10
502.319
 20
13.3049
 11
497.382
 21
25.7738
  0
LINE
  8
0
 10
497.382
 20
25.7738
 11
489.5
 21
36.6233
  0
LINE
  8
0
 10
489.5
 20
36.6233
 11
479.167
 21
45.1715
  0
LINE
  8
0
 10
479.167
 20
45.1715
 11
467.032
 21
50.8815
  0
LINE
  8
0
 10
467.032
 20
50.8815
 11
453.859
 21
53.3944
  0
LINE
  8
0
 10
453.859
 20
53.3944
 11
440.475
 21
52.5524
  0
LINE
  8
0
 10
440.475
 20
52.5524
 11
427.721
 21
48.4082
  0
LINE
  8
0
 10
427.721
 20
48.4082
 11
416.398
 21
41.2225
  0
LINE
  8
0
 10
416.398
 20
41.2225
 11
407.218
 21
31.4465
  0
LINE
  8
0
 10
407.218
 20
31.4465
 11
400.757
 21
19.6947
  0
LINE
  8
0
 10
400.757
 20
19.6947
 11
399.5
 21
14.7991
  0
LINE
  8
0
 10
399.5
 20
14.7991
 11
399.5
 21
34.9309
  0
LINE
  8
0
 10
399.5
 20
34.9309
 11
303.5
 21
34.9309
  0
LINE
  8
0
 10
303.5
 20
34.9309
 11
303.5
 21
14.25
  0
LINE
  8
0
 10
303.5
 20
14.25
 11
301.945
 21
14.25
  0
LINE
  8
0
 10
301.945
 20
14.25
 11
302.319
 21
13.3049
  0
LINE
  8
0
 10
302.319
 20
13.3049
 11
302.484
 21
12
  0
LINE
  8
0
 10
302.484
 20
12
 11
303.5
 21
12
  0
LINE
  8
0
 10
303.5
 20
12
 11
303.5
 21
4
  0
LINE
  8
0
 10
303.5
 20
4
 11
303.495
 21
4
  0
LINE
  8
0
 10
303.495
 20
4
 11
303.5
 21
3.9579
  0
LINE
  8
0
 10
303.5
 20
3.9579
 11
303.5
 21
-3.9579
  0
LINE
  8
0
 10
303.5
 20
-3.9579
 11
302.674
 21
-10.5
  0
LINE
  8
0
 10
302.674
 20
-10.5
 11
303.5
 21
-10.5
  0
LINE
  8
0
 10
303.5
 20
-10.5
 11
303.5
 21
-13.5
  0
LINE
  8
0
 10
303.5
 20
-13.5
 11
302.242
 21
-13.5
  0
LINE
  8
0
 10
302.242
 20
-13.5
 11
301.945
 21
-14.25
  0
LINE
  8
0
 10
301.945
 20
-14.25
 11
303.5
 21
-14.25
  0
LINE
  8
0
 10
303.5
 20
-14.25
 11
303.5
 21
-34.9309
  0
LINE
  8
0
 10
303.5
 20
-34.9309
 11
399.5
 21
-34.9309
  0
LINE
  8
0
 10
399.5
 20
-34.9309
 11
399.5
 21
-14.7991
  0
LINE
  8
0
 10
399.5
 20
-14.7991
 11
400.757
 21
-19.6947
  0
LINE
  8
0
 10
400.757
 20
-19.6947
 11
407.218
 21
-31.4465
  0
LINE
  8
0
 10
407.218
 20
-31.4465
 11
416.398
 21
-41.2225
  0
LINE
  8
0
 10
416.398
 20
-41.2225
 11
427.721
 21
-48.4082
  0
LINE
  8
0
 10
427.721
 20
-48.4082
 11
440.475
 21
-52.5524
  0
LINE
  8
0
 10
440.475
 20
-52.5524
 11
453.859
 21
-53.3944
  0
LINE
  8
0
 10
453.859
 20
-53.3944
 11
467.032
 21
-50.8815
  0
LINE
  8
0
 10
227.505
 20
37.5
 11
101.495
 21
37.5
  0
LINE
  8
0
 10
101.495
 20
37.5
 11
101.495
 21
21
  0
LINE
  8
0
 10
101.495
 20
21
 11
99.2725
 21
21
  0
LINE
  8
0
 10
99.2725
 20
21
 11
102.319
 21
13.3049
  0
LINE
  8
0
 10
102.319
 20
13.3049
 11
102.484
 21
12
  0
LINE
  8
0
 10
102.484
 20
12
 11
110
 21
12
  0
LINE
  8
0
 10
110
 20
12
 11
110
 21
4
  0
LINE
  8
0
 10
110
 20
4
 11
103.495
 21
4
  0
LINE
  8
0
 10
103.495
 20
4
 11
103.621
 21
3
  0
LINE
  8
0
 10
103.621
 20
3
 11
100
 21
3
  0
LINE
  8
0
 10
100
 20
3
 11
100
 21
-9
  0
LINE
  8
0
 10
100
 20
-9
 11
102.863
 21
-9
  0
LINE
  8
0
 10
102.863
 20
-9
 11
102.319
 21
-13.3049
  0
LINE
  8
0
 10
102.319
 20
-13.3049
 11
99.2725
 21
-21
  0
LINE
  8
0
 10
99.2725
 20
-21
 11
101.495
 21
-21
  0
LINE
  8
0
 10
101.495
 20
-21
 11
101.495
 21
-37.5
  0
LINE
  8
0
 10
101.495
 20
-37.5
 11
227.505
 21
-37.5
  0
LINE
  8
0
 10
227.505
 20
-37.5
 11
227.505
 21
37.5
  0
LINE
  8
0
 10
801.243
 20
-32.3429
 11
802.409
 21
-31.8815
  0
LINE
  8
0
 10
802.409
 20
-31.8815
 11
803.423
 21
-31.1448
  0
LINE
  8
0
 10
803.423
 20
-31.1448
 11
804.222
 21
-30.1791
  0
LINE
  8
0
 10
804.222
 20
-30.1791
 11
804.755
 21
-29.0451
  0
LINE
  8
0
 10
804.755
 20
-29.0451
 11
805
 21
-27.5
  0
LINE
  8
0
 10
805
 20
-27.5
 11
805
 21
27.5
  0
LINE
  8
0
 10
805
 20
27.5
 11
804.843
 21
28.7435
  0
LINE
  8
0
 10
804.843
 20
28.7435
 11
804.382
 21
29.9088
  0
LINE
  8
0
 10
804.382
 20
29.9088
 11
803.645
 21
30.9227
  0
LINE
  8
0
 10
803.645
 20
30.9227
 11
802.679
 21
31.7216
  0
LINE
  8
0
 10
802.679
 20
31.7216
 11
801.545
 21
32.2553
  0
LINE
  8
0
 10
801.545
 20
32.2553
 11
800
 21
32.5
  0
LINE
  8
0
 10
800
 20
32.5
 11
790
 21
32.5
  0
LINE
  8
0
 10
790
 20
32.5
 11
788.757
 21
32.3429
  0
LINE
  8
0
 10
788.757
 20
32.3429
 11
787.591
 21
31.8815
  0
LINE
  8
0
 10
787.591
 20
31.8815
 11
786.577
 21
31.1448
  0
LINE
  8
0
 10
786.577
 20
31.1448
 11
785.778
 21
30.1791
  0
LINE
  8
0
 10
785.778
 20
30.1791
 11
785.245
 21
29.0451
  0
LINE
  8
0
 10
785.245
 20
29.0451
 11
785
 21
27.5
  0
LINE
  8
0
 10
785
 20
27.5
 11
785
 21
17.5
  0
LINE
  8
0
 10
785
 20
17.5
 11
700.658
 21
17.5
  0
LINE
  8
0
 10
700.658
 20
17.5
 11
702.319
 21
13.3049
  0
LINE
  8
0
 10
702.319
 20
13.3049
 11
702.484
 21
12
  0
LINE
  8
0
 10
702.484
 20
12
 11
710
 21
12
  0
LINE
  8
0
 10
710
 20
12
 11
710
 21
4
  0
LINE
  8
0
 10
710
 20
4
 11
703.495
 21
4
  0
LINE
  8
0
 10
703.495
 20
4
 11
703.621
 21
3
  0
LINE
  8
0
 10
703.621
 20
3
 11
700
 21
3
  0
LINE
  8
0
 10
700
 20
3
 11
700
 21
-9
  0
LINE
  8
0
 10
700
 20
-9
 11
702.863
 21
-9
  0
LINE
  8
0
 10
702.863
 20
-9
 11
702.319
 21
-13.3049
  0
LINE
  8
0
 10
702.319
 20
-13.3049
 11
700.658
 21
-17.5
  0
LINE
  8
0
 10
700.658
 20
-17.5
 11
785
 21
-17.5
  0
LINE
  8
0
 10
785
 20
-17.5
 11
785
 21
-27.5
  0
LINE
  8
0
 10
785
 20
-27.5
 11
785.157
 21
-28.7435
  0
LINE
  8
0
 10
785.157
 20
-28.7435
 11
785.618
 21
-29.9088
  0
LINE
  8
0
 10
785.618
 20
-29.9088
 11
786.355
 21
-30.9227
  0
LINE
  8
0
 10
786.355
 20
-30.9227
 11
787.321
 21
-31.7216
  0
LINE
  8
0
 10
787.321
 20
-31.7216
 11
788.455
 21
-32.2553
  0
LINE
  8
0
 10
788.455
 20
-32.2553
 11
790
 21
-32.5
  0
LINE
  8
0
 10
790
 20
-32.5
 11
800
 21
-32.5
  0
LINE
  8
0
 10
800
 20
-32.5
 11
801.243
 21
-32.3429
  0
LINE
  8
0
 10
794.438
 20
22.0531
 11
793.723
 21
22.2855
  0
LINE
  8
0
 10
793.723
 20
22.2855
 11
793.088
 21
22.6884
  0
LINE
  8
0
 10
793.088
 20
22.6884
 11
792.573
 21
23.2366
  0
LINE
  8
0
 10
792.573
 20
23.2366
 11
792.211
 21
23.8956
  0
LINE
  8
0
 10
792.211
 20
23.8956
 11
792.024
 21
24.624
  0
LINE
  8
0
 10
792.024
 20
24.624
 11
792.024
 21
25.376
  0
LINE
  8
0
 10
792.024
 20
25.376
 11
792.211
 21
26.1044
  0
LINE
  8
0
 10
792.211
 20
26.1044
 11
792.573
 21
26.7634
  0
LINE
  8
0
 10
792.573
 20
26.7634
 11
793.088
 21
27.3115
  0
LINE
  8
0
 10
793.088
 20
27.3115
 11
793.723
 21
27.7145
  0
LINE
  8
0
 10
793.723
 20
27.7145
 11
794.438
 21
27.9469
  0
LINE
  8
0
 10
794.438
 20
27.9469
 11
795.188
 21
27.9941
  0
LINE
  8
0
 10
795.188
 20
27.9941
 11
795.927
 21
27.8532
  0
LINE
  8
0
 10
795.927
 20
27.8532
 11
796.607
 21
27.533
  0
LINE
  8
0
 10
796.607
 20
27.533
 11
797.187
 21
27.0536
  0
LINE
  8
0
 10
797.187
 20
27.0536
 11
797.629
 21
26.4453
  0
LINE
  8
0
 10
797.629
 20
26.4453
 11
797.906
 21
25.7461
  0
LINE
  8
0
 10
797.906
 20
25.7461
 11
798
 21
25
  0
LINE
  8
0
 10
798
 20
25
 11
797.906
 21
24.2539
  0
LINE
  8
0
 10
797.906
 20
24.2539
 11
797.629
 21
23.5547
  0
LINE
  8
0
 10
797.629
 20
23.5547
 11
797.187
 21
22.9464
  0
LINE
  8
0
 10
797.187
 20
22.9464
 11
796.607
 21
22.467
  0
LINE
  8
0
 10
796.607
 20
22.467
 11
795.927
 21
22.1468
  0
LINE
  8
0
 10
795.927
 20
22.1468
 11
795.188
 21
22.0059
  0
LINE
  8
0
 10
795.188
 20
22.0059
 11
794.438
 21
22.0531
  0
LINE
  8
0
 10
767.846
 20
2
 11
767.846
 21
7
  0
LINE
  8
0
 10
767.846
 20
7
 11
771.057
 21
7
  0
LINE
  8
0
 10
771.057
 20
7
 11
771.057
 21
5
  0
LINE
  8
0
 10
771.057
 20
5
 11
770
 21
5
  0
LINE
  8
0
 10
770
 20
5
 11
770
 21
2
  0
LINE
  8
0
 10
770
 20
2
 11
767.846
 21
2
  0
LINE
  8
0
 10
767.846
 20
-7
 11
767.846
 21
-2
  0
LINE
  8
0
 10
767.846
 20
-2
 11
770
 21
-2
  0
LINE
  8
0
 10
770
 20
-2
 11
770
 21
-5
  0
LINE
  8
0
 10
770
 20
-5
 11
771.057
 21
-5
  0
LINE
  8
0
 10
771.057
 20
-5
 11
771.057
 21
-7
  0
LINE
  8
0
 10
771.057
 20
-7
 11
767.846
 21
-7
  0
LINE
  8
0
 10
794.438
 20
-27.9469
 11
793.723
 21
-27.7145
  0
LINE
  8
0
 10
793.723
 20
-27.7145
 11
793.088
 21
-27.3115
  0
LINE
  8
0
 10
793.088
 20
-27.3115
 11
792.573
 21
-26.7634
  0
LINE
  8
0
 10
792.573
 20
-26.7634
 11
792.211
 21
-26.1044
  0
LINE
  8
0
 10
792.211
 20
-26.1044
 11
792.024
 21
-25.376
  0
LINE
  8
0
 10
792.024
 20
-25.376
 11
792.024
 21
-24.624
  0
LINE
  8
0
 10
792.024
 20
-24.624
 11
792.211
 21
-23.8956
  0
LINE
  8
0
 10
792.211
 20
-23.8956
 11
792.573
 21
-23.2366
  0
LINE
  8
0
 10
792.573
 20
-23.2366
 11
793.088
 21
-22.6884
  0
LINE
  8
0
 10
793.088
 20
-22.6884
 11
793.723
 21
-22.2855
  0
LINE
  8
0
 10
793.723
 20
-22.2855
 11
794.438
 21
-22.0531
  0
LINE
  8
0
 10
794.438
 20
-22.0531
 11
795.188
 21
-22.0059
  0
LINE
  8
0
 10
795.188
 20
-22.0059
 11
795.927
 21
-22.1468
  0
LINE
  8
0
 10
795.927
 20
-22.1468
 11
796.607
 21
-22.467
  0
LINE
  8
0
 10
796.607
 20
-22.467
 11
797.187
 21
-22.9464
  0
LINE
  8
0
 10
797.187
 20
-22.9464
 11
797.629
 21
-23.5547
  0
LINE
  8
0
 10
797.629
 20
-23.5547
 11
797.906
 21
-24.2539
  0
LINE
  8
0
 10
797.906
 20
-24.2539
 11
798
 21
-25
  0
LINE
  8
0
 10
798
 20
-25
 11
797.906
 21
-25.7461
  0
LINE
  8
0
 10
797.906
 20
-25.7461
 11
797.629
 21
-26.4453
  0
LINE
  8
0
 10
797.629
 20
-26.4453
 11
797.187
 21
-27.0536
  0
LINE
  8
0
 10
797.187
 20
-27.0536
 11
796.607
 21
-27.533
  0
LINE
  8
0
 10
796.607
 20
-27.533
 11
795.927
 21
-27.8532
  0
LINE
  8
0
 10
795.927
 20
-27.8532
 11
795.188
 21
-27.9941
  0
LINE
  8
0
 10
795.188
 20
-27.9941
 11
794.438
 21
-27.9469
  0
LINE
  8
0
 10
1521.24
 20
-19.8429
 11
1522.41
 21
-19.3815
  0
LINE
  8
0
 10
1522.41
 20
-19.3815
 11
1523.42
 21
-18.6448
  0
LINE
  8
0
 10
1523.42
 20
-18.6448
 11
1524.22
 21
-17.6791
  0
LINE
  8
0
 10
1524.22
 20
-17.6791
 11
1524.76
 21
-16.5451
  0
LINE
  8
0
 10
1524.76
 20
-16.5451
 11
1525
 21
-15
  0
LINE
  8
0
 10
1525
 20
-15
 11
1525
 21
15
  0
LINE
  8
0
 10
1525
 20
15
 11
1524.84
 21
16.2435
  0
LINE
  8
0
 10
1524.84
 20
16.2435
 11
1524.38
 21
17.4088
  0
LINE
  8
0
 10
1524.38
 20
17.4088
 11
1523.64
 21
18.4227
  0
LINE
  8
0
 10
1523.64
 20
18.4227
 11
1522.68
 21
19.2216
  0
LINE
  8
0
 10
1522.68
 20
19.2216
 11
1521.55
 21
19.7553
  0
LINE
  8
0
 10
1521.55
 20
19.7553
 11
1520
 21
20
  0
LINE
  8
0
 10
1520
 20
20
 11
1500
 21
20
  0
LINE
  8
0
 10
1500
 20
20
 11
1499.68
 21
19.9601
  0
LINE
  8
0
 10
1499.68
 20
19.9601
 11
1502.32
 21
13.3049
  0
LINE
  8
0
 10
1502.32
 20
13.3049
 11
1502.48
 21
12
  0
LINE
  8
0
 10
1502.48
 20
12
 11
1510
 21
12
  0
LINE
  8
0
 10
1510
 20
12
 11
1510
 21
4
  0
LINE
  8
0
 10
1510
 20
4
 11
1503.49
 21
4
  0
LINE
  8
0
 10
1503.49
 20
4
 11
1503.62
 21
3
  0
LINE
  8
0
 10
1503.62
 20
3
 11
1500
 21
3
  0
LINE
  8
0
 10
1500
 20
3
 11
1500
 21
-9
  0
LINE
  8
0
 10
1500
 20
-9
 11
1502.86
 21
-9
  0
LINE
  8
0
 10
1502.86
 20
-9
 11
1502.32
 21
-13.3049
  0
LINE
  8
0
 10
1502.32
 20
-13.3049
 11
1499.69
 21
-19.9506
  0
LINE
  8
0
 10
1499.69
 20
-19.9506
 11
1500
 21
-20
  0
LINE
  8
0
 10
1500
 20
-20
 11
1520
 21
-20
  0
LINE
  8
0
 10
1520
 20
-20
 11
1521.24
 21
-19.8429
  0
LINE
  8
0
 10
1399.24
 20
-17.3429
 11
1400.41
 21
-16.8815
  0
LINE
  8
0
 10
1400.41
 20
-16.8815
 11
1401.42
 21
-16.1448
  0
LINE
  8
0
 10
1401.42
 20
-16.1448
 11
1402.22
 21
-15.1791
  0
LINE
  8
0
 10
1402.22
 20
-15.1791
 11
1402.76
 21
-14.0451
  0
LINE
  8
0
 10
1402.76
 20
-14.0451
 11
1403
 21
-12.5
  0
LINE
  8
0
 10
1403
 20
-12.5
 11
1403
 21
12.5
  0
LINE
  8
0
 10
1403
 20
12.5
 11
1402.84
 21
13.7435
  0
LINE
  8
0
 10
1402.84
 20
13.7435
 11
1402.38
 21
14.9088
  0
LINE
  8
0
 10
1402.38
 20
14.9088
 11
1401.64
 21
15.9227
  0
LINE
  8
0
 10
1401.64
 20
15.9227
 11
1400.68
 21
16.7216
  0
LINE
  8
0
 10
1400.68
 20
16.7216
 11
1399.55
 21
17.2553
  0
LINE
  8
0
 10
1399.55
 20
17.2553
 11
1398
 21
17.5
  0
LINE
  8
0
 10
1398
 20
17.5
 11
1348
 21
17.5
  0
LINE
  8
0
 10
1348
 20
17.5
 11
1346.76
 21
17.3429
  0
LINE
  8
0
 10
1346.76
 20
17.3429
 11
1345.59
 21
16.8815
  0
LINE
  8
0
 10
1345.59
 20
16.8815
 11
1344.58
 21
16.1448
  0
LINE
  8
0
 10
1344.58
 20
16.1448
 11
1343.78
 21
15.1791
  0
LINE
  8
0
 10
1343.78
 20
15.1791
 11
1343.24
 21
14.0451
  0
LINE
  8
0
 10
1343.24
 20
14.0451
 11
1343
 21
12.5
  0
LINE
  8
0
 10
1343
 20
12.5
 11
1343
 21
-12.5
  0
LINE
  8
0
 10
1343
 20
-12.5
 11
1343.16
 21
-13.7435
  0
LINE
  8
0
 10
1343.16
 20
-13.7435
 11
1343.62
 21
-14.9088
  0
LINE
  8
0
 10
1343.62
 20
-14.9088
 11
1344.36
 21
-15.9227
  0
LINE
  8
0
 10
1344.36
 20
-15.9227
 11
1345.32
 21
-16.7216
  0
LINE
  8
0
 10
1345.32
 20
-16.7216
 11
1346.45
 21
-17.2553
  0
LINE
  8
0
 10
1346.45
 20
-17.2553
 11
1348
 21
-17.5
  0
LINE
  8
0
 10
1348
 20
-17.5
 11
1398
 21
-17.5
  0
LINE
  8
0
 10
1398
 20
-17.5
 11
1399.24
 21
-17.3429
  0
LINE
  8
0
 10
1801.24
 20
-17.3429
 11
1802.41
 21
-16.8815
  0
LINE
  8
0
 10
1802.41
 20
-16.8815
 11
1803.42
 21
-16.1448
  0
LINE
  8
0
 10
1803.42
 20
-16.1448
 11
1804.22
 21
-15.1791
  0
LINE
  8
0
 10
1804.22
 20
-15.1791
 11
1804.76
 21
-14.0451
  0
LINE
  8
0
 10
1804.76
 20
-14.0451
 11
1805
 21
-12.5
  0
LINE
  8
0
 10
1805
 20
-12.5
 11
1805
 21
12.5
  0
LINE
  8
0
 10
1805
 20
12.5
 11
1804.84
 21
13.7435
  0
LINE
  8
0
 10
1804.84
 20
13.7435
 11
1804.38
 21
14.9088
  0
LINE
  8
0
 10
1804.38
 20
14.9088
 11
1803.64
 21
15.9227
  0
LINE
  8
0
 10
1803.64
 20
15.9227
 11
1802.68
 21
16.7216
  0
LINE
  8
0
 10
1802.68
 20
16.7216
 11
1801.55
 21
17.2553
  0
LINE
  8
0
 10
1801.55
 20
17.2553
 11
1800
 21
17.5
  0
LINE
  8
0
 10
1800
 20
17.5
 11
1700.66
 21
17.5
  0
LINE
  8
0
 10
1700.66
 20
17.5
 11
1702.32
 21
13.3049
  0
LINE
  8
0
 10
1702.32
 20
13.3049
 11
1702.48
 21
12
  0
LINE
  8
0
 10
1702.48
 20
12
 11
1710
 21
12
  0
LINE
  8
0
 10
1710
 20
12
 11
1710
 21
4
  0
LINE
  8
0
 10
1710
 20
4
 11
1703.49
 21
4
  0
LINE
  8
0
 10
1703.49
 20
4
 11
1703.62
 21
3
  0
LINE
  8
0
 10
1703.62
 20
3
 11
1700
 21
3
  0
LINE
  8
0
 10
1700
 20
3
 11
1700
 21
-9
  0
LINE
  8
0
 10
1700
 20
-9
 11
1702.86
 21
-9
  0
LINE
  8
0
 10
1702.86
 20
-9
 11
1702.32
 21
-13.3049
  0
LINE
  8
0
 10
1702.32
 20
-13.3049
 11
1700.66
 21
-17.5
  0
LINE
  8
0
 10
1700.66
 20
-17.5
 11
1800
 21
-17.5
  0
LINE
  8
0
 10
1800
 20
-17.5
 11
1801.24
 21
-17.3429
  0
LINE
  8
0
 10
510
 20
12
 11
502.484
 21
12
  0
LINE
  8
0
 10
502.484
 20
12
 11
503.495
 21
4
  0
LINE
  8
0
 10
503.495
 20
4
 11
510
 21
4
  0
LINE
  8
0
 10
510
 20
4
 11
510
 21
12
  0
LINE
  8
0
 10
921.243
 20
-7.34291
 11
922.409
 21
-6.88153
  0
LINE
  8
0
 10
922.409
 20
-6.88153
 11
923.423
 21
-6.14484
  0
LINE
  8
0
 10
923.423
 20
-6.14484
 11
924.222
 21
-5.17914
  0
LINE
  8
0
 10
924.222
 20
-5.17914
 11
924.755
 21
-4.04509
  0
LINE
  8
0
 10
924.755
 20
-4.04509
 11
925
 21
-2.5
  0
LINE
  8
0
 10
925
 20
-2.5
 11
925
 21
2.5
  0
LINE
  8
0
 10
925
 20
2.5
 11
924.843
 21
3.74345
  0
LINE
  8
0
 10
924.843
 20
3.74345
 11
924.382
 21
4.90877
  0
LINE
  8
0
 10
924.382
 20
4.90877
 11
923.645
 21
5.92273
  0
LINE
  8
0
 10
923.645
 20
5.92273
 11
922.679
 21
6.72163
  0
LINE
  8
0
 10
922.679
 20
6.72163
 11
921.545
 21
7.25528
  0
LINE
  8
0
 10
921.545
 20
7.25528
 11
920
 21
7.5
  0
LINE
  8
0
 10
920
 20
7.5
 11
910
 21
7.5
  0
LINE
  8
0
 10
910
 20
7.5
 11
910
 21
4
  0
LINE
  8
0
 10
910
 20
4
 11
903.495
 21
4
  0
LINE
  8
0
 10
903.495
 20
4
 11
903.621
 21
3
  0
LINE
  8
0
 10
903.621
 20
3
 11
900
 21
3
  0
LINE
  8
0
 10
900
 20
3
 11
900
 21
-7.5
  0
LINE
  8
0
 10
900
 20
-7.5
 11
920
 21
-7.5
  0
LINE
  8
0
 10
920
 20
-7.5
 11
921.243
 21
-7.34291
  0
LINE
  8
0
 10
512
 20
-10.5
 11
502.674
 21
-10.5
  0
LINE
  8
0
 10
502.674
 20
-10.5
 11
502.319
 21
-13.3049
  0
LINE
  8
0
 10
502.319
 20
-13.3049
 11
502.242
 21
-13.5
  0
LINE
  8
0
 10
502.242
 20
-13.5
 11
512
 21
-13.5
  0
LINE
  8
0
 10
512
 20
-13.5
 11
512
 21
-10.5
  0
ENDSEC
  0
SECTION
  2
OBJECTS
  0
DICTIONARY
  0
ENDSEC
  0
EOF
