  0
SECTION
  2
BLOCKS
  0
ENDSEC
  0
SECTION
  2
ENTITIES
  0
LINE
  8
0
 10
200.005
 20
37.5
 11
76.995
 21
37.5
  0
LINE
  8
0
 10
76.995
 20
37.5
 11
76.995
 21
21
  0
LINE
  8
0
 10
76.995
 20
21
 11
72
 21
21
  0
LINE
  8
0
 10
72
 20
21
 11
72
 21
-21
  0
LINE
  8
0
 10
72
 20
-21
 11
76.995
 21
-21
  0
LINE
  8
0
 10
76.995
 20
-21
 11
76.995
 21
-37.5
  0
LINE
  8
0
 10
76.995
 20
-37.5
 11
200.005
 21
-37.5
  0
LINE
  8
0
 10
200.005
 20
-37.5
 11
200.005
 21
37.5
  0
LINE
  8
0
 10
74.5
 20
-14.25
 11
74.5
 21
14.25
  0
LINE
  8
0
 10
74.5
 20
14.25
 11
76.995
 21
14.25
  0
LINE
  8
0
 10
76.995
 20
14.25
 11
76.995
 21
-14.25
  0
LINE
  8
0
 10
76.995
 20
-14.25
 11
74.5
 21
-14.25
  0
LINE
  8
0
 10
-3
 20
-8.49666
 11
-2.27446
 21
-7.64052
  0
LINE
  8
0
 10
-2.27446
 20
-7.64052
 11
-0.716476
 21
-4.40848
  0
LINE
  8
0
 10
-0.716476
 20
-4.40848
 11
-0.0019989
 21
-0.00498962
  0
LINE
  8
0
 10
-0.0019989
 20
-0.00498962
 11
-0.0019989
 21
0.00498962
  0
LINE
  8
0
 10
-0.0019989
 20
0.00498962
 11
-0.460617
 21
3.54883
  0
LINE
  8
0
 10
-0.460617
 20
3.54883
 11
-1.80765
 21
6.86998
  0
LINE
  8
0
 10
-1.80765
 20
6.86998
 11
-3
 21
8.47203
  0
LINE
  8
0
 10
-3
 20
8.47203
 11
-3
 21
34.9309
  0
LINE
  8
0
 10
-3
 20
34.9309
 11
-99
 21
34.9309
  0
LINE
  8
0
 10
-99
 20
34.9309
 11
-99
 21
-34.9309
  0
LINE
  8
0
 10
-99
 20
-34.9309
 11
-3
 21
-34.9309
  0
LINE
  8
0
 10
-3
 20
-34.9309
 11
-3
 21
-8.49666
  0
LINE
  8
0
 10
1569.24
 20
-19.8429
 11
1570.41
 21
-19.3815
  0
LINE
  8
0
 10
1570.41
 20
-19.3815
 11
1571.42
 21
-18.6448
  0
LINE
  8
0
 10
1571.42
 20
-18.6448
 11
1572.22
 21
-17.6791
  0
LINE
  8
0
 10
1572.22
 20
-17.6791
 11
1572.76
 21
-16.5451
  0
LINE
  8
0
 10
1572.76
 20
-16.5451
 11
1573
 21
-15
  0
LINE
  8
0
 10
1573
 20
-15
 11
1573
 21
15
  0
LINE
  8
0
 10
1573
 20
15
 11
1572.84
 21
16.2435
  0
LINE
  8
0
 10
1572.84
 20
16.2435
 11
1572.38
 21
17.4088
  0
LINE
  8
0
 10
1572.38
 20
17.4088
 11
1571.64
 21
18.4227
  0
LINE
  8
0
 10
1571.64
 20
18.4227
 11
1570.68
 21
19.2216
  0
LINE
  8
0
 10
1570.68
 20
19.2216
 11
1569.55
 21
19.7553
  0
LINE
  8
0
 10
1569.55
 20
19.7553
 11
1568
 21
20
  0
LINE
  8
0
 10
1568
 20
20
 11
1528
 21
20
  0
LINE
  8
0
 10
1528
 20
20
 11
1526.76
 21
19.8429
  0
LINE
  8
0
 10
1526.76
 20
19.8429
 11
1525.59
 21
19.3815
  0
LINE
  8
0
 10
1525.59
 20
19.3815
 11
1524.58
 21
18.6448
  0
LINE
  8
0
 10
1524.58
 20
18.6448
 11
1523.78
 21
17.6791
  0
LINE
  8
0
 10
1523.78
 20
17.6791
 11
1523.24
 21
16.5451
  0
LINE
  8
0
 10
1523.24
 20
16.5451
 11
1523
 21
15
  0
LINE
  8
0
 10
1523
 20
15
 11
1523
 21
-15
  0
LINE
  8
0
 10
1523
 20
-15
 11
1523.16
 21
-16.2435
  0
LINE
  8
0
 10
1523.16
 20
-16.2435
 11
1523.62
 21
-17.4088
  0
LINE
  8
0
 10
1523.62
 20
-17.4088
 11
1524.36
 21
-18.4227
  0
LINE
  8
0
 10
1524.36
 20
-18.4227
 11
1525.32
 21
-19.2216
  0
LINE
  8
0
 10
1525.32
 20
-19.2216
 11
1526.45
 21
-19.7553
  0
LINE
  8
0
 10
1526.45
 20
-19.7553
 11
1528
 21
-20
  0
LINE
  8
0
 10
1528
 20
-20
 11
1568
 21
-20
  0
LINE
  8
0
 10
1568
 20
-20
 11
1569.24
 21
-19.8429
  0
LINE
  8
0
 10
1552.42
 20
-12.005
 11
1552.42
 21
-9
  0
LINE
  8
0
 10
1552.42
 20
-9
 11
1541.9
 21
-9
  0
LINE
  8
0
 10
1541.9
 20
-9
 11
1541.9
 21
-11.8487
  0
LINE
  8
0
 10
1541.9
 20
-11.8487
 11
1539.09
 21
-11.4177
  0
LINE
  8
0
 10
1539.09
 20
-11.4177
 11
1536.27
 21
-10.1369
  0
LINE
  8
0
 10
1536.27
 20
-10.1369
 11
1533.87
 21
-8.21956
  0
LINE
  8
0
 10
1533.87
 20
-8.21956
 11
1532.77
 21
-6.75
  0
LINE
  8
0
 10
1532.77
 20
-6.75
 11
1538.08
 21
-6.75
  0
LINE
  8
0
 10
1538.08
 20
-6.75
 11
1538.08
 21
-6
  0
LINE
  8
0
 10
1538.08
 20
-6
 11
1539.75
 21
-6
  0
LINE
  8
0
 10
1539.75
 20
-6
 11
1539.75
 21
-3
  0
LINE
  8
0
 10
1539.75
 20
-3
 11
1538.08
 21
-3
  0
LINE
  8
0
 10
1538.08
 20
-3
 11
1538.08
 21
-2.75
  0
LINE
  8
0
 10
1538.08
 20
-2.75
 11
1530.87
 21
-2.75
  0
LINE
  8
0
 10
1530.87
 20
-2.75
 11
1530.51
 21
-0.00498962
  0
LINE
  8
0
 10
1530.51
 20
-0.00498962
 11
1530.51
 21
0.00498962
  0
LINE
  8
0
 10
1530.51
 20
0.00498962
 11
1530.96
 21
2.75
  0
LINE
  8
0
 10
1530.96
 20
2.75
 11
1538.08
 21
2.75
  0
LINE
  8
0
 10
1538.08
 20
2.75
 11
1538.08
 21
3
  0
LINE
  8
0
 10
1538.08
 20
3
 11
1545.18
 21
3
  0
LINE
  8
0
 10
1545.18
 20
3
 11
1545.18
 21
6
  0
LINE
  8
0
 10
1545.18
 20
6
 11
1538.08
 21
6
  0
LINE
  8
0
 10
1538.08
 20
6
 11
1538.08
 21
6.75
  0
LINE
  8
0
 10
1538.08
 20
6.75
 11
1532.71
 21
6.75
  0
LINE
  8
0
 10
1532.71
 20
6.75
 11
1534.42
 21
8.75261
  0
LINE
  8
0
 10
1534.42
 20
8.75261
 11
1536.94
 21
10.5207
  0
LINE
  8
0
 10
1536.94
 20
10.5207
 11
1539.83
 21
11.628
  0
LINE
  8
0
 10
1539.83
 20
11.628
 11
1541.9
 21
11.8803
  0
LINE
  8
0
 10
1541.9
 20
11.8803
 11
1541.9
 21
9
  0
LINE
  8
0
 10
1541.9
 20
9
 11
1552.42
 21
9
  0
LINE
  8
0
 10
1552.42
 20
9
 11
1552.42
 21
12.005
  0
LINE
  8
0
 10
1552.42
 20
12.005
 11
1555.29
 21
12.005
  0
LINE
  8
0
 10
1555.29
 20
12.005
 11
1559.12
 21
11.4177
  0
LINE
  8
0
 10
1559.12
 20
11.4177
 11
1561.94
 21
10.1369
  0
LINE
  8
0
 10
1561.94
 20
10.1369
 11
1564.34
 21
8.21956
  0
LINE
  8
0
 10
1564.34
 20
8.21956
 11
1566.16
 21
5.78604
  0
LINE
  8
0
 10
1566.16
 20
5.78604
 11
1567.31
 21
2.98927
  0
LINE
  8
0
 10
1567.31
 20
2.98927
 11
1567.7
 21
0.00498962
  0
LINE
  8
0
 10
1567.7
 20
0.00498962
 11
1567.7
 21
-0.00498962
  0
LINE
  8
0
 10
1567.7
 20
-0.00498962
 11
1567.09
 21
-3.7132
  0
LINE
  8
0
 10
1567.09
 20
-3.7132
 11
1565.77
 21
-6.43491
  0
LINE
  8
0
 10
1565.77
 20
-6.43491
 11
1563.78
 21
-8.75261
  0
LINE
  8
0
 10
1563.78
 20
-8.75261
 11
1561.27
 21
-10.5207
  0
LINE
  8
0
 10
1561.27
 20
-10.5207
 11
1558.37
 21
-11.628
  0
LINE
  8
0
 10
1558.37
 20
-11.628
 11
1555.29
 21
-12.005
  0
LINE
  8
0
 10
1555.29
 20
-12.005
 11
1552.42
 21
-12.005
  0
LINE
  8
0
 10
1801.24
 20
-17.3429
 11
1802.41
 21
-16.8815
  0
LINE
  8
0
 10
1802.41
 20
-16.8815
 11
1803.42
 21
-16.1448
  0
LINE
  8
0
 10
1803.42
 20
-16.1448
 11
1804.22
 21
-15.1791
  0
LINE
  8
0
 10
1804.22
 20
-15.1791
 11
1804.76
 21
-14.0451
  0
LINE
  8
0
 10
1804.76
 20
-14.0451
 11
1805
 21
-12.5
  0
LINE
  8
0
 10
1805
 20
-12.5
 11
1805
 21
12.5
  0
LINE
  8
0
 10
1805
 20
12.5
 11
1804.84
 21
13.7435
  0
LINE
  8
0
 10
1804.84
 20
13.7435
 11
1804.38
 21
14.9088
  0
LINE
  8
0
 10
1804.38
 20
14.9088
 11
1803.64
 21
15.9227
  0
LINE
  8
0
 10
1803.64
 20
15.9227
 11
1802.68
 21
16.7216
  0
LINE
  8
0
 10
1802.68
 20
16.7216
 11
1801.55
 21
17.2553
  0
LINE
  8
0
 10
1801.55
 20
17.2553
 11
1800
 21
17.5
  0
LINE
  8
0
 10
1800
 20
17.5
 11
1700
 21
17.5
  0
LINE
  8
0
 10
1700
 20
17.5
 11
1698.76
 21
17.3429
  0
LINE
  8
0
 10
1698.76
 20
17.3429
 11
1697.59
 21
16.8815
  0
LINE
  8
0
 10
1697.59
 20
16.8815
 11
1696.58
 21
16.1448
  0
LINE
  8
0
 10
1696.58
 20
16.1448
 11
1695.78
 21
15.1791
  0
LINE
  8
0
 10
1695.78
 20
15.1791
 11
1695.24
 21
14.0451
  0
LINE
  8
0
 10
1695.24
 20
14.0451
 11
1695
 21
12.5
  0
LINE
  8
0
 10
1695
 20
12.5
 11
1695
 21
-12.5
  0
LINE
  8
0
 10
1695
 20
-12.5
 11
1695.16
 21
-13.7435
  0
LINE
  8
0
 10
1695.16
 20
-13.7435
 11
1695.62
 21
-14.9088
  0
LINE
  8
0
 10
1695.62
 20
-14.9088
 11
1696.36
 21
-15.9227
  0
LINE
  8
0
 10
1696.36
 20
-15.9227
 11
1697.32
 21
-16.7216
  0
LINE
  8
0
 10
1697.32
 20
-16.7216
 11
1698.45
 21
-17.2553
  0
LINE
  8
0
 10
1698.45
 20
-17.2553
 11
1700
 21
-17.5
  0
LINE
  8
0
 10
1700
 20
-17.5
 11
1800
 21
-17.5
  0
LINE
  8
0
 10
1800
 20
-17.5
 11
1801.24
 21
-17.3429
  0
LINE
  8
0
 10
1701
 20
-14.25
 11
1701
 21
14.25
  0
LINE
  8
0
 10
1701
 20
14.25
 11
1714.5
 21
14.25
  0
LINE
  8
0
 10
1714.5
 20
14.25
 11
1714.5
 21
-14.25
  0
LINE
  8
0
 10
1714.5
 20
-14.25
 11
1701
 21
-14.25
  0
LINE
  8
0
 10
1371
 20
9
 11
1370.84
 21
10.2435
  0
LINE
  8
0
 10
1370.84
 20
10.2435
 11
1370.38
 21
11.4088
  0
LINE
  8
0
 10
1370.38
 20
11.4088
 11
1369.64
 21
12.4227
  0
LINE
  8
0
 10
1369.64
 20
12.4227
 11
1368.68
 21
13.2216
  0
LINE
  8
0
 10
1368.68
 20
13.2216
 11
1367.55
 21
13.7553
  0
LINE
  8
0
 10
1367.55
 20
13.7553
 11
1366
 21
14
  0
LINE
  8
0
 10
1366
 20
14
 11
1359.66
 21
14
  0
LINE
  8
0
 10
1359.66
 20
14
 11
1362.52
 21
13.5575
  0
LINE
  8
0
 10
1362.52
 20
13.5575
 11
1365.83
 21
12.0367
  0
LINE
  8
0
 10
1365.83
 20
12.0367
 11
1368.65
 21
9.75978
  0
LINE
  8
0
 10
1368.65
 20
9.75978
 11
1370.8
 21
6.86998
  0
LINE
  8
0
 10
1370.8
 20
6.86998
 11
1371
 21
6.38518
  0
LINE
  8
0
 10
1371
 20
6.38518
 11
1371
 21
9
  0
LINE
  8
0
 10
1344.48
 20
-8.75
 11
1344.61
 21
-8.75
  0
LINE
  8
0
 10
1344.61
 20
-8.75
 11
1344.61
 21
-11.755
  0
LINE
  8
0
 10
1344.61
 20
-11.755
 11
1358.12
 21
-11.755
  0
LINE
  8
0
 10
1358.12
 20
-11.755
 11
1361.15
 21
-11.3858
  0
LINE
  8
0
 10
1361.15
 20
-11.3858
 11
1363.98
 21
-10.3016
  0
LINE
  8
0
 10
1363.98
 20
-10.3016
 11
1366.44
 21
-8.57037
  0
LINE
  8
0
 10
1366.44
 20
-8.57037
 11
1368.38
 21
-6.30095
  0
LINE
  8
0
 10
1368.38
 20
-6.30095
 11
1369.68
 21
-3.63594
  0
LINE
  8
0
 10
1369.68
 20
-3.63594
 11
1370.28
 21
-0.00498962
  0
LINE
  8
0
 10
1370.28
 20
-0.00498962
 11
1370.28
 21
0.00498962
  0
LINE
  8
0
 10
1370.28
 20
0.00498962
 11
1369.89
 21
2.92709
  0
LINE
  8
0
 10
1369.89
 20
2.92709
 11
1368.77
 21
5.66559
  0
LINE
  8
0
 10
1368.77
 20
5.66559
 11
1366.98
 21
8.04842
  0
LINE
  8
0
 10
1366.98
 20
8.04842
 11
1364.63
 21
9.92584
  0
LINE
  8
0
 10
1364.63
 20
9.92584
 11
1361.88
 21
11.1799
  0
LINE
  8
0
 10
1361.88
 20
11.1799
 11
1358.12
 21
11.755
  0
LINE
  8
0
 10
1358.12
 20
11.755
 11
1344.61
 21
11.755
  0
LINE
  8
0
 10
1344.61
 20
11.755
 11
1344.61
 21
8.75
  0
LINE
  8
0
 10
1344.61
 20
8.75
 11
1344.48
 21
8.75
  0
LINE
  8
0
 10
1344.48
 20
8.75
 11
1344.48
 21
11.755
  0
LINE
  8
0
 10
1344.48
 20
11.755
 11
1335.24
 21
11.755
  0
LINE
  8
0
 10
1335.24
 20
11.755
 11
1332.42
 21
11.3858
  0
LINE
  8
0
 10
1332.42
 20
11.3858
 11
1329.77
 21
10.3016
  0
LINE
  8
0
 10
1329.77
 20
10.3016
 11
1327.47
 21
8.57037
  0
LINE
  8
0
 10
1327.47
 20
8.57037
 11
1326.01
 21
6.75
  0
LINE
  8
0
 10
1326.01
 20
6.75
 11
1335.28
 21
6.75
  0
LINE
  8
0
 10
1335.28
 20
6.75
 11
1335.28
 21
2.75
  0
LINE
  8
0
 10
1335.28
 20
2.75
 11
1331.56
 21
2.75
  0
LINE
  8
0
 10
1331.56
 20
2.75
 11
1331.56
 21
4.69656
  0
LINE
  8
0
 10
1331.56
 20
4.69656
 11
1324.92
 21
4.69656
  0
LINE
  8
0
 10
1324.92
 20
4.69656
 11
1324.44
 21
3.63594
  0
LINE
  8
0
 10
1324.44
 20
3.63594
 11
1323.88
 21
0.00498962
  0
LINE
  8
0
 10
1323.88
 20
0.00498962
 11
1323.88
 21
-0.00498962
  0
LINE
  8
0
 10
1323.88
 20
-0.00498962
 11
1324.24
 21
-2.92709
  0
LINE
  8
0
 10
1324.24
 20
-2.92709
 11
1324.92
 21
-4.70781
  0
LINE
  8
0
 10
1324.92
 20
-4.70781
 11
1331.56
 21
-4.70781
  0
LINE
  8
0
 10
1331.56
 20
-4.70781
 11
1331.56
 21
-2.75
  0
LINE
  8
0
 10
1331.56
 20
-2.75
 11
1335.28
 21
-2.75
  0
LINE
  8
0
 10
1335.28
 20
-2.75
 11
1335.28
 21
-6.75
  0
LINE
  8
0
 10
1335.28
 20
-6.75
 11
1326.05
 21
-6.75
  0
LINE
  8
0
 10
1326.05
 20
-6.75
 11
1326.96
 21
-8.04842
  0
LINE
  8
0
 10
1326.96
 20
-8.04842
 11
1329.16
 21
-9.92584
  0
LINE
  8
0
 10
1329.16
 20
-9.92584
 11
1331.73
 21
-11.1799
  0
LINE
  8
0
 10
1331.73
 20
-11.1799
 11
1335.24
 21
-11.755
  0
LINE
  8
0
 10
1335.24
 20
-11.755
 11
1344.48
 21
-11.755
  0
LINE
  8
0
 10
1344.48
 20
-11.755
 11
1344.48
 21
-8.75
  0
LINE
  8
0
 10
1367.24
 20
-13.8429
 11
1368.41
 21
-13.3815
  0
LINE
  8
0
 10
1368.41
 20
-13.3815
 11
1369.42
 21
-12.6448
  0
LINE
  8
0
 10
1369.42
 20
-12.6448
 11
1370.22
 21
-11.6791
  0
LINE
  8
0
 10
1370.22
 20
-11.6791
 11
1370.76
 21
-10.5451
  0
LINE
  8
0
 10
1370.76
 20
-10.5451
 11
1371
 21
-9
  0
LINE
  8
0
 10
1371
 20
-9
 11
1371
 21
-6.26421
  0
LINE
  8
0
 10
1371
 20
-6.26421
 11
1370.34
 21
-7.64052
  0
LINE
  8
0
 10
1370.34
 20
-7.64052
 11
1368
 21
-10.3928
  0
LINE
  8
0
 10
1368
 20
-10.3928
 11
1365.04
 21
-12.4924
  0
LINE
  8
0
 10
1365.04
 20
-12.4924
 11
1361.64
 21
-13.8073
  0
LINE
  8
0
 10
1361.64
 20
-13.8073
 11
1360.08
 21
-14
  0
LINE
  8
0
 10
1360.08
 20
-14
 11
1366
 21
-14
  0
LINE
  8
0
 10
1366
 20
-14
 11
1367.24
 21
-13.8429
  0
ENDSEC
  0
SECTION
  2
OBJECTS
  0
DICTIONARY
  0
ENDSEC
  0
EOF
