<?xml version="1.0" standalone="no"?>
<!DOCTYPE svg PUBLIC "-//W3C//DTD SVG 1.1//EN" "http://www.w3.org/Graphics/SVG/1.1/DTD/svg11.dtd">
<svg width="48mm" height="28mm" viewBox="-77 -14 48 28" xmlns="http://www.w3.org/2000/svg" version="1.1">
<title>OpenSCAD Model</title>
<path d="
M -29,-9 L -29.1571,-10.2435 L -29.6185,-11.4088 L -30.3552,-12.4227 L -31.3209,-13.2216 L -32.4549,-13.7553
 L -34,-14 L -40.3394,-14 L -37.4777,-13.5575 L -34.1668,-12.0367 L -31.3474,-9.75978 L -29.1966,-6.86998
 L -29,-6.38518 z
M -55.5236,8.75 L -55.3937,8.75 L -55.3937,11.755 L -41.8772,11.755 L -38.8548,11.3858 L -36.0223,10.3016
 L -33.5577,8.57037 L -31.6159,6.30095 L -30.3188,3.63594 L -29.724,0.00498962 L -29.724,-0.00498962 L -30.1058,-2.92709
 L -31.2272,-5.66559 L -33.0179,-8.04842 L -35.3652,-9.92584 L -38.1216,-11.1799 L -41.8772,-11.755 L -55.3937,-11.755
 L -55.3937,-8.75 L -55.5236,-8.75 L -55.5236,-11.755 L -64.756,-11.755 L -67.5812,-11.3858 L -70.2288,-10.3016
 L -72.5326,-8.57037 L -73.9885,-6.75 L -64.7232,-6.75 L -64.7232,-2.75 L -68.4444,-2.75 L -68.4444,-4.69656
 L -75.0776,-4.69656 L -75.5602,-3.63594 L -76.1162,-0.00498962 L -76.1162,0.00498962 L -75.7593,2.92709 L -75.0776,4.70781
 L -68.4444,4.70781 L -68.4444,2.75 L -64.7232,2.75 L -64.7232,6.75 L -73.9493,6.75 L -73.0372,8.04842
 L -70.8431,9.92584 L -68.2665,11.1799 L -64.756,11.755 L -55.5236,11.755 z
M -32.7565,13.8429 L -31.5912,13.3815 L -30.5773,12.6448 L -29.7784,11.6791 L -29.2447,10.5451 L -29,9
 L -29,6.26421 L -29.6634,7.64052 L -31.9959,10.3928 L -34.9562,12.4924 L -38.3584,13.8073 L -39.921,14
 L -34,14 z
" stroke="black" fill="lightgray" stroke-width="0.5"/>
</svg>
