  0
SECTION
  2
BLOCKS
  0
ENDSEC
  0
SECTION
  2
ENTITIES
  0
LINE
  8
0
 10
200.005
 20
37.5
 11
76.995
 21
37.5
  0
LINE
  8
0
 10
76.995
 20
37.5
 11
76.995
 21
21
  0
LINE
  8
0
 10
76.995
 20
21
 11
72
 21
21
  0
LINE
  8
0
 10
72
 20
21
 11
72
 21
-21
  0
LINE
  8
0
 10
72
 20
-21
 11
76.995
 21
-21
  0
LINE
  8
0
 10
76.995
 20
-21
 11
76.995
 21
-37.5
  0
LINE
  8
0
 10
76.995
 20
-37.5
 11
200.005
 21
-37.5
  0
LINE
  8
0
 10
200.005
 20
-37.5
 11
200.005
 21
37.5
  0
LINE
  8
0
 10
74.5
 20
-14.25
 11
74.5
 21
14.25
  0
LINE
  8
0
 10
74.5
 20
14.25
 11
76.995
 21
14.25
  0
LINE
  8
0
 10
76.995
 20
14.25
 11
76.995
 21
-14.25
  0
LINE
  8
0
 10
76.995
 20
-14.25
 11
74.5
 21
-14.25
  0
LINE
  8
0
 10
-3
 20
-8.49666
 11
-2.27446
 21
-7.64052
  0
LINE
  8
0
 10
-2.27446
 20
-7.64052
 11
-0.716476
 21
-4.40848
  0
LINE
  8
0
 10
-0.716476
 20
-4.40848
 11
-0.0019989
 21
-0.00498962
  0
LINE
  8
0
 10
-0.0019989
 20
-0.00498962
 11
-0.0019989
 21
0.00498962
  0
LINE
  8
0
 10
-0.0019989
 20
0.00498962
 11
-0.460617
 21
3.54883
  0
LINE
  8
0
 10
-0.460617
 20
3.54883
 11
-1.80765
 21
6.86998
  0
LINE
  8
0
 10
-1.80765
 20
6.86998
 11
-3
 21
8.47203
  0
LINE
  8
0
 10
-3
 20
8.47203
 11
-3
 21
34.9309
  0
LINE
  8
0
 10
-3
 20
34.9309
 11
-99
 21
34.9309
  0
LINE
  8
0
 10
-99
 20
34.9309
 11
-99
 21
-34.9309
  0
LINE
  8
0
 10
-99
 20
-34.9309
 11
-3
 21
-34.9309
  0
LINE
  8
0
 10
-3
 20
-34.9309
 11
-3
 21
-8.49666
  0
LINE
  8
0
 10
1371.24
 20
-19.8429
 11
1372.41
 21
-19.3815
  0
LINE
  8
0
 10
1372.41
 20
-19.3815
 11
1373.42
 21
-18.6448
  0
LINE
  8
0
 10
1373.42
 20
-18.6448
 11
1374.22
 21
-17.6791
  0
LINE
  8
0
 10
1374.22
 20
-17.6791
 11
1374.76
 21
-16.5451
  0
LINE
  8
0
 10
1374.76
 20
-16.5451
 11
1375
 21
-15
  0
LINE
  8
0
 10
1375
 20
-15
 11
1375
 21
15
  0
LINE
  8
0
 10
1375
 20
15
 11
1374.84
 21
16.2435
  0
LINE
  8
0
 10
1374.84
 20
16.2435
 11
1374.38
 21
17.4088
  0
LINE
  8
0
 10
1374.38
 20
17.4088
 11
1373.64
 21
18.4227
  0
LINE
  8
0
 10
1373.64
 20
18.4227
 11
1372.68
 21
19.2216
  0
LINE
  8
0
 10
1372.68
 20
19.2216
 11
1371.55
 21
19.7553
  0
LINE
  8
0
 10
1371.55
 20
19.7553
 11
1370
 21
20
  0
LINE
  8
0
 10
1370
 20
20
 11
1320
 21
20
  0
LINE
  8
0
 10
1320
 20
20
 11
1318.76
 21
19.8429
  0
LINE
  8
0
 10
1318.76
 20
19.8429
 11
1317.59
 21
19.3815
  0
LINE
  8
0
 10
1317.59
 20
19.3815
 11
1316.58
 21
18.6448
  0
LINE
  8
0
 10
1316.58
 20
18.6448
 11
1315.78
 21
17.6791
  0
LINE
  8
0
 10
1315.78
 20
17.6791
 11
1315.24
 21
16.5451
  0
LINE
  8
0
 10
1315.24
 20
16.5451
 11
1315
 21
15
  0
LINE
  8
0
 10
1315
 20
15
 11
1315
 21
-15
  0
LINE
  8
0
 10
1315
 20
-15
 11
1315.16
 21
-16.2435
  0
LINE
  8
0
 10
1315.16
 20
-16.2435
 11
1315.62
 21
-17.4088
  0
LINE
  8
0
 10
1315.62
 20
-17.4088
 11
1316.36
 21
-18.4227
  0
LINE
  8
0
 10
1316.36
 20
-18.4227
 11
1317.32
 21
-19.2216
  0
LINE
  8
0
 10
1317.32
 20
-19.2216
 11
1318.45
 21
-19.7553
  0
LINE
  8
0
 10
1318.45
 20
-19.7553
 11
1320
 21
-20
  0
LINE
  8
0
 10
1320
 20
-20
 11
1370
 21
-20
  0
LINE
  8
0
 10
1370
 20
-20
 11
1371.24
 21
-19.8429
  0
LINE
  8
0
 10
1569.24
 20
-19.8429
 11
1570.41
 21
-19.3815
  0
LINE
  8
0
 10
1570.41
 20
-19.3815
 11
1571.42
 21
-18.6448
  0
LINE
  8
0
 10
1571.42
 20
-18.6448
 11
1572.22
 21
-17.6791
  0
LINE
  8
0
 10
1572.22
 20
-17.6791
 11
1572.76
 21
-16.5451
  0
LINE
  8
0
 10
1572.76
 20
-16.5451
 11
1573
 21
-15
  0
LINE
  8
0
 10
1573
 20
-15
 11
1573
 21
15
  0
LINE
  8
0
 10
1573
 20
15
 11
1572.84
 21
16.2435
  0
LINE
  8
0
 10
1572.84
 20
16.2435
 11
1572.38
 21
17.4088
  0
LINE
  8
0
 10
1572.38
 20
17.4088
 11
1571.64
 21
18.4227
  0
LINE
  8
0
 10
1571.64
 20
18.4227
 11
1570.68
 21
19.2216
  0
LINE
  8
0
 10
1570.68
 20
19.2216
 11
1569.55
 21
19.7553
  0
LINE
  8
0
 10
1569.55
 20
19.7553
 11
1568
 21
20
  0
LINE
  8
0
 10
1568
 20
20
 11
1528
 21
20
  0
LINE
  8
0
 10
1528
 20
20
 11
1526.76
 21
19.8429
  0
LINE
  8
0
 10
1526.76
 20
19.8429
 11
1525.59
 21
19.3815
  0
LINE
  8
0
 10
1525.59
 20
19.3815
 11
1524.58
 21
18.6448
  0
LINE
  8
0
 10
1524.58
 20
18.6448
 11
1523.78
 21
17.6791
  0
LINE
  8
0
 10
1523.78
 20
17.6791
 11
1523.24
 21
16.5451
  0
LINE
  8
0
 10
1523.24
 20
16.5451
 11
1523
 21
15
  0
LINE
  8
0
 10
1523
 20
15
 11
1523
 21
-15
  0
LINE
  8
0
 10
1523
 20
-15
 11
1523.16
 21
-16.2435
  0
LINE
  8
0
 10
1523.16
 20
-16.2435
 11
1523.62
 21
-17.4088
  0
LINE
  8
0
 10
1523.62
 20
-17.4088
 11
1524.36
 21
-18.4227
  0
LINE
  8
0
 10
1524.36
 20
-18.4227
 11
1525.32
 21
-19.2216
  0
LINE
  8
0
 10
1525.32
 20
-19.2216
 11
1526.45
 21
-19.7553
  0
LINE
  8
0
 10
1526.45
 20
-19.7553
 11
1528
 21
-20
  0
LINE
  8
0
 10
1528
 20
-20
 11
1568
 21
-20
  0
LINE
  8
0
 10
1568
 20
-20
 11
1569.24
 21
-19.8429
  0
LINE
  8
0
 10
1549.26
 20
-12.005
 11
1549.26
 21
-9
  0
LINE
  8
0
 10
1549.26
 20
-9
 11
1540.05
 21
-9
  0
LINE
  8
0
 10
1540.05
 20
-9
 11
1540.05
 21
-11.8177
  0
LINE
  8
0
 10
1540.05
 20
-11.8177
 11
1537.46
 21
-11.4177
  0
LINE
  8
0
 10
1537.46
 20
-11.4177
 11
1534.67
 21
-10.1369
  0
LINE
  8
0
 10
1534.67
 20
-10.1369
 11
1532.3
 21
-8.21956
  0
LINE
  8
0
 10
1532.3
 20
-8.21956
 11
1531.2
 21
-6.75
  0
LINE
  8
0
 10
1531.2
 20
-6.75
 11
1535.28
 21
-6.75
  0
LINE
  8
0
 10
1535.28
 20
-6.75
 11
1535.28
 21
-6
  0
LINE
  8
0
 10
1535.28
 20
-6
 11
1537.25
 21
-6
  0
LINE
  8
0
 10
1537.25
 20
-6
 11
1537.25
 21
-3
  0
LINE
  8
0
 10
1537.25
 20
-3
 11
1535.28
 21
-3
  0
LINE
  8
0
 10
1535.28
 20
-3
 11
1535.28
 21
-2.75
  0
LINE
  8
0
 10
1535.28
 20
-2.75
 11
1529.32
 21
-2.75
  0
LINE
  8
0
 10
1529.32
 20
-2.75
 11
1528.97
 21
-0.00498962
  0
LINE
  8
0
 10
1528.97
 20
-0.00498962
 11
1528.97
 21
0.00498962
  0
LINE
  8
0
 10
1528.97
 20
0.00498962
 11
1529.41
 21
2.75
  0
LINE
  8
0
 10
1529.41
 20
2.75
 11
1535.28
 21
2.75
  0
LINE
  8
0
 10
1535.28
 20
2.75
 11
1535.28
 21
3
  0
LINE
  8
0
 10
1535.28
 20
3
 11
1541.9
 21
3
  0
LINE
  8
0
 10
1541.9
 20
3
 11
1541.9
 21
6
  0
LINE
  8
0
 10
1541.9
 20
6
 11
1535.28
 21
6
  0
LINE
  8
0
 10
1535.28
 20
6
 11
1535.28
 21
6.75
  0
LINE
  8
0
 10
1535.28
 20
6.75
 11
1531.15
 21
6.75
  0
LINE
  8
0
 10
1531.15
 20
6.75
 11
1532.84
 21
8.75261
  0
LINE
  8
0
 10
1532.84
 20
8.75261
 11
1535.34
 21
10.5207
  0
LINE
  8
0
 10
1535.34
 20
10.5207
 11
1538.2
 21
11.628
  0
LINE
  8
0
 10
1538.2
 20
11.628
 11
1540.05
 21
11.8556
  0
LINE
  8
0
 10
1540.05
 20
11.8556
 11
1540.05
 21
9
  0
LINE
  8
0
 10
1540.05
 20
9
 11
1549.26
 21
9
  0
LINE
  8
0
 10
1549.26
 20
9
 11
1549.26
 21
12.005
  0
LINE
  8
0
 10
1549.26
 20
12.005
 11
1551.85
 21
12.005
  0
LINE
  8
0
 10
1551.85
 20
12.005
 11
1555.65
 21
11.4177
  0
LINE
  8
0
 10
1555.65
 20
11.4177
 11
1558.44
 21
10.1369
  0
LINE
  8
0
 10
1558.44
 20
10.1369
 11
1560.81
 21
8.21956
  0
LINE
  8
0
 10
1560.81
 20
8.21956
 11
1562.62
 21
5.78604
  0
LINE
  8
0
 10
1562.62
 20
5.78604
 11
1563.76
 21
2.98927
  0
LINE
  8
0
 10
1563.76
 20
2.98927
 11
1564.15
 21
0.00498962
  0
LINE
  8
0
 10
1564.15
 20
0.00498962
 11
1564.15
 21
-0.00498962
  0
LINE
  8
0
 10
1564.15
 20
-0.00498962
 11
1563.54
 21
-3.7132
  0
LINE
  8
0
 10
1563.54
 20
-3.7132
 11
1562.23
 21
-6.43491
  0
LINE
  8
0
 10
1562.23
 20
-6.43491
 11
1560.27
 21
-8.75261
  0
LINE
  8
0
 10
1560.27
 20
-8.75261
 11
1557.77
 21
-10.5207
  0
LINE
  8
0
 10
1557.77
 20
-10.5207
 11
1554.91
 21
-11.628
  0
LINE
  8
0
 10
1554.91
 20
-11.628
 11
1551.85
 21
-12.005
  0
LINE
  8
0
 10
1551.85
 20
-12.005
 11
1549.26
 21
-12.005
  0
LINE
  8
0
 10
1801.24
 20
-17.3429
 11
1802.41
 21
-16.8815
  0
LINE
  8
0
 10
1802.41
 20
-16.8815
 11
1803.42
 21
-16.1448
  0
LINE
  8
0
 10
1803.42
 20
-16.1448
 11
1804.22
 21
-15.1791
  0
LINE
  8
0
 10
1804.22
 20
-15.1791
 11
1804.76
 21
-14.0451
  0
LINE
  8
0
 10
1804.76
 20
-14.0451
 11
1805
 21
-12.5
  0
LINE
  8
0
 10
1805
 20
-12.5
 11
1805
 21
12.5
  0
LINE
  8
0
 10
1805
 20
12.5
 11
1804.84
 21
13.7435
  0
LINE
  8
0
 10
1804.84
 20
13.7435
 11
1804.38
 21
14.9088
  0
LINE
  8
0
 10
1804.38
 20
14.9088
 11
1803.64
 21
15.9227
  0
LINE
  8
0
 10
1803.64
 20
15.9227
 11
1802.68
 21
16.7216
  0
LINE
  8
0
 10
1802.68
 20
16.7216
 11
1801.55
 21
17.2553
  0
LINE
  8
0
 10
1801.55
 20
17.2553
 11
1800
 21
17.5
  0
LINE
  8
0
 10
1800
 20
17.5
 11
1700
 21
17.5
  0
LINE
  8
0
 10
1700
 20
17.5
 11
1698.76
 21
17.3429
  0
LINE
  8
0
 10
1698.76
 20
17.3429
 11
1697.59
 21
16.8815
  0
LINE
  8
0
 10
1697.59
 20
16.8815
 11
1696.58
 21
16.1448
  0
LINE
  8
0
 10
1696.58
 20
16.1448
 11
1695.78
 21
15.1791
  0
LINE
  8
0
 10
1695.78
 20
15.1791
 11
1695.24
 21
14.0451
  0
LINE
  8
0
 10
1695.24
 20
14.0451
 11
1695
 21
12.5
  0
LINE
  8
0
 10
1695
 20
12.5
 11
1695
 21
-12.5
  0
LINE
  8
0
 10
1695
 20
-12.5
 11
1695.16
 21
-13.7435
  0
LINE
  8
0
 10
1695.16
 20
-13.7435
 11
1695.62
 21
-14.9088
  0
LINE
  8
0
 10
1695.62
 20
-14.9088
 11
1696.36
 21
-15.9227
  0
LINE
  8
0
 10
1696.36
 20
-15.9227
 11
1697.32
 21
-16.7216
  0
LINE
  8
0
 10
1697.32
 20
-16.7216
 11
1698.45
 21
-17.2553
  0
LINE
  8
0
 10
1698.45
 20
-17.2553
 11
1700
 21
-17.5
  0
LINE
  8
0
 10
1700
 20
-17.5
 11
1800
 21
-17.5
  0
LINE
  8
0
 10
1800
 20
-17.5
 11
1801.24
 21
-17.3429
  0
LINE
  8
0
 10
1701
 20
-14.25
 11
1701
 21
14.25
  0
LINE
  8
0
 10
1701
 20
14.25
 11
1714.5
 21
14.25
  0
LINE
  8
0
 10
1714.5
 20
14.25
 11
1714.5
 21
-14.25
  0
LINE
  8
0
 10
1714.5
 20
-14.25
 11
1701
 21
-14.25
  0
ENDSEC
  0
SECTION
  2
OBJECTS
  0
DICTIONARY
  0
ENDSEC
  0
EOF
