  0
SECTION
  2
BLOCKS
  0
ENDSEC
  0
SECTION
  2
ENTITIES
  0
LINE
  8
0
 10
-29
 20
9
 11
-29.1571
 21
10.2435
  0
LINE
  8
0
 10
-29.1571
 20
10.2435
 11
-29.6185
 21
11.4088
  0
LINE
  8
0
 10
-29.6185
 20
11.4088
 11
-30.3552
 21
12.4227
  0
LINE
  8
0
 10
-30.3552
 20
12.4227
 11
-31.3209
 21
13.2216
  0
LINE
  8
0
 10
-31.3209
 20
13.2216
 11
-32.4549
 21
13.7553
  0
LINE
  8
0
 10
-32.4549
 20
13.7553
 11
-34
 21
14
  0
LINE
  8
0
 10
-34
 20
14
 11
-40.3394
 21
14
  0
LINE
  8
0
 10
-40.3394
 20
14
 11
-37.4777
 21
13.5575
  0
LINE
  8
0
 10
-37.4777
 20
13.5575
 11
-34.1668
 21
12.0367
  0
LINE
  8
0
 10
-34.1668
 20
12.0367
 11
-31.3474
 21
9.75978
  0
LINE
  8
0
 10
-31.3474
 20
9.75978
 11
-29.1966
 21
6.86998
  0
LINE
  8
0
 10
-29.1966
 20
6.86998
 11
-29
 21
6.38518
  0
LINE
  8
0
 10
-29
 20
6.38518
 11
-29
 21
9
  0
LINE
  8
0
 10
-55.5236
 20
-8.75
 11
-55.3937
 21
-8.75
  0
LINE
  8
0
 10
-55.3937
 20
-8.75
 11
-55.3937
 21
-11.755
  0
LINE
  8
0
 10
-55.3937
 20
-11.755
 11
-41.8772
 21
-11.755
  0
LINE
  8
0
 10
-41.8772
 20
-11.755
 11
-38.8548
 21
-11.3858
  0
LINE
  8
0
 10
-38.8548
 20
-11.3858
 11
-36.0223
 21
-10.3016
  0
LINE
  8
0
 10
-36.0223
 20
-10.3016
 11
-33.5577
 21
-8.57037
  0
LINE
  8
0
 10
-33.5577
 20
-8.57037
 11
-31.6159
 21
-6.30095
  0
LINE
  8
0
 10
-31.6159
 20
-6.30095
 11
-30.3188
 21
-3.63594
  0
LINE
  8
0
 10
-30.3188
 20
-3.63594
 11
-29.724
 21
-0.00498962
  0
LINE
  8
0
 10
-29.724
 20
-0.00498962
 11
-29.724
 21
0.00498962
  0
LINE
  8
0
 10
-29.724
 20
0.00498962
 11
-30.1058
 21
2.92709
  0
LINE
  8
0
 10
-30.1058
 20
2.92709
 11
-31.2272
 21
5.66559
  0
LINE
  8
0
 10
-31.2272
 20
5.66559
 11
-33.0179
 21
8.04842
  0
LINE
  8
0
 10
-33.0179
 20
8.04842
 11
-35.3652
 21
9.92584
  0
LINE
  8
0
 10
-35.3652
 20
9.92584
 11
-38.1216
 21
11.1799
  0
LINE
  8
0
 10
-38.1216
 20
11.1799
 11
-41.8772
 21
11.755
  0
LINE
  8
0
 10
-41.8772
 20
11.755
 11
-55.3937
 21
11.755
  0
LINE
  8
0
 10
-55.3937
 20
11.755
 11
-55.3937
 21
8.75
  0
LINE
  8
0
 10
-55.3937
 20
8.75
 11
-55.5236
 21
8.75
  0
LINE
  8
0
 10
-55.5236
 20
8.75
 11
-55.5236
 21
11.755
  0
LINE
  8
0
 10
-55.5236
 20
11.755
 11
-64.756
 21
11.755
  0
LINE
  8
0
 10
-64.756
 20
11.755
 11
-67.5812
 21
11.3858
  0
LINE
  8
0
 10
-67.5812
 20
11.3858
 11
-70.2288
 21
10.3016
  0
LINE
  8
0
 10
-70.2288
 20
10.3016
 11
-72.5326
 21
8.57037
  0
LINE
  8
0
 10
-72.5326
 20
8.57037
 11
-73.9885
 21
6.75
  0
LINE
  8
0
 10
-73.9885
 20
6.75
 11
-64.7232
 21
6.75
  0
LINE
  8
0
 10
-64.7232
 20
6.75
 11
-64.7232
 21
2.75
  0
LINE
  8
0
 10
-64.7232
 20
2.75
 11
-68.4444
 21
2.75
  0
LINE
  8
0
 10
-68.4444
 20
2.75
 11
-68.4444
 21
4.69656
  0
LINE
  8
0
 10
-68.4444
 20
4.69656
 11
-75.0776
 21
4.69656
  0
LINE
  8
0
 10
-75.0776
 20
4.69656
 11
-75.5602
 21
3.63594
  0
LINE
  8
0
 10
-75.5602
 20
3.63594
 11
-76.1162
 21
0.00498962
  0
LINE
  8
0
 10
-76.1162
 20
0.00498962
 11
-76.1162
 21
-0.00498962
  0
LINE
  8
0
 10
-76.1162
 20
-0.00498962
 11
-75.7593
 21
-2.92709
  0
LINE
  8
0
 10
-75.7593
 20
-2.92709
 11
-75.0776
 21
-4.70781
  0
LINE
  8
0
 10
-75.0776
 20
-4.70781
 11
-68.4444
 21
-4.70781
  0
LINE
  8
0
 10
-68.4444
 20
-4.70781
 11
-68.4444
 21
-2.75
  0
LINE
  8
0
 10
-68.4444
 20
-2.75
 11
-64.7232
 21
-2.75
  0
LINE
  8
0
 10
-64.7232
 20
-2.75
 11
-64.7232
 21
-6.75
  0
LINE
  8
0
 10
-64.7232
 20
-6.75
 11
-73.9493
 21
-6.75
  0
LINE
  8
0
 10
-73.9493
 20
-6.75
 11
-73.0372
 21
-8.04842
  0
LINE
  8
0
 10
-73.0372
 20
-8.04842
 11
-70.8431
 21
-9.92584
  0
LINE
  8
0
 10
-70.8431
 20
-9.92584
 11
-68.2665
 21
-11.1799
  0
LINE
  8
0
 10
-68.2665
 20
-11.1799
 11
-64.756
 21
-11.755
  0
LINE
  8
0
 10
-64.756
 20
-11.755
 11
-55.5236
 21
-11.755
  0
LINE
  8
0
 10
-55.5236
 20
-11.755
 11
-55.5236
 21
-8.75
  0
LINE
  8
0
 10
-32.7565
 20
-13.8429
 11
-31.5912
 21
-13.3815
  0
LINE
  8
0
 10
-31.5912
 20
-13.3815
 11
-30.5773
 21
-12.6448
  0
LINE
  8
0
 10
-30.5773
 20
-12.6448
 11
-29.7784
 21
-11.6791
  0
LINE
  8
0
 10
-29.7784
 20
-11.6791
 11
-29.2447
 21
-10.5451
  0
LINE
  8
0
 10
-29.2447
 20
-10.5451
 11
-29
 21
-9
  0
LINE
  8
0
 10
-29
 20
-9
 11
-29
 21
-6.26421
  0
LINE
  8
0
 10
-29
 20
-6.26421
 11
-29.6634
 21
-7.64052
  0
LINE
  8
0
 10
-29.6634
 20
-7.64052
 11
-31.9959
 21
-10.3928
  0
LINE
  8
0
 10
-31.9959
 20
-10.3928
 11
-34.9562
 21
-12.4924
  0
LINE
  8
0
 10
-34.9562
 20
-12.4924
 11
-38.3584
 21
-13.8073
  0
LINE
  8
0
 10
-38.3584
 20
-13.8073
 11
-39.921
 21
-14
  0
LINE
  8
0
 10
-39.921
 20
-14
 11
-34
 21
-14
  0
LINE
  8
0
 10
-34
 20
-14
 11
-32.7565
 21
-13.8429
  0
ENDSEC
  0
SECTION
  2
OBJECTS
  0
DICTIONARY
  0
ENDSEC
  0
EOF
