<?xml version="1.0" standalone="no"?>
<!DOCTYPE svg PUBLIC "-//W3C//DTD SVG 1.1//EN" "http://www.w3.org/Graphics/SVG/1.1/DTD/svg11.dtd">
<svg width="1904mm" height="76mm" viewBox="-99 -38 1904 76" xmlns="http://www.w3.org/2000/svg" version="1.1">
<title>OpenSCAD Model</title>
<path d="
M 200.005,-37.5 L 76.995,-37.5 L 76.995,-21 L 72,-21 L 72,21 L 76.995,21
 L 76.995,37.5 L 200.005,37.5 z
M 74.5,14.25 L 74.5,-14.25 L 76.995,-14.25 L 76.995,14.25 z
M -3,8.49666 L -2.27446,7.64052 L -0.716476,4.40848 L -0.0019989,0.00498962 L -0.0019989,-0.00498962 L -0.460617,-3.54883
 L -1.80765,-6.86998 L -3,-8.47203 L -3,-34.9309 L -99,-34.9309 L -99,34.9309 L -3,34.9309
 z
M 1569.24,19.8429 L 1570.41,19.3815 L 1571.42,18.6448 L 1572.22,17.6791 L 1572.76,16.5451 L 1573,15
 L 1573,-15 L 1572.84,-16.2435 L 1572.38,-17.4088 L 1571.64,-18.4227 L 1570.68,-19.2216 L 1569.55,-19.7553
 L 1568,-20 L 1528,-20 L 1526.76,-19.8429 L 1525.59,-19.3815 L 1524.58,-18.6448 L 1523.78,-17.6791
 L 1523.24,-16.5451 L 1523,-15 L 1523,15 L 1523.16,16.2435 L 1523.62,17.4088 L 1524.36,18.4227
 L 1525.32,19.2216 L 1526.45,19.7553 L 1528,20 L 1568,20 z
M 1552.42,12.005 L 1552.42,9 L 1541.9,9 L 1541.9,11.8487 L 1539.09,11.4177 L 1536.27,10.1369
 L 1533.87,8.21956 L 1532.77,6.75 L 1538.08,6.75 L 1538.08,6 L 1539.75,6 L 1539.75,3
 L 1538.08,3 L 1538.08,2.75 L 1530.87,2.75 L 1530.51,0.00498962 L 1530.51,-0.00498962 L 1530.96,-2.75
 L 1538.08,-2.75 L 1538.08,-3 L 1545.18,-3 L 1545.18,-6 L 1538.08,-6 L 1538.08,-6.75
 L 1532.71,-6.75 L 1534.42,-8.75261 L 1536.94,-10.5207 L 1539.83,-11.628 L 1541.9,-11.8803 L 1541.9,-9
 L 1552.42,-9 L 1552.42,-12.005 L 1555.29,-12.005 L 1559.12,-11.4177 L 1561.94,-10.1369 L 1564.34,-8.21956
 L 1566.16,-5.78604 L 1567.31,-2.98927 L 1567.7,-0.00498962 L 1567.7,0.00498962 L 1567.09,3.7132 L 1565.77,6.43491
 L 1563.78,8.75261 L 1561.27,10.5207 L 1558.37,11.628 L 1555.29,12.005 z
M 1801.24,17.3429 L 1802.41,16.8815 L 1803.42,16.1448 L 1804.22,15.1791 L 1804.76,14.0451 L 1805,12.5
 L 1805,-12.5 L 1804.84,-13.7435 L 1804.38,-14.9088 L 1803.64,-15.9227 L 1802.68,-16.7216 L 1801.55,-17.2553
 L 1800,-17.5 L 1700,-17.5 L 1698.76,-17.3429 L 1697.59,-16.8815 L 1696.58,-16.1448 L 1695.78,-15.1791
 L 1695.24,-14.0451 L 1695,-12.5 L 1695,12.5 L 1695.16,13.7435 L 1695.62,14.9088 L 1696.36,15.9227
 L 1697.32,16.7216 L 1698.45,17.2553 L 1700,17.5 L 1800,17.5 z
M 1701,14.25 L 1701,-14.25 L 1714.5,-14.25 L 1714.5,14.25 z
M 1371,-9 L 1370.84,-10.2435 L 1370.38,-11.4088 L 1369.64,-12.4227 L 1368.68,-13.2216 L 1367.55,-13.7553
 L 1366,-14 L 1359.66,-14 L 1362.52,-13.5575 L 1365.83,-12.0367 L 1368.65,-9.75978 L 1370.8,-6.86998
 L 1371,-6.38518 z
M 1344.48,8.75 L 1344.61,8.75 L 1344.61,11.755 L 1358.12,11.755 L 1361.15,11.3858 L 1363.98,10.3016
 L 1366.44,8.57037 L 1368.38,6.30095 L 1369.68,3.63594 L 1370.28,0.00498962 L 1370.28,-0.00498962 L 1369.89,-2.92709
 L 1368.77,-5.66559 L 1366.98,-8.04842 L 1364.63,-9.92584 L 1361.88,-11.1799 L 1358.12,-11.755 L 1344.61,-11.755
 L 1344.61,-8.75 L 1344.48,-8.75 L 1344.48,-11.755 L 1335.24,-11.755 L 1332.42,-11.3858 L 1329.77,-10.3016
 L 1327.47,-8.57037 L 1326.01,-6.75 L 1335.28,-6.75 L 1335.28,-2.75 L 1331.56,-2.75 L 1331.56,-4.69656
 L 1324.92,-4.69656 L 1324.44,-3.63594 L 1323.88,-0.00498962 L 1323.88,0.00498962 L 1324.24,2.92709 L 1324.92,4.70781
 L 1331.56,4.70781 L 1331.56,2.75 L 1335.28,2.75 L 1335.28,6.75 L 1326.05,6.75 L 1326.96,8.04842
 L 1329.16,9.92584 L 1331.73,11.1799 L 1335.24,11.755 L 1344.48,11.755 z
M 1367.24,13.8429 L 1368.41,13.3815 L 1369.42,12.6448 L 1370.22,11.6791 L 1370.76,10.5451 L 1371,9
 L 1371,6.26421 L 1370.34,7.64052 L 1368,10.3928 L 1365.04,12.4924 L 1361.64,13.8073 L 1360.08,14
 L 1366,14 z
" stroke="black" fill="lightgray" stroke-width="0.5"/>
</svg>
