solid OpenSCAD_Model
  facet normal 1.34392e-06 -0.125334 -0.992115
    outer loop
      vertex -21.9534 -4.40848 95.5569
      vertex -3 0 95
      vertex -3 -8.70415 96.0996
    endloop
  endfacet
  facet normal -0 -0.11939 -0.992847
    outer loop
      vertex -3 0 95
      vertex -21.1153 -0.00498962 95.0006
      vertex -21.1152 0 95
    endloop
  endfacet
  facet normal 1.68766e-06 -0.125427 -0.992103
    outer loop
      vertex -3 0 95
      vertex -21.1837 -0.364095 95.046
      vertex -21.1153 -0.00498962 95.0006
    endloop
  endfacet
  facet normal -3.46332e-07 -0.125327 -0.992115
    outer loop
      vertex -3 0 95
      vertex -21.9534 -4.40848 95.5569
      vertex -21.1837 -0.364095 95.046
    endloop
  endfacet
  facet normal 1.5395e-06 -0.125334 -0.992115
    outer loop
      vertex -3 -8.70415 96.0996
      vertex -23.6022 -7.64052 95.9652
      vertex -21.9534 -4.40848 95.5569
    endloop
  endfacet
  facet normal -8.62599e-06 -0.125527 -0.99209
    outer loop
      vertex -3 -8.70415 96.0996
      vertex -23.7689 -7.83098 95.9893
      vertex -23.6022 -7.64052 95.9652
    endloop
  endfacet
  facet normal 0 -0.125325 -0.992116
    outer loop
      vertex -23.7689 -7.83098 95.9893
      vertex -3 -8.70415 96.0996
      vertex -24.5334 -8.70415 96.0996
    endloop
  endfacet
  facet normal 0 -0.125369 -0.99211
    outer loop
      vertex -90 -8.70415 96.0996
      vertex -61.8821 -8.12013 96.0258
      vertex -61.5501 -8.70415 96.0996
    endloop
  endfacet
  facet normal 2.29446e-06 -0.125338 -0.992114
    outer loop
      vertex -90 -8.70415 96.0996
      vertex -64.303 -3.54989 95.4485
      vertex -63.9531 -4.47679 95.5656
    endloop
  endfacet
  facet normal -3.5331e-07 -0.12533 -0.992115
    outer loop
      vertex -64.3034 -3.54883 95.4483
      vertex -90 0 95
      vertex -64.6613 -0.0166951 95.0021
    endloop
  endfacet
  facet normal -9.89258e-07 -0.125334 -0.992115
    outer loop
      vertex -90 0 95
      vertex -64.3034 -3.54883 95.4483
      vertex -90 -8.70415 96.0996
    endloop
  endfacet
  facet normal 0.011434 -0.181228 -0.983375
    outer loop
      vertex -64.303 -3.54989 95.4485
      vertex -90 -8.70415 96.0996
      vertex -64.3034 -3.54883 95.4483
    endloop
  endfacet
  facet normal -1.44933e-06 -0.125315 -0.992117
    outer loop
      vertex -62.364 -7.27229 95.9187
      vertex -90 -8.70415 96.0996
      vertex -63.9531 -4.47679 95.5656
    endloop
  endfacet
  facet normal -9.06937e-07 -0.125326 -0.992116
    outer loop
      vertex -61.8821 -8.12013 96.0258
      vertex -90 -8.70415 96.0996
      vertex -62.364 -7.27229 95.9187
    endloop
  endfacet
  facet normal -1.54225e-06 -0.127106 -0.991889
    outer loop
      vertex -64.6613 -0.0166951 95.0021
      vertex -90 0 95
      vertex -64.6625 -0.00498962 95.0006
    endloop
  endfacet
  facet normal 0 -0.11939 -0.992847
    outer loop
      vertex -64.6625 -0.00498962 95.0006
      vertex -90 0 95
      vertex -64.6624 0 95
    endloop
  endfacet
  facet normal 0 0.11939 -0.992847
    outer loop
      vertex -21.1153 0.00498962 95.0006
      vertex -3 0 95
      vertex -21.1152 0 95
    endloop
  endfacet
  facet normal 1.69941e-06 0.125469 -0.992098
    outer loop
      vertex -21.1609 0.29439 95.0372
      vertex -3 0 95
      vertex -21.1153 0.00498962 95.0006
    endloop
  endfacet
  facet normal -6.97378e-07 0.125324 -0.992116
    outer loop
      vertex -21.6735 3.54883 95.4483
      vertex -3 0 95
      vertex -21.1609 0.29439 95.0372
    endloop
  endfacet
  facet normal 1.36132e-06 0.125334 -0.992115
    outer loop
      vertex -3 0 95
      vertex -21.6735 3.54883 95.4483
      vertex -3 8.70415 96.0996
    endloop
  endfacet
  facet normal -2.15798e-05 0.125416 -0.992104
    outer loop
      vertex -21.7843 3.80432 95.4806
      vertex -3 8.70415 96.0996
      vertex -21.6735 3.54883 95.4483
    endloop
  endfacet
  facet normal -9.38235e-07 0.125338 -0.992114
    outer loop
      vertex -23.1137 6.86998 95.8679
      vertex -3 8.70415 96.0996
      vertex -21.7843 3.80432 95.4806
    endloop
  endfacet
  facet normal 0 0.125328 -0.992115
    outer loop
      vertex -3 8.70415 96.0996
      vertex -23.1137 6.86998 95.8679
      vertex -24.5303 8.70415 96.0996
    endloop
  endfacet
  facet normal 0 0.11939 -0.992847
    outer loop
      vertex -64.6624 0 95
      vertex -90 0 95
      vertex -64.6625 0.00498962 95.0006
    endloop
  endfacet
  facet normal 2.09008e-06 0.125383 -0.992108
    outer loop
      vertex -90 8.70415 96.0996
      vertex -61.9529 7.9955 96.0101
      vertex -62.7432 6.60526 95.8344
    endloop
  endfacet
  facet normal -9.47052e-07 0.125344 -0.992113
    outer loop
      vertex -90 8.70415 96.0996
      vertex -62.7432 6.60526 95.8344
      vertex -63.01 6.13589 95.7751
    endloop
  endfacet
  facet normal -1.18867e-06 0.125338 -0.992114
    outer loop
      vertex -90 0 95
      vertex -64.0963 4.22477 95.5337
      vertex -64.6625 0.00498962 95.0006
    endloop
  endfacet
  facet normal -6.69875e-07 0.125334 -0.992115
    outer loop
      vertex -90 8.70415 96.0996
      vertex -64.0963 4.22477 95.5337
      vertex -90 0 95
    endloop
  endfacet
  facet normal -3.29317e-06 0.125319 -0.992116
    outer loop
      vertex -64.0963 4.22477 95.5337
      vertex -90 8.70415 96.0996
      vertex -63.01 6.13589 95.7751
    endloop
  endfacet
  facet normal 1.37121e-06 0.125355 -0.992112
    outer loop
      vertex -61.9529 7.9955 96.0101
      vertex -90 8.70415 96.0996
      vertex -61.8405 8.19336 96.0351
    endloop
  endfacet
  facet normal 0 0.12528 -0.992121
    outer loop
      vertex -61.8405 8.19336 96.0351
      vertex -90 8.70415 96.0996
      vertex -61.5501 8.70415 96.0996
    endloop
  endfacet
  facet normal -0 0 1
    outer loop
      vertex -99 4.38666 164.724
      vertex -3 -4.38666 164.724
      vertex -3 4.38666 164.724
    endloop
  endfacet
  facet normal 0 0 1
    outer loop
      vertex -3 -4.38666 164.724
      vertex -99 4.38666 164.724
      vertex -99 -4.38666 164.724
    endloop
  endfacet
  facet normal -1 0 0
    outer loop
      vertex -99 2.75 -10
      vertex -99 -2.75 -10
      vertex -99 2.75 -2.5
    endloop
  endfacet
  facet normal -1 0 0
    outer loop
      vertex -99 2.75 -2.5
      vertex -99 14.25 0
      vertex -99 14.25 -2.5
    endloop
  endfacet
  facet normal -1 0 0
    outer loop
      vertex -99 -2.75 -2.5
      vertex -99 2.75 -2.5
      vertex -99 -2.75 -10
    endloop
  endfacet
  facet normal -1 0 0
    outer loop
      vertex -99 -2.75 -2.5
      vertex -99 14.25 0
      vertex -99 2.75 -2.5
    endloop
  endfacet
  facet normal -1 0 0
    outer loop
      vertex -99 -14.25 0
      vertex -99 -2.75 -2.5
      vertex -99 -14.25 -2.5
    endloop
  endfacet
  facet normal -1 0 0
    outer loop
      vertex -99 -2.75 -2.5
      vertex -99 -14.25 0
      vertex -99 14.25 0
    endloop
  endfacet
  facet normal -1 0 0
    outer loop
      vertex -99 -14.25 98.2953
      vertex -99 14.25 98.2953
      vertex -99 14.25 0.4
    endloop
  endfacet
  facet normal -1 0 0
    outer loop
      vertex -99 14.25 98.2953
      vertex -99 -14.25 98.2953
      vertex -99 12.8844 162.542
    endloop
  endfacet
  facet normal -1 -0 0
    outer loop
      vertex -99 12.8844 162.542
      vertex -99 -14.25 98.2953
      vertex -99 4.38666 164.724
    endloop
  endfacet
  facet normal -1 -0 0
    outer loop
      vertex -99 4.38666 164.724
      vertex -99 -14.25 98.2953
      vertex -99 -4.38666 164.724
    endloop
  endfacet
  facet normal -1 0 0
    outer loop
      vertex -99 -14.25 98.2953
      vertex -99 14.25 0.4
      vertex -99 -14.25 0.4
    endloop
  endfacet
  facet normal -1 0 0
    outer loop
      vertex -99 -4.38666 164.724
      vertex -99 -14.25 98.2953
      vertex -99 -12.8844 162.542
    endloop
  endfacet
  facet normal -1 0 0
    outer loop
      vertex -99 -23.9591 104.486
      vertex -99 -14.25 98.2953
      vertex -99 -16.8614 99.3293
    endloop
  endfacet
  facet normal -1 0 0
    outer loop
      vertex -99 -14.25 98.2953
      vertex -99 -20.5725 158.316
      vertex -99 -12.8844 162.542
    endloop
  endfacet
  facet normal -1 0 0
    outer loop
      vertex -99 -29.5515 111.246
      vertex -99 -14.25 98.2953
      vertex -99 -23.9591 104.486
    endloop
  endfacet
  facet normal -1 0 0
    outer loop
      vertex -99 -14.25 98.2953
      vertex -99 -26.968 152.31
      vertex -99 -20.5725 158.316
    endloop
  endfacet
  facet normal -1 0 0
    outer loop
      vertex -99 -14.25 98.2953
      vertex -99 -29.5515 111.246
      vertex -99 -26.968 152.31
    endloop
  endfacet
  facet normal -1 0 0
    outer loop
      vertex -99 -29.5515 111.246
      vertex -99 -31.6689 144.902
      vertex -99 -26.968 152.31
    endloop
  endfacet
  facet normal -1 0 0
    outer loop
      vertex -99 -33.287 119.184
      vertex -99 -31.6689 144.902
      vertex -99 -29.5515 111.246
    endloop
  endfacet
  facet normal -1 0 0
    outer loop
      vertex -99 -33.287 119.184
      vertex -99 -34.3801 136.558
      vertex -99 -31.6689 144.902
    endloop
  endfacet
  facet normal -1 0 -0
    outer loop
      vertex -99 -34.3801 136.558
      vertex -99 -33.287 119.184
      vertex -99 -34.9309 127.802
    endloop
  endfacet
  facet normal -1 0 0
    outer loop
      vertex -99 33.287 119.184
      vertex -99 34.3801 136.558
      vertex -99 34.9309 127.802
    endloop
  endfacet
  facet normal -1 0 0
    outer loop
      vertex -99 33.287 119.184
      vertex -99 31.6689 144.902
      vertex -99 34.3801 136.558
    endloop
  endfacet
  facet normal -1 0 0
    outer loop
      vertex -99 29.5515 111.246
      vertex -99 31.6689 144.902
      vertex -99 33.287 119.184
    endloop
  endfacet
  facet normal -1 0 0
    outer loop
      vertex -99 29.5515 111.246
      vertex -99 26.968 152.31
      vertex -99 31.6689 144.902
    endloop
  endfacet
  facet normal -1 0 0
    outer loop
      vertex -99 14.25 98.2953
      vertex -99 29.5515 111.246
      vertex -99 23.9591 104.486
    endloop
  endfacet
  facet normal -1 -0 0
    outer loop
      vertex -99 29.5515 111.246
      vertex -99 14.25 98.2953
      vertex -99 26.968 152.31
    endloop
  endfacet
  facet normal -1 0 0
    outer loop
      vertex -99 14.25 98.2953
      vertex -99 23.9591 104.486
      vertex -99 16.8614 99.3293
    endloop
  endfacet
  facet normal -1 -0 0
    outer loop
      vertex -99 26.968 152.31
      vertex -99 14.25 98.2953
      vertex -99 20.5725 158.316
    endloop
  endfacet
  facet normal -1 -0 0
    outer loop
      vertex -99 20.5725 158.316
      vertex -99 14.25 98.2953
      vertex -99 12.8844 162.542
    endloop
  endfacet
  facet normal 0 0.998027 0.0627813
    outer loop
      vertex -3 34.9309 127.802
      vertex -99 34.3801 136.558
      vertex -3 34.3801 136.558
    endloop
  endfacet
  facet normal 0 0.998027 0.0627813
    outer loop
      vertex -99 34.3801 136.558
      vertex -3 34.9309 127.802
      vertex -99 34.9309 127.802
    endloop
  endfacet
  facet normal 0 -0.684561 0.728956
    outer loop
      vertex -99 -20.5725 158.316
      vertex -3 -26.968 152.31
      vertex -3 -20.5725 158.316
    endloop
  endfacet
  facet normal 0 -0.684561 0.728956
    outer loop
      vertex -3 -26.968 152.31
      vertex -99 -20.5725 158.316
      vertex -99 -26.968 152.31
    endloop
  endfacet
  facet normal 0 -0.844346 0.535798
    outer loop
      vertex -99 -31.6689 144.902
      vertex -3 -26.968 152.31
      vertex -99 -26.968 152.31
    endloop
  endfacet
  facet normal 0 -0.844346 0.535798
    outer loop
      vertex -3 -26.968 152.31
      vertex -99 -31.6689 144.902
      vertex -3 -31.6689 144.902
    endloop
  endfacet
  facet normal 0 -0.951054 0.309024
    outer loop
      vertex -99 -34.3801 136.558
      vertex -3 -31.6689 144.902
      vertex -99 -31.6689 144.902
    endloop
  endfacet
  facet normal 0 -0.951054 0.309024
    outer loop
      vertex -3 -31.6689 144.902
      vertex -99 -34.3801 136.558
      vertex -3 -34.3801 136.558
    endloop
  endfacet
  facet normal 0 -0.90482 -0.425794
    outer loop
      vertex -99 -29.5515 111.246
      vertex -3 -33.287 119.184
      vertex -99 -33.287 119.184
    endloop
  endfacet
  facet normal 0 -0.90482 -0.425794
    outer loop
      vertex -3 -33.287 119.184
      vertex -99 -29.5515 111.246
      vertex -3 -29.5515 111.246
    endloop
  endfacet
  facet normal 0 -0.770511 -0.637427
    outer loop
      vertex -99 -23.9591 104.486
      vertex -3 -29.5515 111.246
      vertex -99 -29.5515 111.246
    endloop
  endfacet
  facet normal 0 -0.770511 -0.637427
    outer loop
      vertex -3 -29.5515 111.246
      vertex -99 -23.9591 104.486
      vertex -3 -23.9591 104.486
    endloop
  endfacet
  facet normal 0 -0.587779 -0.809021
    outer loop
      vertex -99 -23.9591 104.486
      vertex -3 -16.8614 99.3293
      vertex -3 -23.9591 104.486
    endloop
  endfacet
  facet normal -0 -0.587779 -0.809021
    outer loop
      vertex -3 -16.8614 99.3293
      vertex -99 -23.9591 104.486
      vertex -99 -16.8614 99.3293
    endloop
  endfacet
  facet normal 0 -0.368126 -0.929776
    outer loop
      vertex -3 -16.8614 99.3293
      vertex -24.5334 -8.70415 96.0996
      vertex -3 -8.70415 96.0996
    endloop
  endfacet
  facet normal -1.97188e-06 -0.368131 -0.929774
    outer loop
      vertex -3 -16.8614 99.3293
      vertex -26.113 -10.3928 96.7682
      vertex -24.5334 -8.70415 96.0996
    endloop
  endfacet
  facet normal 7.90081e-06 -0.3681 -0.929786
    outer loop
      vertex -3 -16.8614 99.3293
      vertex -29.2581 -12.4924 97.5994
      vertex -26.113 -10.3928 96.7682
    endloop
  endfacet
  facet normal 3.89291e-07 -0.368139 -0.929771
    outer loop
      vertex -3 -16.8614 99.3293
      vertex -32.6495 -13.76 98.1013
      vertex -29.2581 -12.4924 97.5994
    endloop
  endfacet
  facet normal -0.000114919 -0.369092 -0.929393
    outer loop
      vertex -3 -16.8614 99.3293
      vertex -32.776 -13.8073 98.1201
      vertex -32.6495 -13.76 98.1013
    endloop
  endfacet
  facet normal 0.000182582 -0.366584 -0.930385
    outer loop
      vertex -3 -16.8614 99.3293
      vertex -32.9055 -13.8231 98.1263
      vertex -32.776 -13.8073 98.1201
    endloop
  endfacet
  facet normal 1.03691e-06 -0.368129 -0.929775
    outer loop
      vertex -3 -16.8614 99.3293
      vertex -36.4457 -14.255 98.2973
      vertex -32.9055 -13.8231 98.1263
    endloop
  endfacet
  facet normal 0 -0.368141 -0.92977
    outer loop
      vertex -3 -16.8614 99.3293
      vertex -50.7975 -14.255 98.2973
      vertex -36.4457 -14.255 98.2973
    endloop
  endfacet
  facet normal 0.163325 0.831295 -0.531295
    outer loop
      vertex -50.7975 -14.255 98.2973
      vertex -51.9959 -14.0671 98.2229
      vertex -50.8044 -14.2539 98.2969
    endloop
  endfacet
  facet normal -7.15558e-07 -0.367929 -0.929854
    outer loop
      vertex -90 -14.25 98.2953
      vertex -52.5903 -13.7335 98.0909
      vertex -51.9959 -14.0671 98.2229
    endloop
  endfacet
  facet normal -9.08132e-06 -0.368076 -0.929796
    outer loop
      vertex -61.1311 -8.93934 96.1927
      vertex -90 -14.25 98.2953
      vertex -61.5501 -8.70415 96.0996
    endloop
  endfacet
  facet normal 2.49949e-06 -0.36813 -0.929774
    outer loop
      vertex -52.5903 -13.7335 98.0909
      vertex -90 -14.25 98.2953
      vertex -61.1311 -8.93934 96.1927
    endloop
  endfacet
  facet normal 2.56472e-07 -0.368145 -0.929768
    outer loop
      vertex -99 -16.8614 99.3293
      vertex -51.9959 -14.0671 98.2229
      vertex -50.7975 -14.255 98.2973
    endloop
  endfacet
  facet normal 0 -0.368141 -0.92977
    outer loop
      vertex -99 -16.8614 99.3293
      vertex -50.7975 -14.255 98.2973
      vertex -3 -16.8614 99.3293
    endloop
  endfacet
  facet normal 5.07192e-07 -0.368149 -0.929767
    outer loop
      vertex -51.9959 -14.0671 98.2229
      vertex -99 -16.8614 99.3293
      vertex -90 -14.25 98.2953
    endloop
  endfacet
  facet normal -0 -0.368147 -0.929768
    outer loop
      vertex -90 -14.25 98.2953
      vertex -99 -16.8614 99.3293
      vertex -99 -14.25 98.2953
    endloop
  endfacet
  facet normal -0 -0.368116 -0.92978
    outer loop
      vertex -61.5501 -8.70415 96.0996
      vertex -90 -14.25 98.2953
      vertex -90 -8.70415 96.0996
    endloop
  endfacet
  facet normal -0 0.248706 0.968579
    outer loop
      vertex -99 12.8844 162.542
      vertex -3 4.38666 164.724
      vertex -3 12.8844 162.542
    endloop
  endfacet
  facet normal 0 0.248706 0.968579
    outer loop
      vertex -3 4.38666 164.724
      vertex -99 12.8844 162.542
      vertex -99 4.38666 164.724
    endloop
  endfacet
  facet normal -0 0.684561 0.728956
    outer loop
      vertex -99 26.968 152.31
      vertex -3 20.5725 158.316
      vertex -3 26.968 152.31
    endloop
  endfacet
  facet normal 0 0.684561 0.728956
    outer loop
      vertex -3 20.5725 158.316
      vertex -99 26.968 152.31
      vertex -99 20.5725 158.316
    endloop
  endfacet
  facet normal -0 0.481704 0.876334
    outer loop
      vertex -99 20.5725 158.316
      vertex -3 12.8844 162.542
      vertex -3 20.5725 158.316
    endloop
  endfacet
  facet normal 0 0.481704 0.876334
    outer loop
      vertex -3 12.8844 162.542
      vertex -99 20.5725 158.316
      vertex -99 12.8844 162.542
    endloop
  endfacet
  facet normal 0 -0.481704 0.876334
    outer loop
      vertex -99 -12.8844 162.542
      vertex -3 -20.5725 158.316
      vertex -3 -12.8844 162.542
    endloop
  endfacet
  facet normal 0 -0.481704 0.876334
    outer loop
      vertex -3 -20.5725 158.316
      vertex -99 -12.8844 162.542
      vertex -99 -20.5725 158.316
    endloop
  endfacet
  facet normal 0 -0.248706 0.968579
    outer loop
      vertex -99 -4.38666 164.724
      vertex -3 -12.8844 162.542
      vertex -3 -4.38666 164.724
    endloop
  endfacet
  facet normal 0 -0.248706 0.968579
    outer loop
      vertex -3 -12.8844 162.542
      vertex -99 -4.38666 164.724
      vertex -99 -12.8844 162.542
    endloop
  endfacet
  facet normal 1 0 0
    outer loop
      vertex -3 34.3801 136.558
      vertex -3 33.287 119.184
      vertex -3 34.9309 127.802
    endloop
  endfacet
  facet normal 1 0 0
    outer loop
      vertex -3 31.6689 144.902
      vertex -3 33.287 119.184
      vertex -3 34.3801 136.558
    endloop
  endfacet
  facet normal 1 0 0
    outer loop
      vertex -3 31.6689 144.902
      vertex -3 29.5515 111.246
      vertex -3 33.287 119.184
    endloop
  endfacet
  facet normal 1 0 0
    outer loop
      vertex -3 26.968 152.31
      vertex -3 29.5515 111.246
      vertex -3 31.6689 144.902
    endloop
  endfacet
  facet normal 1 0 0
    outer loop
      vertex -3 26.968 152.31
      vertex -3 23.9591 104.486
      vertex -3 29.5515 111.246
    endloop
  endfacet
  facet normal 1 0 0
    outer loop
      vertex -3 20.5725 158.316
      vertex -3 23.9591 104.486
      vertex -3 26.968 152.31
    endloop
  endfacet
  facet normal 1 0 0
    outer loop
      vertex -3 20.5725 158.316
      vertex -3 16.8614 99.3293
      vertex -3 23.9591 104.486
    endloop
  endfacet
  facet normal 1 0 0
    outer loop
      vertex -3 12.8844 162.542
      vertex -3 16.8614 99.3293
      vertex -3 20.5725 158.316
    endloop
  endfacet
  facet normal 1 0 0
    outer loop
      vertex -3 12.8844 162.542
      vertex -3 8.70415 96.0996
      vertex -3 16.8614 99.3293
    endloop
  endfacet
  facet normal 1 0 0
    outer loop
      vertex -3 4.38666 164.724
      vertex -3 8.70415 96.0996
      vertex -3 12.8844 162.542
    endloop
  endfacet
  facet normal 1 0 0
    outer loop
      vertex -3 4.38666 164.724
      vertex -3 0 95
      vertex -3 8.70415 96.0996
    endloop
  endfacet
  facet normal 1 -0 0
    outer loop
      vertex -3 -4.38666 164.724
      vertex -3 0 95
      vertex -3 4.38666 164.724
    endloop
  endfacet
  facet normal 1 0 0
    outer loop
      vertex -3 -4.38666 164.724
      vertex -3 -8.70415 96.0996
      vertex -3 0 95
    endloop
  endfacet
  facet normal 1 -0 0
    outer loop
      vertex -3 -12.8844 162.542
      vertex -3 -8.70415 96.0996
      vertex -3 -4.38666 164.724
    endloop
  endfacet
  facet normal 1 0 0
    outer loop
      vertex -3 -12.8844 162.542
      vertex -3 -16.8614 99.3293
      vertex -3 -8.70415 96.0996
    endloop
  endfacet
  facet normal 1 -0 0
    outer loop
      vertex -3 -20.5725 158.316
      vertex -3 -16.8614 99.3293
      vertex -3 -12.8844 162.542
    endloop
  endfacet
  facet normal 1 0 0
    outer loop
      vertex -3 -20.5725 158.316
      vertex -3 -23.9591 104.486
      vertex -3 -16.8614 99.3293
    endloop
  endfacet
  facet normal 1 -0 0
    outer loop
      vertex -3 -26.968 152.31
      vertex -3 -23.9591 104.486
      vertex -3 -20.5725 158.316
    endloop
  endfacet
  facet normal 1 0 0
    outer loop
      vertex -3 -26.968 152.31
      vertex -3 -29.5515 111.246
      vertex -3 -23.9591 104.486
    endloop
  endfacet
  facet normal 1 -0 0
    outer loop
      vertex -3 -31.6689 144.902
      vertex -3 -29.5515 111.246
      vertex -3 -26.968 152.31
    endloop
  endfacet
  facet normal 1 0 0
    outer loop
      vertex -3 -31.6689 144.902
      vertex -3 -33.287 119.184
      vertex -3 -29.5515 111.246
    endloop
  endfacet
  facet normal 1 -0 0
    outer loop
      vertex -3 -34.3801 136.558
      vertex -3 -33.287 119.184
      vertex -3 -31.6689 144.902
    endloop
  endfacet
  facet normal 1 0 0
    outer loop
      vertex -3 -33.287 119.184
      vertex -3 -34.3801 136.558
      vertex -3 -34.9309 127.802
    endloop
  endfacet
  facet normal 0 0.982289 -0.187373
    outer loop
      vertex -3 33.287 119.184
      vertex -99 34.9309 127.802
      vertex -3 34.9309 127.802
    endloop
  endfacet
  facet normal 0 0.982289 -0.187373
    outer loop
      vertex -99 34.9309 127.802
      vertex -3 33.287 119.184
      vertex -99 33.287 119.184
    endloop
  endfacet
  facet normal 0 0.770511 -0.637427
    outer loop
      vertex -3 23.9591 104.486
      vertex -99 29.5515 111.246
      vertex -3 29.5515 111.246
    endloop
  endfacet
  facet normal 0 0.770511 -0.637427
    outer loop
      vertex -99 29.5515 111.246
      vertex -3 23.9591 104.486
      vertex -99 23.9591 104.486
    endloop
  endfacet
  facet normal 0 0.90482 -0.425794
    outer loop
      vertex -3 29.5515 111.246
      vertex -99 33.287 119.184
      vertex -3 33.287 119.184
    endloop
  endfacet
  facet normal 0 0.90482 -0.425794
    outer loop
      vertex -99 33.287 119.184
      vertex -3 29.5515 111.246
      vertex -99 29.5515 111.246
    endloop
  endfacet
  facet normal 0 0.368126 -0.929776
    outer loop
      vertex -24.5303 8.70415 96.0996
      vertex -3 16.8614 99.3293
      vertex -3 8.70415 96.0996
    endloop
  endfacet
  facet normal 1.41027e-05 0.368094 -0.929789
    outer loop
      vertex -25.4089 9.75978 96.5175
      vertex -3 16.8614 99.3293
      vertex -24.5303 8.70415 96.0996
    endloop
  endfacet
  facet normal -9.78044e-05 0.368399 -0.929668
    outer loop
      vertex -25.5936 9.89903 96.5727
      vertex -3 16.8614 99.3293
      vertex -25.4089 9.75978 96.5175
    endloop
  endfacet
  facet normal 6.11401e-06 0.368108 -0.929783
    outer loop
      vertex -28.4287 12.0367 97.419
      vertex -3 16.8614 99.3293
      vertex -25.5936 9.89903 96.5727
    endloop
  endfacet
  facet normal -4.20559e-06 0.368155 -0.929765
    outer loop
      vertex -31.8734 13.5575 98.0212
      vertex -3 16.8614 99.3293
      vertex -28.4287 12.0367 97.419
    endloop
  endfacet
  facet normal 5.09036e-06 0.368085 -0.929792
    outer loop
      vertex -36.4457 14.255 98.2973
      vertex -3 16.8614 99.3293
      vertex -31.8734 13.5575 98.0212
    endloop
  endfacet
  facet normal 0 0.368141 -0.92977
    outer loop
      vertex -50.7975 14.255 98.2973
      vertex -3 16.8614 99.3293
      vertex -36.4457 14.255 98.2973
    endloop
  endfacet
  facet normal 2.26203e-06 0.368126 -0.929776
    outer loop
      vertex -90 14.25 98.2953
      vertex -59.9393 9.60834 96.4576
      vertex -61.5501 8.70415 96.0996
    endloop
  endfacet
  facet normal 0 0.368116 -0.92978
    outer loop
      vertex -90 14.25 98.2953
      vertex -61.5501 8.70415 96.0996
      vertex -90 8.70415 96.0996
    endloop
  endfacet
  facet normal 1.36295e-06 0.368121 -0.929778
    outer loop
      vertex -59.9393 9.60834 96.4576
      vertex -90 14.25 98.2953
      vertex -51.9079 14.1165 98.2425
    endloop
  endfacet
  facet normal 1.48615e-06 0.368152 -0.929766
    outer loop
      vertex -99 16.8614 99.3293
      vertex -51.9079 14.1165 98.2425
      vertex -90 14.25 98.2953
    endloop
  endfacet
  facet normal -9.84028e-06 0.367984 -0.929832
    outer loop
      vertex -51.9079 14.1165 98.2425
      vertex -99 16.8614 99.3293
      vertex -50.7975 14.255 98.2973
    endloop
  endfacet
  facet normal 0 0.368147 -0.929768
    outer loop
      vertex -99 16.8614 99.3293
      vertex -90 14.25 98.2953
      vertex -99 14.25 98.2953
    endloop
  endfacet
  facet normal 0 0.368141 -0.92977
    outer loop
      vertex -50.7975 14.255 98.2973
      vertex -99 16.8614 99.3293
      vertex -3 16.8614 99.3293
    endloop
  endfacet
  facet normal 0 -0.982289 -0.187373
    outer loop
      vertex -99 -33.287 119.184
      vertex -3 -34.9309 127.802
      vertex -99 -34.9309 127.802
    endloop
  endfacet
  facet normal 0 -0.982289 -0.187373
    outer loop
      vertex -3 -34.9309 127.802
      vertex -99 -33.287 119.184
      vertex -3 -33.287 119.184
    endloop
  endfacet
  facet normal 0 -0.998027 0.0627813
    outer loop
      vertex -99 -34.9309 127.802
      vertex -3 -34.3801 136.558
      vertex -99 -34.3801 136.558
    endloop
  endfacet
  facet normal 0 -0.998027 0.0627813
    outer loop
      vertex -3 -34.3801 136.558
      vertex -99 -34.9309 127.802
      vertex -3 -34.9309 127.802
    endloop
  endfacet
  facet normal 0 0.587779 -0.809021
    outer loop
      vertex -99 16.8614 99.3293
      vertex -3 23.9591 104.486
      vertex -3 16.8614 99.3293
    endloop
  endfacet
  facet normal 0 0.587779 -0.809021
    outer loop
      vertex -3 23.9591 104.486
      vertex -99 16.8614 99.3293
      vertex -99 23.9591 104.486
    endloop
  endfacet
  facet normal 0 0.844346 0.535798
    outer loop
      vertex -3 31.6689 144.902
      vertex -99 26.968 152.31
      vertex -3 26.968 152.31
    endloop
  endfacet
  facet normal 0 0.844346 0.535798
    outer loop
      vertex -99 26.968 152.31
      vertex -3 31.6689 144.902
      vertex -99 31.6689 144.902
    endloop
  endfacet
  facet normal 0 0.951054 0.309024
    outer loop
      vertex -3 34.3801 136.558
      vertex -99 31.6689 144.902
      vertex -3 31.6689 144.902
    endloop
  endfacet
  facet normal 0 0.951054 0.309024
    outer loop
      vertex -99 31.6689 144.902
      vertex -3 34.3801 136.558
      vertex -99 34.3801 136.558
    endloop
  endfacet
  facet normal -0.216927 -2.56578e-05 0.976188
    outer loop
      vertex -60.3606 10.3928 96.364
      vertex -59.9393 9.60834 96.4576
      vertex -54.2976 13.8073 97.7114
    endloop
  endfacet
  facet normal -0.216939 -3.23625e-05 0.976185
    outer loop
      vertex -60.3606 10.3928 96.364
      vertex -61.5501 8.70415 96.0996
      vertex -59.9393 9.60834 96.4576
    endloop
  endfacet
  facet normal -0.217081 0.000153601 0.976154
    outer loop
      vertex -61.5501 8.70415 96.0996
      vertex -62.5833 7.64052 95.87
      vertex -61.8405 8.19336 96.0351
    endloop
  endfacet
  facet normal -0.216793 -0.000140226 0.976218
    outer loop
      vertex -62.5833 7.64052 95.87
      vertex -61.5501 8.70415 96.0996
      vertex -60.3606 10.3928 96.364
    endloop
  endfacet
  facet normal 0.12235 -0.992114 0.0271915
    outer loop
      vertex -36.4457 -14.255 98.2973
      vertex -15.5593 -14.25 4.5
      vertex -32.9055 -13.8231 98.1263
    endloop
  endfacet
  facet normal 0.122478 -0.992098 0.0272201
    outer loop
      vertex -14.6886 -14.255 0.4
      vertex -15.5593 -14.25 4.5
      vertex -36.4457 -14.255 98.2973
    endloop
  endfacet
  facet normal 0.122481 -0.992097 0.0272207
    outer loop
      vertex -15.5593 -14.25 4.5
      vertex -14.6886 -14.255 0.4
      vertex -14.6481 -14.25 0.4
    endloop
  endfacet
  facet normal 0.122344 -0.992115 0.0271904
    outer loop
      vertex -32.9055 -13.8231 98.1263
      vertex -15.5593 -14.25 4.5
      vertex -14.9803 -14.1786 4.5
    endloop
  endfacet
  facet normal 0.121533 -0.992218 0.0270834
    outer loop
      vertex -14.25 -14.1931 0.685758
      vertex -14.25 -14.2009 0.4
      vertex -14.1953 -14.1942 0.4
    endloop
  endfacet
  facet normal 0.122347 -0.992115 0.0271911
    outer loop
      vertex -14.9803 -14.1786 4.5
      vertex -32.776 -13.8073 98.1201
      vertex -32.9055 -13.8231 98.1263
    endloop
  endfacet
  facet normal 0.1224 -0.992108 0.0272011
    outer loop
      vertex -14.25 -14.0885 4.5
      vertex -32.776 -13.8073 98.1201
      vertex -14.9803 -14.1786 4.5
    endloop
  endfacet
  facet normal 0.122361 -0.992112 0.0272416
    outer loop
      vertex -11.0583 -13.8073 0.4
      vertex -14.25 -14.1931 0.685758
      vertex -14.1953 -14.1942 0.4
    endloop
  endfacet
  facet normal 0.122334 -0.992117 0.027188
    outer loop
      vertex -14.25 -14.0885 4.5
      vertex -11.0583 -13.8073 0.4
      vertex -32.776 -13.8073 98.1201
    endloop
  endfacet
  facet normal 0.122359 -0.992113 0.0272072
    outer loop
      vertex -14.25 -14.1931 0.685758
      vertex -11.0583 -13.8073 0.4
      vertex -14.25 -14.0885 4.5
    endloop
  endfacet
  facet normal 0.359507 -0.929716 0.0798982
    outer loop
      vertex -11.0583 -13.8073 0.4
      vertex -32.6495 -13.76 98.1013
      vertex -32.776 -13.8073 98.1201
    endloop
  endfacet
  facet normal 0.359357 -0.929776 0.0798652
    outer loop
      vertex -32.6495 -13.76 98.1013
      vertex -11.0583 -13.8073 0.4
      vertex -8.0808 -12.6565 0.4
    endloop
  endfacet
  facet normal 0.78973 0.58781 0.175513
    outer loop
      vertex -24.5303 8.70415 96.0996
      vertex -4.04734 9.75978 0.4
      vertex -25.4089 9.75978 96.5175
    endloop
  endfacet
  facet normal 0.78975 0.587782 0.175517
    outer loop
      vertex -23.1137 6.86998 95.8679
      vertex -4.04734 9.75978 0.4
      vertex -24.5303 8.70415 96.0996
    endloop
  endfacet
  facet normal 0.789748 0.587785 0.175517
    outer loop
      vertex -4.04734 9.75978 0.4
      vertex -23.1137 6.86998 95.8679
      vertex -1.89655 6.86998 0.4
    endloop
  endfacet
  facet normal -0.152752 -0.987689 -0.0337365
    outer loop
      vertex -55.1368 -13.5575 97.5249
      vertex -50.8044 -14.2539 98.2969
      vertex -51.9959 -14.0671 98.2229
    endloop
  endfacet
  facet normal -0.152715 -0.987687 -0.0339402
    outer loop
      vertex -34.4625 -13.5575 4.5
      vertex -50.8044 -14.2539 98.2969
      vertex -55.1368 -13.5575 97.5249
    endloop
  endfacet
  facet normal -0.152783 -0.987676 -0.0339519
    outer loop
      vertex -50.8044 -14.2539 98.2969
      vertex -34.4625 -13.5575 4.5
      vertex -33.5413 -13.7 4.5
    endloop
  endfacet
  facet normal 0.359343 -0.929782 0.0798614
    outer loop
      vertex -8.0808 -12.6565 0.4
      vertex -29.2581 -12.4924 97.5994
      vertex -32.6495 -13.76 98.1013
    endloop
  endfacet
  facet normal 0.35927 -0.929812 0.0798457
    outer loop
      vertex -29.2581 -12.4924 97.5994
      vertex -8.0808 -12.6565 0.4
      vertex -7.6561 -12.4924 0.4
    endloop
  endfacet
  facet normal 0.622227 0.770526 0.138287
    outer loop
      vertex -6.86677 12.0367 0.4
      vertex -25.5936 9.89903 96.5727
      vertex -6.52276 11.7589 0.4
    endloop
  endfacet
  facet normal 0.622246 0.77051 0.138291
    outer loop
      vertex -25.5936 9.89903 96.5727
      vertex -6.86677 12.0367 0.4
      vertex -28.4287 12.0367 97.419
    endloop
  endfacet
  facet normal -0.883283 0.425764 -0.196304
    outer loop
      vertex -43.8348 4.40848 4.5
      vertex -64.0679 4.40848 95.54
      vertex -42.6206 6.92744 4.5
    endloop
  endfacet
  facet normal -0.907598 -0.368214 -0.201705
    outer loop
      vertex -42.7436 -6.86998 4.5
      vertex -64.303 -3.54989 95.4485
      vertex -43.0419 -6.13471 4.5
    endloop
  endfacet
  facet normal -0.907636 -0.368112 -0.201718
    outer loop
      vertex -64.303 -3.54989 95.4485
      vertex -42.7436 -6.86998 4.5
      vertex -63.9531 -4.47679 95.5656
    endloop
  endfacet
  facet normal -0.907629 -0.368132 -0.201715
    outer loop
      vertex -63.9531 -4.47679 95.5656
      vertex -42.7436 -6.86998 4.5
      vertex -63.0281 -6.86998 95.7711
    endloop
  endfacet
  facet normal -0.622247 -0.770509 -0.138291
    outer loop
      vertex -38.3738 -11.5518 4.5
      vertex -60.9785 -9.75978 96.2266
      vertex -40.5928 -9.75978 4.5
    endloop
  endfacet
  facet normal 0 -1 0
    outer loop
      vertex -29.0404 -14.255 0.4
      vertex -36.4457 -14.255 98.2973
      vertex -50.7975 -14.255 98.2973
    endloop
  endfacet
  facet normal 0 -1 0
    outer loop
      vertex -36.4457 -14.255 98.2973
      vertex -29.0404 -14.255 0.4
      vertex -14.6886 -14.255 0.4
    endloop
  endfacet
  facet normal -0.968497 -0.125228 -0.215246
    outer loop
      vertex -44.0907 -3.54883 4.5
      vertex -64.6613 -0.0166951 95.0021
      vertex -44.1931 -2.75688 4.5
    endloop
  endfacet
  facet normal -0.968486 -0.125324 -0.21524
    outer loop
      vertex -64.6613 -0.0166951 95.0021
      vertex -44.0907 -3.54883 4.5
      vertex -64.3034 -3.54883 95.4483
    endloop
  endfacet
  facet normal -0.883247 0.425843 -0.196294
    outer loop
      vertex -64.0679 4.40848 95.54
      vertex -42.2768 7.64052 4.5
      vertex -42.6206 6.92744 4.5
    endloop
  endfacet
  facet normal -0.883281 0.425768 -0.196305
    outer loop
      vertex -42.2768 7.64052 4.5
      vertex -64.0679 4.40848 95.54
      vertex -62.5833 7.64052 95.87
    endloop
  endfacet
  facet normal 0 1 -0
    outer loop
      vertex -29.0404 14.255 0.4
      vertex -36.4457 14.255 98.2973
      vertex -14.6886 14.255 0.4
    endloop
  endfacet
  facet normal 0 1 0
    outer loop
      vertex -36.4457 14.255 98.2973
      vertex -29.0404 14.255 0.4
      vertex -50.7975 14.255 98.2973
    endloop
  endfacet
  facet normal -0.752156 0.637431 -0.167163
    outer loop
      vertex -62.5833 7.64052 95.87
      vertex -41.7658 8.24349 4.5
      vertex -42.2768 7.64052 4.5
    endloop
  endfacet
  facet normal -0.752155 0.637432 -0.167162
    outer loop
      vertex -41.7658 8.24349 4.5
      vertex -62.5833 7.64052 95.87
      vertex -60.3606 10.3928 96.364
    endloop
  endfacet
  facet normal -0.789784 -0.587735 -0.175525
    outer loop
      vertex -42.2705 -7.50572 4.5
      vertex -63.0281 -6.86998 95.7711
      vertex -42.7436 -6.86998 4.5
    endloop
  endfacet
  facet normal -0.789743 -0.587793 -0.175515
    outer loop
      vertex -63.0281 -6.86998 95.7711
      vertex -42.2705 -7.50572 4.5
      vertex -60.9785 -9.75978 96.2266
    endloop
  endfacet
  facet normal -0.907632 -0.368124 -0.201716
    outer loop
      vertex -43.0419 -6.13471 4.5
      vertex -64.3034 -3.54883 95.4483
      vertex -44.0907 -3.54883 4.5
    endloop
  endfacet
  facet normal -0.903521 -0.378772 -0.200452
    outer loop
      vertex -64.3034 -3.54883 95.4483
      vertex -43.0419 -6.13471 4.5
      vertex -64.303 -3.54989 95.4485
    endloop
  endfacet
  facet normal -0.122427 0.992117 -0.0267336
    outer loop
      vertex -50.7975 14.255 98.2973
      vertex -54.2976 13.8073 97.7114
      vertex -51.9079 14.1165 98.2425
    endloop
  endfacet
  facet normal -0.122342 0.992116 -0.0271897
    outer loop
      vertex -30.6741 14.1659 4.5
      vertex -50.7975 14.255 98.2973
      vertex -29.9921 14.25 4.5
    endloop
  endfacet
  facet normal -0.122484 0.992097 -0.0272213
    outer loop
      vertex -29.0404 14.255 0.4
      vertex -29.9921 14.25 4.5
      vertex -50.7975 14.255 98.2973
    endloop
  endfacet
  facet normal -0.122481 0.992097 -0.0272207
    outer loop
      vertex -29.9921 14.25 4.5
      vertex -29.0404 14.255 0.4
      vertex -29.0809 14.25 0.4
    endloop
  endfacet
  facet normal -0.12235 0.992114 -0.0271916
    outer loop
      vertex -50.7975 14.255 98.2973
      vertex -30.6741 14.1659 4.5
      vertex -54.2976 13.8073 97.7114
    endloop
  endfacet
  facet normal -0.216961 3.80379e-05 0.97618
    outer loop
      vertex -57.5396 12.4924 96.9909
      vertex -60.3606 10.3928 96.364
      vertex -54.2976 13.8073 97.7114
    endloop
  endfacet
  facet normal -0.573793 0.809011 -0.127522
    outer loop
      vertex -39.9444 10.3928 4.5
      vertex -57.5396 12.4924 96.9909
      vertex -36.9841 12.4924 4.5
    endloop
  endfacet
  facet normal -0.57379 0.809014 -0.127521
    outer loop
      vertex -57.5396 12.4924 96.9909
      vertex -39.9444 10.3928 4.5
      vertex -60.3606 10.3928 96.364
    endloop
  endfacet
  facet normal -0.216988 -4.60747e-05 0.976174
    outer loop
      vertex -62.364 -7.27229 95.9187
      vertex -63.9531 -4.47679 95.5656
      vertex -63.0281 -6.86998 95.7711
    endloop
  endfacet
  facet normal -0.155392 -0.987253 -0.0344296
    outer loop
      vertex -33.5413 -13.7 4.5
      vertex -50.7975 -14.255 98.2973
      vertex -50.8044 -14.2539 98.2969
    endloop
  endfacet
  facet normal -0.152704 -0.987689 -0.0339376
    outer loop
      vertex -29.9839 -14.25 4.5
      vertex -50.7975 -14.255 98.2973
      vertex -33.5413 -13.7 4.5
    endloop
  endfacet
  facet normal -0.152888 -0.987659 -0.0339785
    outer loop
      vertex -29.0404 -14.255 0.4
      vertex -29.9839 -14.25 4.5
      vertex -29.0727 -14.25 0.4
    endloop
  endfacet
  facet normal -0.152893 -0.987658 -0.0339795
    outer loop
      vertex -29.9839 -14.25 4.5
      vertex -29.0404 -14.255 0.4
      vertex -50.7975 -14.255 98.2973
    endloop
  endfacet
  facet normal -0.216996 -0.000383184 0.976172
    outer loop
      vertex -52.5903 -13.7335 98.0909
      vertex -55.1368 -13.5575 97.5249
      vertex -51.9959 -14.0671 98.2229
    endloop
  endfacet
  facet normal -0.216973 -3.65467e-05 0.976178
    outer loop
      vertex -55.1368 -13.5575 97.5249
      vertex -52.5903 -13.7335 98.0909
      vertex -58.2918 -12.0367 96.8237
    endloop
  endfacet
  facet normal -0.415626 -0.904833 -0.0923706
    outer loop
      vertex -35.1483 -13.2425 4.5
      vertex -55.1368 -13.5575 97.5249
      vertex -58.2918 -12.0367 96.8237
    endloop
  endfacet
  facet normal -0.415609 -0.904841 -0.092367
    outer loop
      vertex -55.1368 -13.5575 97.5249
      vertex -35.1483 -13.2425 4.5
      vertex -34.4625 -13.5575 4.5
    endloop
  endfacet
  facet normal -0.622252 -0.770505 -0.138292
    outer loop
      vertex -38.3738 -11.5518 4.5
      vertex -58.2918 -12.0367 96.8237
      vertex -60.9785 -9.75978 96.2266
    endloop
  endfacet
  facet normal -0.62227 -0.77049 -0.138296
    outer loop
      vertex -58.2918 -12.0367 96.8237
      vertex -38.3738 -11.5518 4.5
      vertex -37.7734 -12.0367 4.5
    endloop
  endfacet
  facet normal -0.415622 -0.904835 -0.0923696
    outer loop
      vertex -35.1483 -13.2425 4.5
      vertex -58.2918 -12.0367 96.8237
      vertex -37.7734 -12.0367 4.5
    endloop
  endfacet
  facet normal 0.75228 -0.637278 0.167184
    outer loop
      vertex -4.42007 -10.0674 0.4
      vertex -23.6022 -7.64052 95.9652
      vertex -23.7689 -7.83098 95.9893
    endloop
  endfacet
  facet normal 0.752156 -0.63743 0.167163
    outer loop
      vertex -23.6022 -7.64052 95.9652
      vertex -4.42007 -10.0674 0.4
      vertex -2.36336 -7.64052 0.4
    endloop
  endfacet
  facet normal 0.976162 -0.00652381 0.216946
    outer loop
      vertex -21.1152 0 95
      vertex -0.0909113 0.00498962 0.4
      vertex -21.1153 0.00498962 95.0006
    endloop
  endfacet
  facet normal 0.976162 0.00652381 0.216946
    outer loop
      vertex -0.0909113 -0.00498962 0.4
      vertex -21.1152 0 95
      vertex -21.1153 -0.00498962 95.0006
    endloop
  endfacet
  facet normal 0.976183 0 0.216951
    outer loop
      vertex -21.1152 0 95
      vertex -0.0909113 -0.00498962 0.4
      vertex -0.0909113 0.00498962 0.4
    endloop
  endfacet
  facet normal 0.622251 0.770506 0.138292
    outer loop
      vertex -6.52276 11.7589 0.4
      vertex -25.4089 9.75978 96.5175
      vertex -4.04734 9.75978 0.4
    endloop
  endfacet
  facet normal 0.62224 0.770515 0.13829
    outer loop
      vertex -25.4089 9.75978 96.5175
      vertex -6.52276 11.7589 0.4
      vertex -25.5936 9.89903 96.5727
    endloop
  endfacet
  facet normal -0.359346 0.929781 -0.0798627
    outer loop
      vertex -36.9841 12.4924 4.5
      vertex -54.2976 13.8073 97.7114
      vertex -33.5819 13.8073 4.5
    endloop
  endfacet
  facet normal -0.359353 0.929778 -0.0798639
    outer loop
      vertex -54.2976 13.8073 97.7114
      vertex -36.9841 12.4924 4.5
      vertex -57.5396 12.4924 96.9909
    endloop
  endfacet
  facet normal -0.789736 -0.587802 -0.175514
    outer loop
      vertex -40.5928 -9.75978 4.5
      vertex -60.9785 -9.75978 96.2266
      vertex -42.2705 -7.50572 4.5
    endloop
  endfacet
  facet normal -0.976162 0.00652382 -0.216946
    outer loop
      vertex -44.5493 0.00498962 4.5
      vertex -64.6624 0 95
      vertex -64.6625 0.00498962 95.0006
    endloop
  endfacet
  facet normal -0.976183 0 -0.216951
    outer loop
      vertex -44.5493 -0.00498962 4.5
      vertex -64.6624 0 95
      vertex -44.5493 0.00498962 4.5
    endloop
  endfacet
  facet normal -0.976162 -0.00652382 -0.216946
    outer loop
      vertex -64.6624 0 95
      vertex -44.5493 -0.00498962 4.5
      vertex -64.6625 -0.00498962 95.0006
    endloop
  endfacet
  facet normal -0.216911 -6.59404e-05 0.976191
    outer loop
      vertex -62.5833 7.64052 95.87
      vertex -62.7432 6.60526 95.8344
      vertex -61.9529 7.9955 96.0101
    endloop
  endfacet
  facet normal -0.216954 1.18946e-05 0.976182
    outer loop
      vertex -54.2976 13.8073 97.7114
      vertex -59.9393 9.60834 96.4576
      vertex -51.9079 14.1165 98.2425
    endloop
  endfacet
  facet normal -0.216868 -0.000146837 0.976201
    outer loop
      vertex -61.8405 8.19336 96.0351
      vertex -62.5833 7.64052 95.87
      vertex -61.9529 7.9955 96.0101
    endloop
  endfacet
  facet normal -0.21697 -2.39038e-05 0.976178
    outer loop
      vertex -52.5903 -13.7335 98.0909
      vertex -61.1311 -8.93934 96.1927
      vertex -58.2918 -12.0367 96.8237
    endloop
  endfacet
  facet normal -0.216967 -8.80519e-06 0.976179
    outer loop
      vertex -62.364 -7.27229 95.9187
      vertex -63.0281 -6.86998 95.7711
      vertex -61.8821 -8.12013 96.0258
    endloop
  endfacet
  facet normal -0.216966 -2.01511e-05 0.976179
    outer loop
      vertex -61.1311 -8.93934 96.1927
      vertex -60.9785 -9.75978 96.2266
      vertex -58.2918 -12.0367 96.8237
    endloop
  endfacet
  facet normal -0.216911 -9.38541e-06 0.976191
    outer loop
      vertex -61.5501 -8.70415 96.0996
      vertex -60.9785 -9.75978 96.2266
      vertex -61.1311 -8.93934 96.1927
    endloop
  endfacet
  facet normal -0.2169 5.52917e-05 0.976194
    outer loop
      vertex -63.0281 -6.86998 95.7711
      vertex -61.5501 -8.70415 96.0996
      vertex -61.8821 -8.12013 96.0258
    endloop
  endfacet
  facet normal -0.217111 -0.000123208 0.976147
    outer loop
      vertex -61.5501 -8.70415 96.0996
      vertex -63.0281 -6.86998 95.7711
      vertex -60.9785 -9.75978 96.2266
    endloop
  endfacet
  facet normal 0.964145 -0.156553 0.21428
    outer loop
      vertex -0.72569 -3.91735 0.4
      vertex -21.1153 -0.00498962 95.0006
      vertex -21.1837 -0.364095 95.046
    endloop
  endfacet
  facet normal 0.964164 -0.156435 0.214279
    outer loop
      vertex -21.1153 -0.00498962 95.0006
      vertex -0.72569 -3.91735 0.4
      vertex -0.0909113 -0.00498962 0.4
    endloop
  endfacet
  facet normal 0.907639 0.368107 0.201717
    outer loop
      vertex -21.7843 3.80432 95.4806
      vertex -1.89655 6.86998 0.4
      vertex -23.1137 6.86998 95.8679
    endloop
  endfacet
  facet normal 0.907636 0.368112 0.201717
    outer loop
      vertex -1.89655 6.86998 0.4
      vertex -21.7843 3.80432 95.4806
      vertex -1.74384 6.49345 0.4
    endloop
  endfacet
  facet normal 0.152726 0.987686 0.0339423
    outer loop
      vertex -10.1777 13.5575 0.4
      vertex -14.25 14.0463 4.5
      vertex -31.8734 13.5575 98.0212
    endloop
  endfacet
  facet normal 0.152726 0.987686 0.0339427
    outer loop
      vertex -14.25 14.0463 4.5
      vertex -10.1777 13.5575 0.4
      vertex -14.25 14.1872 0.4
    endloop
  endfacet
  facet normal 0.152708 0.987688 0.0339389
    outer loop
      vertex -15.5675 14.25 4.5
      vertex -31.8734 13.5575 98.0212
      vertex -14.25 14.0463 4.5
    endloop
  endfacet
  facet normal 0.15272 0.987686 0.0339411
    outer loop
      vertex -31.8734 13.5575 98.0212
      vertex -15.5675 14.25 4.5
      vertex -36.4457 14.255 98.2973
    endloop
  endfacet
  facet normal 0.152888 0.987659 0.0339785
    outer loop
      vertex -14.6886 14.255 0.4
      vertex -15.5675 14.25 4.5
      vertex -14.6563 14.25 0.4
    endloop
  endfacet
  facet normal 0.152884 0.98766 0.0339776
    outer loop
      vertex -15.5675 14.25 4.5
      vertex -14.6886 14.255 0.4
      vertex -36.4457 14.255 98.2973
    endloop
  endfacet
  facet normal 0.415616 0.904838 0.0923684
    outer loop
      vertex -10.1777 13.5575 0.4
      vertex -28.4287 12.0367 97.419
      vertex -6.86677 12.0367 0.4
    endloop
  endfacet
  facet normal 0.415623 0.904834 0.0923696
    outer loop
      vertex -28.4287 12.0367 97.419
      vertex -10.1777 13.5575 0.4
      vertex -31.8734 13.5575 98.0212
    endloop
  endfacet
  facet normal -0.122351 0.992114 -0.0271918
    outer loop
      vertex -33.5819 13.8073 4.5
      vertex -54.2976 13.8073 97.7114
      vertex -30.6741 14.1659 4.5
    endloop
  endfacet
  facet normal -0.752169 0.637414 -0.167165
    outer loop
      vertex -41.7658 8.24349 4.5
      vertex -60.3606 10.3928 96.364
      vertex -39.9444 10.3928 4.5
    endloop
  endfacet
  facet normal -0.216802 -8.8568e-05 0.976216
    outer loop
      vertex -64.0679 4.40848 95.54
      vertex -63.01 6.13589 95.7751
      vertex -62.5833 7.64052 95.87
    endloop
  endfacet
  facet normal -0.217066 8.10954e-05 0.976157
    outer loop
      vertex -63.01 6.13589 95.7751
      vertex -64.0679 4.40848 95.54
      vertex -64.0963 4.22477 95.5337
    endloop
  endfacet
  facet normal -0.216839 -7.76967e-05 0.976207
    outer loop
      vertex -62.5833 7.64052 95.87
      vertex -63.01 6.13589 95.7751
      vertex -62.7432 6.60526 95.8344
    endloop
  endfacet
  facet normal 0.883269 -0.425794 0.196302
    outer loop
      vertex -2.36336 -7.64052 0.4
      vertex -21.9534 -4.40848 95.5569
      vertex -23.6022 -7.64052 95.9652
    endloop
  endfacet
  facet normal 0.883277 -0.425778 0.196303
    outer loop
      vertex -21.9534 -4.40848 95.5569
      vertex -2.36336 -7.64052 0.4
      vertex -0.805376 -4.40848 0.4
    endloop
  endfacet
  facet normal 0.964166 -0.156425 0.21428
    outer loop
      vertex -0.805376 -4.40848 0.4
      vertex -21.1837 -0.364095 95.046
      vertex -21.9534 -4.40848 95.5569
    endloop
  endfacet
  facet normal 0.964164 -0.156436 0.21428
    outer loop
      vertex -21.1837 -0.364095 95.046
      vertex -0.805376 -4.40848 0.4
      vertex -0.72569 -3.91735 0.4
    endloop
  endfacet
  facet normal -0.964164 0.156438 -0.21428
    outer loop
      vertex -64.6625 0.00498962 95.0006
      vertex -64.0679 4.40848 95.54
      vertex -43.8348 4.40848 4.5
    endloop
  endfacet
  facet normal -0.964163 0.156443 -0.214279
    outer loop
      vertex -64.6625 0.00498962 95.0006
      vertex -43.8348 4.40848 4.5
      vertex -44.5493 0.00498962 4.5
    endloop
  endfacet
  facet normal -0.964261 0.156401 -0.213866
    outer loop
      vertex -64.0679 4.40848 95.54
      vertex -64.6625 0.00498962 95.0006
      vertex -64.0963 4.22477 95.5337
    endloop
  endfacet
  facet normal -0.968482 -0.125359 -0.215239
    outer loop
      vertex -44.1931 -2.75688 4.5
      vertex -64.6625 -0.00498962 95.0006
      vertex -44.5493 -0.00498962 4.5
    endloop
  endfacet
  facet normal -0.968308 -0.126838 -0.215155
    outer loop
      vertex -64.6625 -0.00498962 95.0006
      vertex -44.1931 -2.75688 4.5
      vertex -64.6613 -0.0166951 95.0021
    endloop
  endfacet
  facet normal 0.573784 -0.809018 0.12752
    outer loop
      vertex -7.6561 -12.4924 0.4
      vertex -26.113 -10.3928 96.7682
      vertex -29.2581 -12.4924 97.5994
    endloop
  endfacet
  facet normal 0.573793 -0.809011 0.127522
    outer loop
      vertex -26.113 -10.3928 96.7682
      vertex -7.6561 -12.4924 0.4
      vertex -4.6958 -10.3928 0.4
    endloop
  endfacet
  facet normal 0.752156 -0.637431 0.167162
    outer loop
      vertex -4.6958 -10.3928 0.4
      vertex -23.7689 -7.83098 95.9893
      vertex -24.5334 -8.70415 96.0996
    endloop
  endfacet
  facet normal 0.752172 -0.637411 0.167165
    outer loop
      vertex -4.6958 -10.3928 0.4
      vertex -24.5334 -8.70415 96.0996
      vertex -26.113 -10.3928 96.7682
    endloop
  endfacet
  facet normal 0.752198 -0.63738 0.167169
    outer loop
      vertex -23.7689 -7.83098 95.9893
      vertex -4.6958 -10.3928 0.4
      vertex -4.42007 -10.0674 0.4
    endloop
  endfacet
  facet normal 0.907634 0.368118 0.201716
    outer loop
      vertex -21.6735 3.54883 95.4483
      vertex -1.74384 6.49345 0.4
      vertex -21.7843 3.80432 95.4806
    endloop
  endfacet
  facet normal 0.90763 0.368127 0.201716
    outer loop
      vertex -1.74384 6.49345 0.4
      vertex -21.6735 3.54883 95.4483
      vertex -0.549527 3.54883 0.4
    endloop
  endfacet
  facet normal 0.968482 0.125355 0.21524
    outer loop
      vertex -21.1609 0.29439 95.0372
      vertex -0.549527 3.54883 0.4
      vertex -21.6735 3.54883 95.4483
    endloop
  endfacet
  facet normal 0.968485 0.125333 0.21524
    outer loop
      vertex -0.549527 3.54883 0.4
      vertex -21.1609 0.29439 95.0372
      vertex -0.498565 3.15503 0.4
    endloop
  endfacet
  facet normal 0.968479 0.125379 0.21524
    outer loop
      vertex -21.1153 0.00498962 95.0006
      vertex -0.498565 3.15503 0.4
      vertex -21.1609 0.29439 95.0372
    endloop
  endfacet
  facet normal 0.968485 0.125334 0.21524
    outer loop
      vertex -0.498565 3.15503 0.4
      vertex -21.1153 0.00498962 95.0006
      vertex -0.0909113 0.00498962 0.4
    endloop
  endfacet
  facet normal 1 -0 0
    outer loop
      vertex -85.5 -14.25 18.5
      vertex -85.5 14.25 4.5
      vertex -85.5 14.25 18.5
    endloop
  endfacet
  facet normal 1 0 0
    outer loop
      vertex -85.5 14.25 4.5
      vertex -85.5 -14.25 18.5
      vertex -85.5 -14.25 4.5
    endloop
  endfacet
  facet normal 0 -1 0
    outer loop
      vertex -99 -14.25 -2.5
      vertex -85.5 -14.25 0
      vertex -99 -14.25 0
    endloop
  endfacet
  facet normal 0 -1 -0
    outer loop
      vertex -85.5 -14.25 0
      vertex -99 -14.25 -2.5
      vertex -85.5 -14.25 -2.5
    endloop
  endfacet
  facet normal 0 -1 0
    outer loop
      vertex -14.6481 -14.25 0.4
      vertex -14.25 -14.25 4.5
      vertex -15.5593 -14.25 4.5
    endloop
  endfacet
  facet normal 0 -1 -0
    outer loop
      vertex -14.25 -14.25 4.5
      vertex -14.6481 -14.25 0.4
      vertex -14.25 -14.25 0.4
    endloop
  endfacet
  facet normal 0 -1 0
    outer loop
      vertex -99 -14.25 98.2953
      vertex -90 -14.25 18.5
      vertex -90 -14.25 98.2953
    endloop
  endfacet
  facet normal 0 -1 0
    outer loop
      vertex -90 -14.25 18.5
      vertex -85.5 -14.25 4.5
      vertex -85.5 -14.25 18.5
    endloop
  endfacet
  facet normal 0 -1 0
    outer loop
      vertex -99 -14.25 0.4
      vertex -90 -14.25 18.5
      vertex -99 -14.25 98.2953
    endloop
  endfacet
  facet normal 0 -1 0
    outer loop
      vertex -99 -14.25 0.4
      vertex -85.5 -14.25 4.5
      vertex -90 -14.25 18.5
    endloop
  endfacet
  facet normal 0 -1 0
    outer loop
      vertex -29.0727 -14.25 0.4
      vertex -85.5 -14.25 4.5
      vertex -99 -14.25 0.4
    endloop
  endfacet
  facet normal 0 -1 0
    outer loop
      vertex -85.5 -14.25 4.5
      vertex -29.0727 -14.25 0.4
      vertex -29.9839 -14.25 4.5
    endloop
  endfacet
  facet normal 0 1 -0
    outer loop
      vertex -85.5 14.25 -2.5
      vertex -99 14.25 0
      vertex -85.5 14.25 0
    endloop
  endfacet
  facet normal 0 1 0
    outer loop
      vertex -99 14.25 0
      vertex -85.5 14.25 -2.5
      vertex -99 14.25 -2.5
    endloop
  endfacet
  facet normal 0 1 0
    outer loop
      vertex -14.6563 14.25 0.4
      vertex -14.25 14.25 4.5
      vertex -14.25 14.25 0.4
    endloop
  endfacet
  facet normal 0 1 0
    outer loop
      vertex -14.25 14.25 4.5
      vertex -14.6563 14.25 0.4
      vertex -15.5675 14.25 4.5
    endloop
  endfacet
  facet normal 0 1 0
    outer loop
      vertex -29.9921 14.25 4.5
      vertex -29.0809 14.25 0.4
      vertex -85.5 14.25 4.5
    endloop
  endfacet
  facet normal 0 1 0
    outer loop
      vertex -85.5 14.25 18.5
      vertex -85.5 14.25 4.5
      vertex -90 14.25 18.5
    endloop
  endfacet
  facet normal 0 1 -0
    outer loop
      vertex -90 14.25 18.5
      vertex -99 14.25 98.2953
      vertex -90 14.25 98.2953
    endloop
  endfacet
  facet normal 0 1 0
    outer loop
      vertex -90 14.25 18.5
      vertex -99 14.25 0.4
      vertex -99 14.25 98.2953
    endloop
  endfacet
  facet normal 0 1 0
    outer loop
      vertex -85.5 14.25 4.5
      vertex -99 14.25 0.4
      vertex -90 14.25 18.5
    endloop
  endfacet
  facet normal 0 1 0
    outer loop
      vertex -99 14.25 0.4
      vertex -85.5 14.25 4.5
      vertex -29.0809 14.25 0.4
    endloop
  endfacet
  facet normal -0 0 1
    outer loop
      vertex -90 14.25 18.5
      vertex -85.5 -14.25 18.5
      vertex -85.5 14.25 18.5
    endloop
  endfacet
  facet normal 0 0 1
    outer loop
      vertex -85.5 -14.25 18.5
      vertex -90 14.25 18.5
      vertex -90 -14.25 18.5
    endloop
  endfacet
  facet normal 1 -0 0
    outer loop
      vertex -90 8.70415 96.0996
      vertex -90 14.25 18.5
      vertex -90 14.25 98.2953
    endloop
  endfacet
  facet normal 1 -0 0
    outer loop
      vertex -90 0 95
      vertex -90 14.25 18.5
      vertex -90 8.70415 96.0996
    endloop
  endfacet
  facet normal 1 0 0
    outer loop
      vertex -90 -14.25 18.5
      vertex -90 0 95
      vertex -90 -8.70415 96.0996
    endloop
  endfacet
  facet normal 1 0 0
    outer loop
      vertex -90 -14.25 18.5
      vertex -90 -8.70415 96.0996
      vertex -90 -14.25 98.2953
    endloop
  endfacet
  facet normal 1 0 0
    outer loop
      vertex -90 0 95
      vertex -90 -14.25 18.5
      vertex -90 14.25 18.5
    endloop
  endfacet
  facet normal 0 0 1
    outer loop
      vertex -85.5 14.25 0
      vertex -85.85 13.9 0
      vertex -85.5 -14.25 0
    endloop
  endfacet
  facet normal 0 0 1
    outer loop
      vertex -85.5 14.25 0
      vertex -98.65 13.9 0
      vertex -85.85 13.9 0
    endloop
  endfacet
  facet normal 0 0 1
    outer loop
      vertex -98.65 13.9 0
      vertex -99 14.25 0
      vertex -98.65 -13.9 0
    endloop
  endfacet
  facet normal -0 0 1
    outer loop
      vertex -99 14.25 0
      vertex -98.65 13.9 0
      vertex -85.5 14.25 0
    endloop
  endfacet
  facet normal -0 0 1
    outer loop
      vertex -85.85 -13.9 0
      vertex -85.5 -14.25 0
      vertex -85.85 13.9 0
    endloop
  endfacet
  facet normal -0 0 1
    outer loop
      vertex -98.65 -13.9 0
      vertex -85.5 -14.25 0
      vertex -85.85 -13.9 0
    endloop
  endfacet
  facet normal 0 0 1
    outer loop
      vertex -98.65 -13.9 0
      vertex -99 -14.25 0
      vertex -85.5 -14.25 0
    endloop
  endfacet
  facet normal 0 0 1
    outer loop
      vertex -99 -14.25 0
      vertex -98.65 -13.9 0
      vertex -99 14.25 0
    endloop
  endfacet
  facet normal 1 -0 0
    outer loop
      vertex -14.25 -14.25 4.5
      vertex -14.25 -14.1931 0.685758
      vertex -14.25 -14.0885 4.5
    endloop
  endfacet
  facet normal 1 0 0
    outer loop
      vertex -14.25 -14.25 0.4
      vertex -14.25 -14.1931 0.685758
      vertex -14.25 -14.25 4.5
    endloop
  endfacet
  facet normal 1 0 0
    outer loop
      vertex -14.25 -14.1931 0.685758
      vertex -14.25 -14.25 0.4
      vertex -14.25 -14.2009 0.4
    endloop
  endfacet
  facet normal 1 0 0
    outer loop
      vertex -14.25 14.25 4.5
      vertex -14.25 14.1872 0.4
      vertex -14.25 14.25 0.4
    endloop
  endfacet
  facet normal 1 0 -0
    outer loop
      vertex -14.25 14.1872 0.4
      vertex -14.25 14.25 4.5
      vertex -14.25 14.0463 4.5
    endloop
  endfacet
  facet normal -0 0 1
    outer loop
      vertex -14.9803 -14.1786 4.5
      vertex -14.25 -14.25 4.5
      vertex -14.25 -14.0885 4.5
    endloop
  endfacet
  facet normal 0 0 1
    outer loop
      vertex -14.25 -14.25 4.5
      vertex -14.9803 -14.1786 4.5
      vertex -15.5593 -14.25 4.5
    endloop
  endfacet
  facet normal 0 0 1
    outer loop
      vertex -14.25 14.25 4.5
      vertex -15.5675 14.25 4.5
      vertex -14.25 14.0463 4.5
    endloop
  endfacet
  facet normal 0 0 1
    outer loop
      vertex -44.5493 0.00498962 4.5
      vertex -85.5 14.25 4.5
      vertex -44.5493 -0.00498962 4.5
    endloop
  endfacet
  facet normal 0 0 1
    outer loop
      vertex -43.8348 4.40848 4.5
      vertex -85.5 14.25 4.5
      vertex -44.5493 0.00498962 4.5
    endloop
  endfacet
  facet normal 0 0 1
    outer loop
      vertex -42.6206 6.92744 4.5
      vertex -85.5 14.25 4.5
      vertex -43.8348 4.40848 4.5
    endloop
  endfacet
  facet normal 0 0 1
    outer loop
      vertex -42.2768 7.64052 4.5
      vertex -85.5 14.25 4.5
      vertex -42.6206 6.92744 4.5
    endloop
  endfacet
  facet normal 0 0 1
    outer loop
      vertex -41.7658 8.24349 4.5
      vertex -85.5 14.25 4.5
      vertex -42.2768 7.64052 4.5
    endloop
  endfacet
  facet normal 0 0 1
    outer loop
      vertex -39.9444 10.3928 4.5
      vertex -85.5 14.25 4.5
      vertex -41.7658 8.24349 4.5
    endloop
  endfacet
  facet normal 0 0 1
    outer loop
      vertex -36.9841 12.4924 4.5
      vertex -85.5 14.25 4.5
      vertex -39.9444 10.3928 4.5
    endloop
  endfacet
  facet normal 0 0 1
    outer loop
      vertex -33.5819 13.8073 4.5
      vertex -85.5 14.25 4.5
      vertex -36.9841 12.4924 4.5
    endloop
  endfacet
  facet normal 0 0 1
    outer loop
      vertex -30.6741 14.1659 4.5
      vertex -85.5 14.25 4.5
      vertex -33.5819 13.8073 4.5
    endloop
  endfacet
  facet normal -0 0 1
    outer loop
      vertex -85.5 14.25 4.5
      vertex -30.6741 14.1659 4.5
      vertex -29.9921 14.25 4.5
    endloop
  endfacet
  facet normal 0 0 1
    outer loop
      vertex -85.5 -14.25 4.5
      vertex -35.1483 -13.2425 4.5
      vertex -37.7734 -12.0367 4.5
    endloop
  endfacet
  facet normal 0 0 1
    outer loop
      vertex -85.5 -14.25 4.5
      vertex -38.3738 -11.5518 4.5
      vertex -40.5928 -9.75978 4.5
    endloop
  endfacet
  facet normal 0 0 1
    outer loop
      vertex -85.5 -14.25 4.5
      vertex -42.2705 -7.50572 4.5
      vertex -42.7436 -6.86998 4.5
    endloop
  endfacet
  facet normal 0 0 1
    outer loop
      vertex -85.5 -14.25 4.5
      vertex -44.5493 -0.00498962 4.5
      vertex -85.5 14.25 4.5
    endloop
  endfacet
  facet normal 0 0 1
    outer loop
      vertex -44.5493 -0.00498962 4.5
      vertex -85.5 -14.25 4.5
      vertex -44.1931 -2.75688 4.5
    endloop
  endfacet
  facet normal 0 0 1
    outer loop
      vertex -44.1931 -2.75688 4.5
      vertex -85.5 -14.25 4.5
      vertex -44.0907 -3.54883 4.5
    endloop
  endfacet
  facet normal 0 0 1
    outer loop
      vertex -44.0907 -3.54883 4.5
      vertex -85.5 -14.25 4.5
      vertex -43.0419 -6.13471 4.5
    endloop
  endfacet
  facet normal 0 0 1
    outer loop
      vertex -43.0419 -6.13471 4.5
      vertex -85.5 -14.25 4.5
      vertex -42.7436 -6.86998 4.5
    endloop
  endfacet
  facet normal 0 0 1
    outer loop
      vertex -42.2705 -7.50572 4.5
      vertex -85.5 -14.25 4.5
      vertex -40.5928 -9.75978 4.5
    endloop
  endfacet
  facet normal 0 0 1
    outer loop
      vertex -33.5413 -13.7 4.5
      vertex -85.5 -14.25 4.5
      vertex -29.9839 -14.25 4.5
    endloop
  endfacet
  facet normal 0 0 1
    outer loop
      vertex -34.4625 -13.5575 4.5
      vertex -85.5 -14.25 4.5
      vertex -33.5413 -13.7 4.5
    endloop
  endfacet
  facet normal 0 0 1
    outer loop
      vertex -35.1483 -13.2425 4.5
      vertex -85.5 -14.25 4.5
      vertex -34.4625 -13.5575 4.5
    endloop
  endfacet
  facet normal 0 0 1
    outer loop
      vertex -38.3738 -11.5518 4.5
      vertex -85.5 -14.25 4.5
      vertex -37.7734 -12.0367 4.5
    endloop
  endfacet
  facet normal 0 0 -1
    outer loop
      vertex -85.5 -14.25 -2.5
      vertex -89 -2.75 -2.5
      vertex -85.5 14.25 -2.5
    endloop
  endfacet
  facet normal 0 0 -1
    outer loop
      vertex -99 -14.25 -2.5
      vertex -89 -2.75 -2.5
      vertex -85.5 -14.25 -2.5
    endloop
  endfacet
  facet normal -0 0 -1
    outer loop
      vertex -89 -2.75 -2.5
      vertex -99 -14.25 -2.5
      vertex -99 -2.75 -2.5
    endloop
  endfacet
  facet normal 0 0 -1
    outer loop
      vertex -89 2.75 -2.5
      vertex -85.5 14.25 -2.5
      vertex -89 -2.75 -2.5
    endloop
  endfacet
  facet normal 0 0 -1
    outer loop
      vertex -99 14.25 -2.5
      vertex -89 2.75 -2.5
      vertex -99 2.75 -2.5
    endloop
  endfacet
  facet normal 0 0 -1
    outer loop
      vertex -89 2.75 -2.5
      vertex -99 14.25 -2.5
      vertex -85.5 14.25 -2.5
    endloop
  endfacet
  facet normal 1 -0 0
    outer loop
      vertex -85.5 -14.25 0
      vertex -85.5 14.25 -2.5
      vertex -85.5 14.25 0
    endloop
  endfacet
  facet normal 1 0 0
    outer loop
      vertex -85.5 14.25 -2.5
      vertex -85.5 -14.25 0
      vertex -85.5 -14.25 -2.5
    endloop
  endfacet
  facet normal 0 0 -1
    outer loop
      vertex -99 -2.75 -10
      vertex -89 2.75 -10
      vertex -89 -2.75 -10
    endloop
  endfacet
  facet normal -0 0 -1
    outer loop
      vertex -89 2.75 -10
      vertex -99 -2.75 -10
      vertex -99 2.75 -10
    endloop
  endfacet
  facet normal 1 -0 0
    outer loop
      vertex -89 -2.75 -2.5
      vertex -89 2.75 -10
      vertex -89 2.75 -2.5
    endloop
  endfacet
  facet normal 1 0 0
    outer loop
      vertex -89 2.75 -10
      vertex -89 -2.75 -2.5
      vertex -89 -2.75 -10
    endloop
  endfacet
  facet normal 0 -1 0
    outer loop
      vertex -99 -2.75 -10
      vertex -89 -2.75 -2.5
      vertex -99 -2.75 -2.5
    endloop
  endfacet
  facet normal 0 -1 -0
    outer loop
      vertex -89 -2.75 -2.5
      vertex -99 -2.75 -10
      vertex -89 -2.75 -10
    endloop
  endfacet
  facet normal 0 1 -0
    outer loop
      vertex -89 2.75 -10
      vertex -99 2.75 -2.5
      vertex -89 2.75 -2.5
    endloop
  endfacet
  facet normal 0 1 0
    outer loop
      vertex -99 2.75 -2.5
      vertex -89 2.75 -10
      vertex -99 2.75 -10
    endloop
  endfacet
  facet normal 0 0 -1
    outer loop
      vertex -14.6481 -14.25 0.4
      vertex -14.25 -14.2009 0.4
      vertex -14.25 -14.25 0.4
    endloop
  endfacet
  facet normal -0 0 -1
    outer loop
      vertex -14.25 -14.2009 0.4
      vertex -14.6481 -14.25 0.4
      vertex -14.25 14.1872 0.4
    endloop
  endfacet
  facet normal 0 0 -1
    outer loop
      vertex -14.6886 -14.255 0.4
      vertex -14.25 14.1872 0.4
      vertex -14.6481 -14.25 0.4
    endloop
  endfacet
  facet normal 0 0 -1
    outer loop
      vertex -14.25 14.1872 0.4
      vertex -14.6563 14.25 0.4
      vertex -14.25 14.25 0.4
    endloop
  endfacet
  facet normal -0 0 -1
    outer loop
      vertex -14.25 14.1872 0.4
      vertex -14.6886 -14.255 0.4
      vertex -14.6563 14.25 0.4
    endloop
  endfacet
  facet normal 0 0 -1
    outer loop
      vertex -14.6886 -14.255 0.4
      vertex -14.6886 14.255 0.4
      vertex -14.6563 14.25 0.4
    endloop
  endfacet
  facet normal 0 0 -1
    outer loop
      vertex -29.0404 -14.255 0.4
      vertex -14.6886 14.255 0.4
      vertex -14.6886 -14.255 0.4
    endloop
  endfacet
  facet normal 0 0 -1
    outer loop
      vertex -29.0404 -14.255 0.4
      vertex -29.0404 14.255 0.4
      vertex -14.6886 14.255 0.4
    endloop
  endfacet
  facet normal 0 0 -1
    outer loop
      vertex -29.0727 -14.25 0.4
      vertex -29.0404 14.255 0.4
      vertex -29.0404 -14.255 0.4
    endloop
  endfacet
  facet normal 0 0 -1
    outer loop
      vertex -29.0727 -14.25 0.4
      vertex -29.0809 14.25 0.4
      vertex -29.0404 14.255 0.4
    endloop
  endfacet
  facet normal 0 0 -1
    outer loop
      vertex -29.0727 -14.25 0.4
      vertex -85.85 -13.9 0.4
      vertex -29.0809 14.25 0.4
    endloop
  endfacet
  facet normal 0 0 -1
    outer loop
      vertex -99 -14.25 0.4
      vertex -85.85 -13.9 0.4
      vertex -29.0727 -14.25 0.4
    endloop
  endfacet
  facet normal -0 0 -1
    outer loop
      vertex -98.65 -13.9 0.4
      vertex -99 -14.25 0.4
      vertex -98.65 13.9 0.4
    endloop
  endfacet
  facet normal -0 0 -1
    outer loop
      vertex -85.85 -13.9 0.4
      vertex -99 -14.25 0.4
      vertex -98.65 -13.9 0.4
    endloop
  endfacet
  facet normal 0 0 -1
    outer loop
      vertex -0.0909113 -0.00498962 0.4
      vertex -0.498565 3.15503 0.4
      vertex -0.0909113 0.00498962 0.4
    endloop
  endfacet
  facet normal 0 0 -1
    outer loop
      vertex -0.72569 -3.91735 0.4
      vertex -0.498565 3.15503 0.4
      vertex -0.0909113 -0.00498962 0.4
    endloop
  endfacet
  facet normal 0 0 -1
    outer loop
      vertex -1.74384 6.49345 0.4
      vertex -0.498565 3.15503 0.4
      vertex -0.72569 -3.91735 0.4
    endloop
  endfacet
  facet normal 0 0 -1
    outer loop
      vertex -2.36336 -7.64052 0.4
      vertex -0.72569 -3.91735 0.4
      vertex -0.805376 -4.40848 0.4
    endloop
  endfacet
  facet normal 0 0 -1
    outer loop
      vertex -0.498565 3.15503 0.4
      vertex -1.74384 6.49345 0.4
      vertex -0.549527 3.54883 0.4
    endloop
  endfacet
  facet normal 0 0 -1
    outer loop
      vertex -4.42007 -10.0674 0.4
      vertex -0.72569 -3.91735 0.4
      vertex -2.36336 -7.64052 0.4
    endloop
  endfacet
  facet normal -0 0 -1
    outer loop
      vertex -0.72569 -3.91735 0.4
      vertex -4.42007 -10.0674 0.4
      vertex -1.74384 6.49345 0.4
    endloop
  endfacet
  facet normal 0 0 -1
    outer loop
      vertex -6.52276 11.7589 0.4
      vertex -1.74384 6.49345 0.4
      vertex -4.42007 -10.0674 0.4
    endloop
  endfacet
  facet normal 0 0 -1
    outer loop
      vertex -1.74384 6.49345 0.4
      vertex -4.04734 9.75978 0.4
      vertex -1.89655 6.86998 0.4
    endloop
  endfacet
  facet normal 0 0 -1
    outer loop
      vertex -8.0808 -12.6565 0.4
      vertex -4.42007 -10.0674 0.4
      vertex -4.6958 -10.3928 0.4
    endloop
  endfacet
  facet normal 0 0 -1
    outer loop
      vertex -1.74384 6.49345 0.4
      vertex -6.52276 11.7589 0.4
      vertex -4.04734 9.75978 0.4
    endloop
  endfacet
  facet normal -0 0 -1
    outer loop
      vertex -4.42007 -10.0674 0.4
      vertex -8.0808 -12.6565 0.4
      vertex -6.52276 11.7589 0.4
    endloop
  endfacet
  facet normal 0 0 -1
    outer loop
      vertex -8.0808 -12.6565 0.4
      vertex -4.6958 -10.3928 0.4
      vertex -7.6561 -12.4924 0.4
    endloop
  endfacet
  facet normal 0 0 -1
    outer loop
      vertex -14.25 14.1872 0.4
      vertex -6.52276 11.7589 0.4
      vertex -8.0808 -12.6565 0.4
    endloop
  endfacet
  facet normal 0 0 -1
    outer loop
      vertex -6.52276 11.7589 0.4
      vertex -10.1777 13.5575 0.4
      vertex -6.86677 12.0367 0.4
    endloop
  endfacet
  facet normal 0 0 -1
    outer loop
      vertex -14.1953 -14.1942 0.4
      vertex -8.0808 -12.6565 0.4
      vertex -11.0583 -13.8073 0.4
    endloop
  endfacet
  facet normal 0 0 -1
    outer loop
      vertex -14.25 14.1872 0.4
      vertex -8.0808 -12.6565 0.4
      vertex -14.1953 -14.1942 0.4
    endloop
  endfacet
  facet normal 0 0 -1
    outer loop
      vertex -14.25 14.1872 0.4
      vertex -14.1953 -14.1942 0.4
      vertex -14.25 -14.2009 0.4
    endloop
  endfacet
  facet normal 0 0 -1
    outer loop
      vertex -6.52276 11.7589 0.4
      vertex -14.25 14.1872 0.4
      vertex -10.1777 13.5575 0.4
    endloop
  endfacet
  facet normal 0 0 -1
    outer loop
      vertex -85.85 13.9 0.4
      vertex -29.0809 14.25 0.4
      vertex -85.85 -13.9 0.4
    endloop
  endfacet
  facet normal 0 0 -1
    outer loop
      vertex -99 14.25 0.4
      vertex -85.85 13.9 0.4
      vertex -98.65 13.9 0.4
    endloop
  endfacet
  facet normal 0 0 -1
    outer loop
      vertex -85.85 13.9 0.4
      vertex -99 14.25 0.4
      vertex -29.0809 14.25 0.4
    endloop
  endfacet
  facet normal 0 0 -1
    outer loop
      vertex -99 14.25 0.4
      vertex -98.65 13.9 0.4
      vertex -99 -14.25 0.4
    endloop
  endfacet
  facet normal -1 0 0
    outer loop
      vertex -98.65 -13.9 0
      vertex -98.65 13.9 0.4
      vertex -98.65 13.9 0
    endloop
  endfacet
  facet normal -1 -0 0
    outer loop
      vertex -98.65 13.9 0.4
      vertex -98.65 -13.9 0
      vertex -98.65 -13.9 0.4
    endloop
  endfacet
  facet normal 1 -0 0
    outer loop
      vertex -85.85 -13.9 0.4
      vertex -85.85 13.9 0
      vertex -85.85 13.9 0.4
    endloop
  endfacet
  facet normal 1 0 0
    outer loop
      vertex -85.85 13.9 0
      vertex -85.85 -13.9 0.4
      vertex -85.85 -13.9 0
    endloop
  endfacet
  facet normal 0 1 -0
    outer loop
      vertex -85.85 13.9 0
      vertex -98.65 13.9 0.4
      vertex -85.85 13.9 0.4
    endloop
  endfacet
  facet normal 0 1 0
    outer loop
      vertex -98.65 13.9 0.4
      vertex -85.85 13.9 0
      vertex -98.65 13.9 0
    endloop
  endfacet
  facet normal 0 -1 0
    outer loop
      vertex -98.65 -13.9 0
      vertex -85.85 -13.9 0.4
      vertex -98.65 -13.9 0.4
    endloop
  endfacet
  facet normal 0 -1 -0
    outer loop
      vertex -85.85 -13.9 0.4
      vertex -98.65 -13.9 0
      vertex -85.85 -13.9 0
    endloop
  endfacet
endsolid OpenSCAD_Model
