<?xml version="1.0" standalone="no"?>
<!DOCTYPE svg PUBLIC "-//W3C//DTD SVG 1.1//EN" "http://www.w3.org/Graphics/SVG/1.1/DTD/svg11.dtd">
<svg width="2008mm" height="108mm" viewBox="-203 -54 2008 108" xmlns="http://www.w3.org/2000/svg" version="1.1">
<title>OpenSCAD Model</title>
<path d="
M -132.968,50.8815 L -120.833,45.1715 L -110.5,36.6233 L -102.618,25.7738 L -100.727,21 L -98.505,21
 L -98.505,37.5 L 27.505,37.5 L 27.505,-37.5 L -98.505,-37.5 L -98.505,-21 L -100.727,-21
 L -102.618,-25.7738 L -110.5,-36.6233 L -120.833,-45.1715 L -132.968,-50.8815 L -146.141,-53.3944 L -159.525,-52.5524
 L -172.279,-48.4082 L -183.602,-41.2225 L -192.782,-31.4465 L -199.243,-19.6947 L -202.578,-6.70532 L -202.578,6.70532
 L -199.243,19.6947 L -192.782,31.4465 L -183.602,41.2225 L -172.279,48.4082 L -159.525,52.5524 L -146.141,53.3944
 z
M 467.032,50.8815 L 479.167,45.1715 L 489.5,36.6233 L 497.382,25.7738 L 502.319,13.3049 L 504,-0
 L 502.319,-13.3049 L 497.382,-25.7738 L 489.5,-36.6233 L 479.167,-45.1715 L 467.032,-50.8815 L 453.859,-53.3944
 L 440.475,-52.5524 L 427.721,-48.4082 L 416.398,-41.2225 L 407.218,-31.4465 L 400.757,-19.6947 L 399.5,-14.7991
 L 399.5,-34.9309 L 303.5,-34.9309 L 303.5,-14.25 L 301.945,-14.25 L 302.319,-13.3049 L 302.484,-12
 L 303.5,-12 L 303.5,-4 L 303.495,-4 L 303.5,-3.9579 L 303.5,3.9579 L 302.674,10.5
 L 303.5,10.5 L 303.5,13.5 L 302.242,13.5 L 301.945,14.25 L 303.5,14.25 L 303.5,34.9309
 L 399.5,34.9309 L 399.5,14.7991 L 400.757,19.6947 L 407.218,31.4465 L 416.398,41.2225 L 427.721,48.4082
 L 440.475,52.5524 L 453.859,53.3944 z
M 227.505,-37.5 L 101.495,-37.5 L 101.495,-21 L 99.2725,-21 L 102.319,-13.3049 L 102.484,-12
 L 110,-12 L 110,-4 L 103.495,-4 L 103.621,-3 L 100,-3 L 100,9
 L 102.863,9 L 102.319,13.3049 L 99.2725,21 L 101.495,21 L 101.495,37.5 L 227.505,37.5
 z
M 801.243,32.3429 L 802.409,31.8815 L 803.423,31.1448 L 804.222,30.1791 L 804.755,29.0451 L 805,27.5
 L 805,-27.5 L 804.843,-28.7435 L 804.382,-29.9088 L 803.645,-30.9227 L 802.679,-31.7216 L 801.545,-32.2553
 L 800,-32.5 L 790,-32.5 L 788.757,-32.3429 L 787.591,-31.8815 L 786.577,-31.1448 L 785.778,-30.1791
 L 785.245,-29.0451 L 785,-27.5 L 785,-17.5 L 700.658,-17.5 L 702.319,-13.3049 L 702.484,-12
 L 710,-12 L 710,-4 L 703.495,-4 L 703.621,-3 L 700,-3 L 700,9
 L 702.863,9 L 702.319,13.3049 L 700.658,17.5 L 785,17.5 L 785,27.5 L 785.157,28.7435
 L 785.618,29.9088 L 786.355,30.9227 L 787.321,31.7216 L 788.455,32.2553 L 790,32.5 L 800,32.5
 z
M 794.438,-22.0531 L 793.723,-22.2855 L 793.088,-22.6884 L 792.573,-23.2366 L 792.211,-23.8956 L 792.024,-24.624
 L 792.024,-25.376 L 792.211,-26.1044 L 792.573,-26.7634 L 793.088,-27.3115 L 793.723,-27.7145 L 794.438,-27.9469
 L 795.188,-27.9941 L 795.927,-27.8532 L 796.607,-27.533 L 797.187,-27.0536 L 797.629,-26.4453 L 797.906,-25.7461
 L 798,-25 L 797.906,-24.2539 L 797.629,-23.5547 L 797.187,-22.9464 L 796.607,-22.467 L 795.927,-22.1468
 L 795.188,-22.0059 z
M 767.846,-2 L 767.846,-7 L 771.057,-7 L 771.057,-5 L 770,-5 L 770,-2
 z
M 767.846,7 L 767.846,2 L 770,2 L 770,5 L 771.057,5 L 771.057,7
 z
M 794.438,27.9469 L 793.723,27.7145 L 793.088,27.3115 L 792.573,26.7634 L 792.211,26.1044 L 792.024,25.376
 L 792.024,24.624 L 792.211,23.8956 L 792.573,23.2366 L 793.088,22.6884 L 793.723,22.2855 L 794.438,22.0531
 L 795.188,22.0059 L 795.927,22.1468 L 796.607,22.467 L 797.187,22.9464 L 797.629,23.5547 L 797.906,24.2539
 L 798,25 L 797.906,25.7461 L 797.629,26.4453 L 797.187,27.0536 L 796.607,27.533 L 795.927,27.8532
 L 795.188,27.9941 z
M 1521.24,19.8429 L 1522.41,19.3815 L 1523.42,18.6448 L 1524.22,17.6791 L 1524.76,16.5451 L 1525,15
 L 1525,-15 L 1524.84,-16.2435 L 1524.38,-17.4088 L 1523.64,-18.4227 L 1522.68,-19.2216 L 1521.55,-19.7553
 L 1520,-20 L 1500,-20 L 1499.68,-19.9601 L 1502.32,-13.3049 L 1502.48,-12 L 1510,-12
 L 1510,-4 L 1503.49,-4 L 1503.62,-3 L 1500,-3 L 1500,9 L 1502.86,9
 L 1502.32,13.3049 L 1499.69,19.9506 L 1500,20 L 1520,20 z
M 1399.24,17.3429 L 1400.41,16.8815 L 1401.42,16.1448 L 1402.22,15.1791 L 1402.76,14.0451 L 1403,12.5
 L 1403,-12.5 L 1402.84,-13.7435 L 1402.38,-14.9088 L 1401.64,-15.9227 L 1400.68,-16.7216 L 1399.55,-17.2553
 L 1398,-17.5 L 1348,-17.5 L 1346.76,-17.3429 L 1345.59,-16.8815 L 1344.58,-16.1448 L 1343.78,-15.1791
 L 1343.24,-14.0451 L 1343,-12.5 L 1343,12.5 L 1343.16,13.7435 L 1343.62,14.9088 L 1344.36,15.9227
 L 1345.32,16.7216 L 1346.45,17.2553 L 1348,17.5 L 1398,17.5 z
M 1801.24,17.3429 L 1802.41,16.8815 L 1803.42,16.1448 L 1804.22,15.1791 L 1804.76,14.0451 L 1805,12.5
 L 1805,-12.5 L 1804.84,-13.7435 L 1804.38,-14.9088 L 1803.64,-15.9227 L 1802.68,-16.7216 L 1801.55,-17.2553
 L 1800,-17.5 L 1700.66,-17.5 L 1702.32,-13.3049 L 1702.48,-12 L 1710,-12 L 1710,-4
 L 1703.49,-4 L 1703.62,-3 L 1700,-3 L 1700,9 L 1702.86,9 L 1702.32,13.3049
 L 1700.66,17.5 L 1800,17.5 z
M 510,-12 L 502.484,-12 L 503.495,-4 L 510,-4 z
M 921.243,7.34291 L 922.409,6.88153 L 923.423,6.14484 L 924.222,5.17914 L 924.755,4.04509 L 925,2.5
 L 925,-2.5 L 924.843,-3.74345 L 924.382,-4.90877 L 923.645,-5.92273 L 922.679,-6.72163 L 921.545,-7.25528
 L 920,-7.5 L 910,-7.5 L 910,-4 L 903.495,-4 L 903.621,-3 L 900,-3
 L 900,7.5 L 920,7.5 z
M 512,10.5 L 502.674,10.5 L 502.319,13.3049 L 502.242,13.5 L 512,13.5 z
" stroke="black" fill="lightgray" stroke-width="0.5"/>
</svg>
