<?xml version="1.0" standalone="no"?>
<!DOCTYPE svg PUBLIC "-//W3C//DTD SVG 1.1//EN" "http://www.w3.org/Graphics/SVG/1.1/DTD/svg11.dtd">
<svg width="50mm" height="40mm" viewBox="-77 -20 50 40" xmlns="http://www.w3.org/2000/svg" version="1.1">
<title>OpenSCAD Model</title>
<path d="
M -30.7565,19.8429 L -29.5912,19.3815 L -28.5773,18.6448 L -27.7784,17.6791 L -27.2447,16.5451 L -27,15
 L -27,-15 L -27.1571,-16.2435 L -27.6185,-17.4088 L -28.3552,-18.4227 L -29.3209,-19.2216 L -30.4549,-19.7553
 L -32,-20 L -72,-20 L -73.2435,-19.8429 L -74.4088,-19.3815 L -75.4227,-18.6448 L -76.2216,-17.6791
 L -76.7553,-16.5451 L -77,-15 L -77,15 L -76.8429,16.2435 L -76.3815,17.4088 L -75.6448,18.4227
 L -74.6791,19.2216 L -73.5451,19.7553 L -72,20 L -32,20 z
M -47.5767,12.005 L -47.5767,9 L -58.0996,9 L -58.0996,11.8487 L -60.9144,11.4177 L -63.7295,10.1369
 L -66.1267,8.21956 L -67.231,6.75 L -61.9172,6.75 L -61.9172,6 L -60.25,6 L -60.25,3
 L -61.9172,3 L -61.9172,2.75 L -69.132,2.75 L -69.4907,0.00498962 L -69.4907,-0.00498962 L -69.041,-2.75
 L -61.9172,-2.75 L -61.9172,-3 L -54.823,-3 L -54.823,-6 L -61.9172,-6 L -61.9172,-6.75
 L -67.2889,-6.75 L -65.5754,-8.75261 L -63.0583,-10.5207 L -60.1656,-11.628 L -58.0996,-11.8803 L -58.0996,-9
 L -47.5767,-9 L -47.5767,-12.005 L -44.7118,-12.005 L -40.8764,-11.4177 L -38.0613,-10.1369 L -35.664,-8.21956
 L -33.8353,-5.78604 L -32.69,-2.98927 L -32.3,-0.00498962 L -32.3,0.00498962 L -32.9075,3.7132 L -34.2322,6.43491
 L -36.2154,8.75261 L -38.7324,10.5207 L -41.6251,11.628 L -44.7118,12.005 z
" stroke="black" fill="lightgray" stroke-width="0.5"/>
</svg>
