<?xml version="1.0" standalone="no"?>
<!DOCTYPE svg PUBLIC "-//W3C//DTD SVG 1.1//EN" "http://www.w3.org/Graphics/SVG/1.1/DTD/svg11.dtd">
<svg width="50mm" height="40mm" viewBox="-77 -20 50 40" xmlns="http://www.w3.org/2000/svg" version="1.1">
<title>OpenSCAD Model</title>
<path d="
M -30.7565,19.8429 L -29.5912,19.3815 L -28.5773,18.6448 L -27.7784,17.6791 L -27.2447,16.5451 L -27,15
 L -27,-15 L -27.1571,-16.2435 L -27.6185,-17.4088 L -28.3552,-18.4227 L -29.3209,-19.2216 L -30.4549,-19.7553
 L -32,-20 L -72,-20 L -73.2435,-19.8429 L -74.4088,-19.3815 L -75.4227,-18.6448 L -76.2216,-17.6791
 L -76.7553,-16.5451 L -77,-15 L -77,15 L -76.8429,16.2435 L -76.3815,17.4088 L -75.6448,18.4227
 L -74.6791,19.2216 L -73.5451,19.7553 L -72,20 L -32,20 z
M -51.0079,12.005 L -51.0079,9 L -60.0668,9 L -60.0668,11.6501 L -61.5647,11.4177 L -64.3422,10.1369
 L -66.7074,8.21956 L -67.797,6.75 L -63.8273,6.75 L -63.8273,6 L -61.25,6 L -61.25,3
 L -63.8273,3 L -63.8273,2.75 L -69.6725,2.75 L -70.0264,0.00498962 L -70.0264,-0.00498962 L -69.5827,-2.75
 L -63.8273,-2.75 L -63.8273,-3 L -56.9643,-3 L -56.9643,-6 L -63.8273,-6 L -63.8273,-6.75
 L -67.8541,-6.75 L -66.1634,-8.75261 L -63.6801,-10.5207 L -60.826,-11.628 L -60.0668,-11.722 L -60.0668,-9
 L -51.0079,-9 L -51.0079,-12.005 L -47.0478,-12.005 L -43.2636,-11.4177 L -40.4862,-10.1369 L -38.121,-8.21956
 L -36.3167,-5.78604 L -35.1867,-2.98927 L -34.802,-0.00498962 L -34.802,0.00498962 L -35.4013,3.7132 L -36.7083,6.43491
 L -38.665,8.75261 L -41.1483,10.5207 L -44.0024,11.628 L -47.0478,12.005 z
" stroke="black" fill="lightgray" stroke-width="0.5"/>
</svg>
