  0
SECTION
  2
BLOCKS
  0
ENDSEC
  0
SECTION
  2
ENTITIES
  0
LINE
  8
0
 10
-28.7565
 20
-19.8429
 11
-27.5912
 21
-19.3815
  0
LINE
  8
0
 10
-27.5912
 20
-19.3815
 11
-26.5773
 21
-18.6448
  0
LINE
  8
0
 10
-26.5773
 20
-18.6448
 11
-25.7784
 21
-17.6791
  0
LINE
  8
0
 10
-25.7784
 20
-17.6791
 11
-25.2447
 21
-16.5451
  0
LINE
  8
0
 10
-25.2447
 20
-16.5451
 11
-25
 21
-15
  0
LINE
  8
0
 10
-25
 20
-15
 11
-25
 21
15
  0
LINE
  8
0
 10
-25
 20
15
 11
-25.1571
 21
16.2435
  0
LINE
  8
0
 10
-25.1571
 20
16.2435
 11
-25.6185
 21
17.4088
  0
LINE
  8
0
 10
-25.6185
 20
17.4088
 11
-26.3552
 21
18.4227
  0
LINE
  8
0
 10
-26.3552
 20
18.4227
 11
-27.3209
 21
19.2216
  0
LINE
  8
0
 10
-27.3209
 20
19.2216
 11
-28.4549
 21
19.7553
  0
LINE
  8
0
 10
-28.4549
 20
19.7553
 11
-30
 21
20
  0
LINE
  8
0
 10
-30
 20
20
 11
-80
 21
20
  0
LINE
  8
0
 10
-80
 20
20
 11
-81.2435
 21
19.8429
  0
LINE
  8
0
 10
-81.2435
 20
19.8429
 11
-82.4088
 21
19.3815
  0
LINE
  8
0
 10
-82.4088
 20
19.3815
 11
-83.4227
 21
18.6448
  0
LINE
  8
0
 10
-83.4227
 20
18.6448
 11
-84.2216
 21
17.6791
  0
LINE
  8
0
 10
-84.2216
 20
17.6791
 11
-84.7553
 21
16.5451
  0
LINE
  8
0
 10
-84.7553
 20
16.5451
 11
-85
 21
15
  0
LINE
  8
0
 10
-85
 20
15
 11
-85
 21
-15
  0
LINE
  8
0
 10
-85
 20
-15
 11
-84.8429
 21
-16.2435
  0
LINE
  8
0
 10
-84.8429
 20
-16.2435
 11
-84.3815
 21
-17.4088
  0
LINE
  8
0
 10
-84.3815
 20
-17.4088
 11
-83.6448
 21
-18.4227
  0
LINE
  8
0
 10
-83.6448
 20
-18.4227
 11
-82.6791
 21
-19.2216
  0
LINE
  8
0
 10
-82.6791
 20
-19.2216
 11
-81.5451
 21
-19.7553
  0
LINE
  8
0
 10
-81.5451
 20
-19.7553
 11
-80
 21
-20
  0
LINE
  8
0
 10
-80
 20
-20
 11
-30
 21
-20
  0
LINE
  8
0
 10
-30
 20
-20
 11
-28.7565
 21
-19.8429
  0
LINE
  8
0
 10
-74.25
 20
1
 11
-74.25
 21
8
  0
LINE
  8
0
 10
-74.25
 20
8
 11
-61.25
 21
8
  0
LINE
  8
0
 10
-61.25
 20
8
 11
-61.25
 21
1
  0
LINE
  8
0
 10
-61.25
 20
1
 11
-74.25
 21
1
  0
LINE
  8
0
 10
-74.25
 20
-8
 11
-74.25
 21
-1
  0
LINE
  8
0
 10
-74.25
 20
-1
 11
-61.25
 21
-1
  0
LINE
  8
0
 10
-61.25
 20
-1
 11
-61.25
 21
-8
  0
LINE
  8
0
 10
-61.25
 20
-8
 11
-74.25
 21
-8
  0
ENDSEC
  0
SECTION
  2
OBJECTS
  0
DICTIONARY
  0
ENDSEC
  0
EOF
