  0
SECTION
  2
BLOCKS
  0
ENDSEC
  0
SECTION
  2
ENTITIES
  0
LINE
  8
0
 10
-78.7565
 20
-19.8429
 11
-77.5912
 21
-19.3815
  0
LINE
  8
0
 10
-77.5912
 20
-19.3815
 11
-76.5773
 21
-18.6448
  0
LINE
  8
0
 10
-76.5773
 20
-18.6448
 11
-75.7784
 21
-17.6791
  0
LINE
  8
0
 10
-75.7784
 20
-17.6791
 11
-75.2447
 21
-16.5451
  0
LINE
  8
0
 10
-75.2447
 20
-16.5451
 11
-75
 21
-15
  0
LINE
  8
0
 10
-75
 20
-15
 11
-75
 21
15
  0
LINE
  8
0
 10
-75
 20
15
 11
-75.1571
 21
16.2435
  0
LINE
  8
0
 10
-75.1571
 20
16.2435
 11
-75.6185
 21
17.4088
  0
LINE
  8
0
 10
-75.6185
 20
17.4088
 11
-76.3552
 21
18.4227
  0
LINE
  8
0
 10
-76.3552
 20
18.4227
 11
-77.3209
 21
19.2216
  0
LINE
  8
0
 10
-77.3209
 20
19.2216
 11
-78.4549
 21
19.7553
  0
LINE
  8
0
 10
-78.4549
 20
19.7553
 11
-80
 21
20
  0
LINE
  8
0
 10
-80
 20
20
 11
-100
 21
20
  0
LINE
  8
0
 10
-100
 20
20
 11
-100.5
 21
19.9368
  0
LINE
  8
0
 10
-100.5
 20
19.9368
 11
-100.5
 21
14.1111
  0
LINE
  8
0
 10
-100.5
 20
14.1111
 11
-100.181
 21
13.3049
  0
LINE
  8
0
 10
-100.181
 20
13.3049
 11
-100.016
 21
12
  0
LINE
  8
0
 10
-100.016
 20
12
 11
-92.5
 21
12
  0
LINE
  8
0
 10
-92.5
 20
12
 11
-92.5
 21
4
  0
LINE
  8
0
 10
-92.5
 20
4
 11
-99.0053
 21
4
  0
LINE
  8
0
 10
-99.0053
 20
4
 11
-98.879
 21
3
  0
LINE
  8
0
 10
-98.879
 20
3
 11
-100.5
 21
3
  0
LINE
  8
0
 10
-100.5
 20
3
 11
-100.5
 21
-9
  0
LINE
  8
0
 10
-100.5
 20
-9
 11
-99.637
 21
-9
  0
LINE
  8
0
 10
-99.637
 20
-9
 11
-100.181
 21
-13.3049
  0
LINE
  8
0
 10
-100.181
 20
-13.3049
 11
-100.5
 21
-14.1111
  0
LINE
  8
0
 10
-100.5
 20
-14.1111
 11
-100.5
 21
-19.9208
  0
LINE
  8
0
 10
-100.5
 20
-19.9208
 11
-100
 21
-20
  0
LINE
  8
0
 10
-100
 20
-20
 11
-80
 21
-20
  0
LINE
  8
0
 10
-80
 20
-20
 11
-78.7565
 21
-19.8429
  0
ENDSEC
  0
SECTION
  2
OBJECTS
  0
DICTIONARY
  0
ENDSEC
  0
EOF
