<?xml version="1.0" standalone="no"?>
<!DOCTYPE svg PUBLIC "-//W3C//DTD SVG 1.1//EN" "http://www.w3.org/Graphics/SVG/1.1/DTD/svg11.dtd">
<svg width="50mm" height="40mm" viewBox="-77 -20 50 40" xmlns="http://www.w3.org/2000/svg" version="1.1">
<title>OpenSCAD Model</title>
<path d="
M -30.7565,19.8429 L -29.5912,19.3815 L -28.5773,18.6448 L -27.7784,17.6791 L -27.2447,16.5451 L -27,15
 L -27,-15 L -27.1571,-16.2435 L -27.6185,-17.4088 L -28.3552,-18.4227 L -29.3209,-19.2216 L -30.4549,-19.7553
 L -32,-20 L -72,-20 L -73.2435,-19.8429 L -74.4088,-19.3815 L -75.4227,-18.6448 L -76.2216,-17.6791
 L -76.7553,-16.5451 L -77,-15 L -77,15 L -76.8429,16.2435 L -76.3815,17.4088 L -75.6448,18.4227
 L -74.6791,19.2216 L -73.5451,19.7553 L -72,20 L -32,20 z
M -50.7399,12.005 L -50.7399,9 L -59.9525,9 L -59.9525,11.8177 L -62.5401,11.4177 L -65.3282,10.1369
 L -67.7024,8.21956 L -68.7962,6.75 L -64.7222,6.75 L -64.7222,6 L -62.75,6 L -62.75,3
 L -64.7222,3 L -64.7222,2.75 L -70.6789,2.75 L -71.0342,0.00498962 L -71.0342,-0.00498962 L -70.5888,-2.75
 L -64.7222,-2.75 L -64.7222,-3 L -58.0962,-3 L -58.0962,-6 L -64.7222,-6 L -64.7222,-6.75
 L -68.8535,-6.75 L -67.1564,-8.75261 L -64.6635,-10.5207 L -61.7985,-11.628 L -59.9525,-11.8556 L -59.9525,-9
 L -50.7399,-9 L -50.7399,-12.005 L -48.1475,-12.005 L -44.3488,-11.4177 L -41.5607,-10.1369 L -39.1865,-8.21956
 L -37.3753,-5.78604 L -36.2409,-2.98927 L -35.8547,-0.00498962 L -35.8547,0.00498962 L -36.4564,3.7132 L -37.7684,6.43491
 L -39.7325,8.75261 L -42.2254,10.5207 L -45.0904,11.628 L -48.1475,12.005 z
" stroke="black" fill="lightgray" stroke-width="0.5"/>
</svg>
