<?xml version="1.0" standalone="no"?>
<!DOCTYPE svg PUBLIC "-//W3C//DTD SVG 1.1//EN" "http://www.w3.org/Graphics/SVG/1.1/DTD/svg11.dtd">
<svg width="110mm" height="36mm" viewBox="-105 -18 110 36" xmlns="http://www.w3.org/2000/svg" version="1.1">
<title>OpenSCAD Model</title>
<path d="
M 1.24345,17.3429 L 2.40877,16.8815 L 3.42273,16.1448 L 4.22163,15.1791 L 4.75528,14.0451 L 5,12.5
 L 5,-12.5 L 4.84291,-13.7435 L 4.38153,-14.9088 L 3.64484,-15.9227 L 2.67914,-16.7216 L 1.54509,-17.2553
 L 0,-17.5 L -100,-17.5 L -101.243,-17.3429 L -102.409,-16.8815 L -103.423,-16.1448 L -104.222,-15.1791
 L -104.755,-14.0451 L -105,-12.5 L -105,12.5 L -104.843,13.7435 L -104.382,14.9088 L -103.645,15.9227
 L -102.679,16.7216 L -101.545,17.2553 L -100,17.5 L 0,17.5 z
M -99,14.25 L -99,-14.25 L -85.5,-14.25 L -85.5,14.25 z
" stroke="black" fill="lightgray" stroke-width="0.5"/>
</svg>
