  0
SECTION
  2
BLOCKS
  0
ENDSEC
  0
SECTION
  2
ENTITIES
  0
LINE
  8
0
 10
-30.7565
 20
-19.8429
 11
-29.5912
 21
-19.3815
  0
LINE
  8
0
 10
-29.5912
 20
-19.3815
 11
-28.5773
 21
-18.6448
  0
LINE
  8
0
 10
-28.5773
 20
-18.6448
 11
-27.7784
 21
-17.6791
  0
LINE
  8
0
 10
-27.7784
 20
-17.6791
 11
-27.2447
 21
-16.5451
  0
LINE
  8
0
 10
-27.2447
 20
-16.5451
 11
-27
 21
-15
  0
LINE
  8
0
 10
-27
 20
-15
 11
-27
 21
15
  0
LINE
  8
0
 10
-27
 20
15
 11
-27.1571
 21
16.2435
  0
LINE
  8
0
 10
-27.1571
 20
16.2435
 11
-27.6185
 21
17.4088
  0
LINE
  8
0
 10
-27.6185
 20
17.4088
 11
-28.3552
 21
18.4227
  0
LINE
  8
0
 10
-28.3552
 20
18.4227
 11
-29.3209
 21
19.2216
  0
LINE
  8
0
 10
-29.3209
 20
19.2216
 11
-30.4549
 21
19.7553
  0
LINE
  8
0
 10
-30.4549
 20
19.7553
 11
-32
 21
20
  0
LINE
  8
0
 10
-32
 20
20
 11
-72
 21
20
  0
LINE
  8
0
 10
-72
 20
20
 11
-73.2435
 21
19.8429
  0
LINE
  8
0
 10
-73.2435
 20
19.8429
 11
-74.4088
 21
19.3815
  0
LINE
  8
0
 10
-74.4088
 20
19.3815
 11
-75.4227
 21
18.6448
  0
LINE
  8
0
 10
-75.4227
 20
18.6448
 11
-76.2216
 21
17.6791
  0
LINE
  8
0
 10
-76.2216
 20
17.6791
 11
-76.7553
 21
16.5451
  0
LINE
  8
0
 10
-76.7553
 20
16.5451
 11
-77
 21
15
  0
LINE
  8
0
 10
-77
 20
15
 11
-77
 21
-15
  0
LINE
  8
0
 10
-77
 20
-15
 11
-76.8429
 21
-16.2435
  0
LINE
  8
0
 10
-76.8429
 20
-16.2435
 11
-76.3815
 21
-17.4088
  0
LINE
  8
0
 10
-76.3815
 20
-17.4088
 11
-75.6448
 21
-18.4227
  0
LINE
  8
0
 10
-75.6448
 20
-18.4227
 11
-74.6791
 21
-19.2216
  0
LINE
  8
0
 10
-74.6791
 20
-19.2216
 11
-73.5451
 21
-19.7553
  0
LINE
  8
0
 10
-73.5451
 20
-19.7553
 11
-72
 21
-20
  0
LINE
  8
0
 10
-72
 20
-20
 11
-32
 21
-20
  0
LINE
  8
0
 10
-32
 20
-20
 11
-30.7565
 21
-19.8429
  0
LINE
  8
0
 10
-50.7399
 20
-12.005
 11
-50.7399
 21
-9
  0
LINE
  8
0
 10
-50.7399
 20
-9
 11
-59.9525
 21
-9
  0
LINE
  8
0
 10
-59.9525
 20
-9
 11
-59.9525
 21
-11.8177
  0
LINE
  8
0
 10
-59.9525
 20
-11.8177
 11
-62.5401
 21
-11.4177
  0
LINE
  8
0
 10
-62.5401
 20
-11.4177
 11
-65.3282
 21
-10.1369
  0
LINE
  8
0
 10
-65.3282
 20
-10.1369
 11
-67.7024
 21
-8.21956
  0
LINE
  8
0
 10
-67.7024
 20
-8.21956
 11
-68.7962
 21
-6.75
  0
LINE
  8
0
 10
-68.7962
 20
-6.75
 11
-64.7222
 21
-6.75
  0
LINE
  8
0
 10
-64.7222
 20
-6.75
 11
-64.7222
 21
-6
  0
LINE
  8
0
 10
-64.7222
 20
-6
 11
-62.75
 21
-6
  0
LINE
  8
0
 10
-62.75
 20
-6
 11
-62.75
 21
-3
  0
LINE
  8
0
 10
-62.75
 20
-3
 11
-64.7222
 21
-3
  0
LINE
  8
0
 10
-64.7222
 20
-3
 11
-64.7222
 21
-2.75
  0
LINE
  8
0
 10
-64.7222
 20
-2.75
 11
-70.6789
 21
-2.75
  0
LINE
  8
0
 10
-70.6789
 20
-2.75
 11
-71.0342
 21
-0.00498962
  0
LINE
  8
0
 10
-71.0342
 20
-0.00498962
 11
-71.0342
 21
0.00498962
  0
LINE
  8
0
 10
-71.0342
 20
0.00498962
 11
-70.5888
 21
2.75
  0
LINE
  8
0
 10
-70.5888
 20
2.75
 11
-64.7222
 21
2.75
  0
LINE
  8
0
 10
-64.7222
 20
2.75
 11
-64.7222
 21
3
  0
LINE
  8
0
 10
-64.7222
 20
3
 11
-58.0962
 21
3
  0
LINE
  8
0
 10
-58.0962
 20
3
 11
-58.0962
 21
6
  0
LINE
  8
0
 10
-58.0962
 20
6
 11
-64.7222
 21
6
  0
LINE
  8
0
 10
-64.7222
 20
6
 11
-64.7222
 21
6.75
  0
LINE
  8
0
 10
-64.7222
 20
6.75
 11
-68.8535
 21
6.75
  0
LINE
  8
0
 10
-68.8535
 20
6.75
 11
-67.1564
 21
8.75261
  0
LINE
  8
0
 10
-67.1564
 20
8.75261
 11
-64.6635
 21
10.5207
  0
LINE
  8
0
 10
-64.6635
 20
10.5207
 11
-61.7985
 21
11.628
  0
LINE
  8
0
 10
-61.7985
 20
11.628
 11
-59.9525
 21
11.8556
  0
LINE
  8
0
 10
-59.9525
 20
11.8556
 11
-59.9525
 21
9
  0
LINE
  8
0
 10
-59.9525
 20
9
 11
-50.7399
 21
9
  0
LINE
  8
0
 10
-50.7399
 20
9
 11
-50.7399
 21
12.005
  0
LINE
  8
0
 10
-50.7399
 20
12.005
 11
-48.1475
 21
12.005
  0
LINE
  8
0
 10
-48.1475
 20
12.005
 11
-44.3488
 21
11.4177
  0
LINE
  8
0
 10
-44.3488
 20
11.4177
 11
-41.5607
 21
10.1369
  0
LINE
  8
0
 10
-41.5607
 20
10.1369
 11
-39.1865
 21
8.21956
  0
LINE
  8
0
 10
-39.1865
 20
8.21956
 11
-37.3753
 21
5.78604
  0
LINE
  8
0
 10
-37.3753
 20
5.78604
 11
-36.2409
 21
2.98927
  0
LINE
  8
0
 10
-36.2409
 20
2.98927
 11
-35.8547
 21
0.00498962
  0
LINE
  8
0
 10
-35.8547
 20
0.00498962
 11
-35.8547
 21
-0.00498962
  0
LINE
  8
0
 10
-35.8547
 20
-0.00498962
 11
-36.4564
 21
-3.7132
  0
LINE
  8
0
 10
-36.4564
 20
-3.7132
 11
-37.7684
 21
-6.43491
  0
LINE
  8
0
 10
-37.7684
 20
-6.43491
 11
-39.7325
 21
-8.75261
  0
LINE
  8
0
 10
-39.7325
 20
-8.75261
 11
-42.2254
 21
-10.5207
  0
LINE
  8
0
 10
-42.2254
 20
-10.5207
 11
-45.0904
 21
-11.628
  0
LINE
  8
0
 10
-45.0904
 20
-11.628
 11
-48.1475
 21
-12.005
  0
LINE
  8
0
 10
-48.1475
 20
-12.005
 11
-50.7399
 21
-12.005
  0
ENDSEC
  0
SECTION
  2
OBJECTS
  0
DICTIONARY
  0
ENDSEC
  0
EOF
