<?xml version="1.0" standalone="no"?>
<!DOCTYPE svg PUBLIC "-//W3C//DTD SVG 1.1//EN" "http://www.w3.org/Graphics/SVG/1.1/DTD/svg11.dtd">
<svg width="105mm" height="66mm" viewBox="-100 -33 105 66" xmlns="http://www.w3.org/2000/svg" version="1.1">
<title>OpenSCAD Model</title>
<path d="
M 1.24345,32.3429 L 2.40877,31.8815 L 3.42273,31.1448 L 4.22163,30.1791 L 4.75528,29.0451 L 5,27.5
 L 5,-27.5 L 4.84291,-28.7435 L 4.38153,-29.9088 L 3.64484,-30.9227 L 2.67914,-31.7216 L 1.54509,-32.2553
 L 0,-32.5 L -10,-32.5 L -11.2435,-32.3429 L -12.4088,-31.8815 L -13.4227,-31.1448 L -14.2216,-30.1791
 L -14.7553,-29.0451 L -15,-27.5 L -15,-17.5 L -99.3418,-17.5 L -97.6808,-13.3049 L -97.5159,-12
 L -90,-12 L -90,-4 L -96.5053,-4 L -96.379,-3 L -100,-3 L -100,9
 L -97.137,9 L -97.6808,13.3049 L -99.3418,17.5 L -15,17.5 L -15,27.5 L -14.8429,28.7435
 L -14.3815,29.9088 L -13.6448,30.9227 L -12.6791,31.7216 L -11.5451,32.2553 L -10,32.5 L 0,32.5
 z
M -5.56213,-22.0531 L -6.27733,-22.2855 L -6.91226,-22.6884 L -7.42705,-23.2366 L -7.78932,-23.8956 L -7.97633,-24.624
 L -7.97633,-25.376 L -7.78932,-26.1044 L -7.42705,-26.7634 L -6.91226,-27.3115 L -6.27733,-27.7145 L -5.56213,-27.9469
 L -4.81161,-27.9941 L -4.07294,-27.8532 L -3.39252,-27.533 L -2.81308,-27.0536 L -2.37108,-26.4453 L -2.09424,-25.7461
 L -2,-25 L -2.09424,-24.2539 L -2.37108,-23.5547 L -2.81308,-22.9464 L -3.39252,-22.467 L -4.07294,-22.1468
 L -4.81161,-22.0059 z
M -32.154,-2 L -32.154,-7 L -28.9428,-7 L -28.9428,-5 L -30,-5 L -30,-2
 z
M -32.154,7 L -32.154,2 L -30,2 L -30,5 L -28.9428,5 L -28.9428,7
 z
M -5.56213,27.9469 L -6.27733,27.7145 L -6.91226,27.3115 L -7.42705,26.7634 L -7.78932,26.1044 L -7.97633,25.376
 L -7.97633,24.624 L -7.78932,23.8956 L -7.42705,23.2366 L -6.91226,22.6884 L -6.27733,22.2855 L -5.56213,22.0531
 L -4.81161,22.0059 L -4.07294,22.1468 L -3.39252,22.467 L -2.81308,22.9464 L -2.37108,23.5547 L -2.09424,24.2539
 L -2,25 L -2.09424,25.7461 L -2.37108,26.4453 L -2.81308,27.0536 L -3.39252,27.533 L -4.07294,27.8532
 L -4.81161,27.9941 z
" stroke="black" fill="lightgray" stroke-width="0.5"/>
</svg>
