  0
SECTION
  2
BLOCKS
  0
ENDSEC
  0
SECTION
  2
ENTITIES
  0
LINE
  8
0
 10
1.24345
 20
-17.3429
 11
2.40877
 21
-16.8815
  0
LINE
  8
0
 10
2.40877
 20
-16.8815
 11
3.42273
 21
-16.1448
  0
LINE
  8
0
 10
3.42273
 20
-16.1448
 11
4.22163
 21
-15.1791
  0
LINE
  8
0
 10
4.22163
 20
-15.1791
 11
4.75528
 21
-14.0451
  0
LINE
  8
0
 10
4.75528
 20
-14.0451
 11
5
 21
-12.5
  0
LINE
  8
0
 10
5
 20
-12.5
 11
5
 21
12.5
  0
LINE
  8
0
 10
5
 20
12.5
 11
4.84291
 21
13.7435
  0
LINE
  8
0
 10
4.84291
 20
13.7435
 11
4.38153
 21
14.9088
  0
LINE
  8
0
 10
4.38153
 20
14.9088
 11
3.64484
 21
15.9227
  0
LINE
  8
0
 10
3.64484
 20
15.9227
 11
2.67914
 21
16.7216
  0
LINE
  8
0
 10
2.67914
 20
16.7216
 11
1.54509
 21
17.2553
  0
LINE
  8
0
 10
1.54509
 20
17.2553
 11
0
 21
17.5
  0
LINE
  8
0
 10
0
 20
17.5
 11
-100
 21
17.5
  0
LINE
  8
0
 10
-100
 20
17.5
 11
-101.243
 21
17.3429
  0
LINE
  8
0
 10
-101.243
 20
17.3429
 11
-102.409
 21
16.8815
  0
LINE
  8
0
 10
-102.409
 20
16.8815
 11
-103.423
 21
16.1448
  0
LINE
  8
0
 10
-103.423
 20
16.1448
 11
-104.222
 21
15.1791
  0
LINE
  8
0
 10
-104.222
 20
15.1791
 11
-104.755
 21
14.0451
  0
LINE
  8
0
 10
-104.755
 20
14.0451
 11
-105
 21
12.5
  0
LINE
  8
0
 10
-105
 20
12.5
 11
-105
 21
-12.5
  0
LINE
  8
0
 10
-105
 20
-12.5
 11
-104.843
 21
-13.7435
  0
LINE
  8
0
 10
-104.843
 20
-13.7435
 11
-104.382
 21
-14.9088
  0
LINE
  8
0
 10
-104.382
 20
-14.9088
 11
-103.645
 21
-15.9227
  0
LINE
  8
0
 10
-103.645
 20
-15.9227
 11
-102.679
 21
-16.7216
  0
LINE
  8
0
 10
-102.679
 20
-16.7216
 11
-101.545
 21
-17.2553
  0
LINE
  8
0
 10
-101.545
 20
-17.2553
 11
-100
 21
-17.5
  0
LINE
  8
0
 10
-100
 20
-17.5
 11
0
 21
-17.5
  0
LINE
  8
0
 10
0
 20
-17.5
 11
1.24345
 21
-17.3429
  0
LINE
  8
0
 10
-99
 20
-14.25
 11
-99
 21
14.25
  0
LINE
  8
0
 10
-99
 20
14.25
 11
-85.5
 21
14.25
  0
LINE
  8
0
 10
-85.5
 20
14.25
 11
-85.5
 21
-14.25
  0
LINE
  8
0
 10
-85.5
 20
-14.25
 11
-99
 21
-14.25
  0
ENDSEC
  0
SECTION
  2
OBJECTS
  0
DICTIONARY
  0
ENDSEC
  0
EOF
