  0
SECTION
  2
BLOCKS
  0
ENDSEC
  0
SECTION
  2
ENTITIES
  0
LINE
  8
0
 10
-30.7565
 20
-19.8429
 11
-29.5912
 21
-19.3815
  0
LINE
  8
0
 10
-29.5912
 20
-19.3815
 11
-28.5773
 21
-18.6448
  0
LINE
  8
0
 10
-28.5773
 20
-18.6448
 11
-27.7784
 21
-17.6791
  0
LINE
  8
0
 10
-27.7784
 20
-17.6791
 11
-27.2447
 21
-16.5451
  0
LINE
  8
0
 10
-27.2447
 20
-16.5451
 11
-27
 21
-15
  0
LINE
  8
0
 10
-27
 20
-15
 11
-27
 21
15
  0
LINE
  8
0
 10
-27
 20
15
 11
-27.1571
 21
16.2435
  0
LINE
  8
0
 10
-27.1571
 20
16.2435
 11
-27.6185
 21
17.4088
  0
LINE
  8
0
 10
-27.6185
 20
17.4088
 11
-28.3552
 21
18.4227
  0
LINE
  8
0
 10
-28.3552
 20
18.4227
 11
-29.3209
 21
19.2216
  0
LINE
  8
0
 10
-29.3209
 20
19.2216
 11
-30.4549
 21
19.7553
  0
LINE
  8
0
 10
-30.4549
 20
19.7553
 11
-32
 21
20
  0
LINE
  8
0
 10
-32
 20
20
 11
-72
 21
20
  0
LINE
  8
0
 10
-72
 20
20
 11
-73.2435
 21
19.8429
  0
LINE
  8
0
 10
-73.2435
 20
19.8429
 11
-74.4088
 21
19.3815
  0
LINE
  8
0
 10
-74.4088
 20
19.3815
 11
-75.4227
 21
18.6448
  0
LINE
  8
0
 10
-75.4227
 20
18.6448
 11
-76.2216
 21
17.6791
  0
LINE
  8
0
 10
-76.2216
 20
17.6791
 11
-76.7553
 21
16.5451
  0
LINE
  8
0
 10
-76.7553
 20
16.5451
 11
-77
 21
15
  0
LINE
  8
0
 10
-77
 20
15
 11
-77
 21
-15
  0
LINE
  8
0
 10
-77
 20
-15
 11
-76.8429
 21
-16.2435
  0
LINE
  8
0
 10
-76.8429
 20
-16.2435
 11
-76.3815
 21
-17.4088
  0
LINE
  8
0
 10
-76.3815
 20
-17.4088
 11
-75.6448
 21
-18.4227
  0
LINE
  8
0
 10
-75.6448
 20
-18.4227
 11
-74.6791
 21
-19.2216
  0
LINE
  8
0
 10
-74.6791
 20
-19.2216
 11
-73.5451
 21
-19.7553
  0
LINE
  8
0
 10
-73.5451
 20
-19.7553
 11
-72
 21
-20
  0
LINE
  8
0
 10
-72
 20
-20
 11
-32
 21
-20
  0
LINE
  8
0
 10
-32
 20
-20
 11
-30.7565
 21
-19.8429
  0
LINE
  8
0
 10
-51.0079
 20
-12.005
 11
-51.0079
 21
-9
  0
LINE
  8
0
 10
-51.0079
 20
-9
 11
-60.0668
 21
-9
  0
LINE
  8
0
 10
-60.0668
 20
-9
 11
-60.0668
 21
-11.6501
  0
LINE
  8
0
 10
-60.0668
 20
-11.6501
 11
-61.5647
 21
-11.4177
  0
LINE
  8
0
 10
-61.5647
 20
-11.4177
 11
-64.3422
 21
-10.1369
  0
LINE
  8
0
 10
-64.3422
 20
-10.1369
 11
-66.7074
 21
-8.21956
  0
LINE
  8
0
 10
-66.7074
 20
-8.21956
 11
-67.797
 21
-6.75
  0
LINE
  8
0
 10
-67.797
 20
-6.75
 11
-63.8273
 21
-6.75
  0
LINE
  8
0
 10
-63.8273
 20
-6.75
 11
-63.8273
 21
-6
  0
LINE
  8
0
 10
-63.8273
 20
-6
 11
-61.25
 21
-6
  0
LINE
  8
0
 10
-61.25
 20
-6
 11
-61.25
 21
-3
  0
LINE
  8
0
 10
-61.25
 20
-3
 11
-63.8273
 21
-3
  0
LINE
  8
0
 10
-63.8273
 20
-3
 11
-63.8273
 21
-2.75
  0
LINE
  8
0
 10
-63.8273
 20
-2.75
 11
-69.6725
 21
-2.75
  0
LINE
  8
0
 10
-69.6725
 20
-2.75
 11
-70.0264
 21
-0.00498962
  0
LINE
  8
0
 10
-70.0264
 20
-0.00498962
 11
-70.0264
 21
0.00498962
  0
LINE
  8
0
 10
-70.0264
 20
0.00498962
 11
-69.5827
 21
2.75
  0
LINE
  8
0
 10
-69.5827
 20
2.75
 11
-63.8273
 21
2.75
  0
LINE
  8
0
 10
-63.8273
 20
2.75
 11
-63.8273
 21
3
  0
LINE
  8
0
 10
-63.8273
 20
3
 11
-56.9643
 21
3
  0
LINE
  8
0
 10
-56.9643
 20
3
 11
-56.9643
 21
6
  0
LINE
  8
0
 10
-56.9643
 20
6
 11
-63.8273
 21
6
  0
LINE
  8
0
 10
-63.8273
 20
6
 11
-63.8273
 21
6.75
  0
LINE
  8
0
 10
-63.8273
 20
6.75
 11
-67.8541
 21
6.75
  0
LINE
  8
0
 10
-67.8541
 20
6.75
 11
-66.1634
 21
8.75261
  0
LINE
  8
0
 10
-66.1634
 20
8.75261
 11
-63.6801
 21
10.5207
  0
LINE
  8
0
 10
-63.6801
 20
10.5207
 11
-60.826
 21
11.628
  0
LINE
  8
0
 10
-60.826
 20
11.628
 11
-60.0668
 21
11.722
  0
LINE
  8
0
 10
-60.0668
 20
11.722
 11
-60.0668
 21
9
  0
LINE
  8
0
 10
-60.0668
 20
9
 11
-51.0079
 21
9
  0
LINE
  8
0
 10
-51.0079
 20
9
 11
-51.0079
 21
12.005
  0
LINE
  8
0
 10
-51.0079
 20
12.005
 11
-47.0478
 21
12.005
  0
LINE
  8
0
 10
-47.0478
 20
12.005
 11
-43.2636
 21
11.4177
  0
LINE
  8
0
 10
-43.2636
 20
11.4177
 11
-40.4862
 21
10.1369
  0
LINE
  8
0
 10
-40.4862
 20
10.1369
 11
-38.121
 21
8.21956
  0
LINE
  8
0
 10
-38.121
 20
8.21956
 11
-36.3167
 21
5.78604
  0
LINE
  8
0
 10
-36.3167
 20
5.78604
 11
-35.1867
 21
2.98927
  0
LINE
  8
0
 10
-35.1867
 20
2.98927
 11
-34.802
 21
0.00498962
  0
LINE
  8
0
 10
-34.802
 20
0.00498962
 11
-34.802
 21
-0.00498962
  0
LINE
  8
0
 10
-34.802
 20
-0.00498962
 11
-35.4013
 21
-3.7132
  0
LINE
  8
0
 10
-35.4013
 20
-3.7132
 11
-36.7083
 21
-6.43491
  0
LINE
  8
0
 10
-36.7083
 20
-6.43491
 11
-38.665
 21
-8.75261
  0
LINE
  8
0
 10
-38.665
 20
-8.75261
 11
-41.1483
 21
-10.5207
  0
LINE
  8
0
 10
-41.1483
 20
-10.5207
 11
-44.0024
 21
-11.628
  0
LINE
  8
0
 10
-44.0024
 20
-11.628
 11
-47.0478
 21
-12.005
  0
LINE
  8
0
 10
-47.0478
 20
-12.005
 11
-51.0079
 21
-12.005
  0
ENDSEC
  0
SECTION
  2
OBJECTS
  0
DICTIONARY
  0
ENDSEC
  0
EOF
